<svg width="150" height="150" viewBox="0 0 150 150" fill="none" xmlns="http://www.w3.org/2000/svg">
<path d="M150 114.72H0V114.795H150V114.72Z" fill="#EBEBEB"/>
<path d="M122.901 119.586H117.933V119.661H122.901V119.586Z" fill="#EBEBEB"/>
<path d="M110.1 118.497H98.757V118.572H110.1V118.497Z" fill="#EBEBEB"/>
<path d="M100.224 116.763H79.5V116.838H100.224V116.763Z" fill="#EBEBEB"/>
<path d="M19.545 117.267H15.738V117.342H19.545V117.267Z" fill="#EBEBEB"/>
<path d="M33.267 117.267H22.218V117.342H33.267V117.267Z" fill="#EBEBEB"/>
<path d="M63.558 118.533H45.699V118.608H63.558V118.533Z" fill="#EBEBEB"/>
<path d="M71.1 101.34H13.173C12.7192 101.339 12.2843 101.158 11.9637 100.837C11.6431 100.516 11.463 100.081 11.463 99.627V18.198C11.467 17.7468 11.6488 17.3154 11.9689 16.9975C12.2891 16.6795 12.7218 16.5008 13.173 16.5H71.1C71.5543 16.5 71.99 16.6805 72.3113 17.0017C72.6325 17.323 72.813 17.7587 72.813 18.213V99.627C72.813 100.081 72.6325 100.517 72.3113 100.838C71.99 101.16 71.5543 101.34 71.1 101.34ZM13.173 16.56C12.7391 16.5608 12.3232 16.7337 12.0167 17.0408C11.7102 17.3479 11.538 17.7641 11.538 18.198V99.627C11.538 100.061 11.7102 100.477 12.0167 100.784C12.3232 101.091 12.7391 101.264 13.173 101.265H71.1C71.5342 101.264 71.9504 101.091 72.2574 100.784C72.5644 100.477 72.7372 100.061 72.738 99.627V18.198C72.7372 17.7638 72.5644 17.3476 72.2574 17.0406C71.9504 16.7336 71.5342 16.5608 71.1 16.56H13.173Z" fill="#EBEBEB"/>
<path d="M135.993 101.34H78.063C77.6089 101.339 77.1737 101.158 76.8526 100.837C76.5315 100.516 76.3508 100.081 76.35 99.627V18.198C76.3547 17.7465 76.5372 17.3151 76.8579 16.9973C77.1785 16.6794 77.6115 16.5008 78.063 16.5H135.993C136.444 16.5016 136.876 16.6807 137.195 16.9985C137.515 17.3164 137.696 17.7473 137.7 18.198V99.627C137.7 100.08 137.52 100.515 137.2 100.836C136.88 101.157 136.446 101.338 135.993 101.34ZM78.063 16.56C77.6288 16.5608 77.2127 16.7336 76.9056 17.0406C76.5986 17.3476 76.4258 17.7638 76.425 18.198V99.627C76.4258 100.061 76.5986 100.477 76.9056 100.784C77.2127 101.091 77.6288 101.264 78.063 101.265H135.993C136.427 101.264 136.843 101.091 137.15 100.784C137.457 100.477 137.63 100.061 137.631 99.627V18.198C137.63 17.7638 137.457 17.3476 137.15 17.0406C136.843 16.7336 136.427 16.5608 135.993 16.56H78.063Z" fill="#EBEBEB"/>
<path d="M34.881 73.068C34.881 73.068 34.674 77.91 26.781 77.91C18.888 77.91 18.681 73.068 18.681 73.068H34.881Z" fill="#F0F0F0"/>
<path d="M34.881 69.3721C34.881 69.3721 34.674 74.2171 26.781 74.2171C18.888 74.2171 18.681 69.3721 18.681 69.3721H34.881Z" fill="#F0F0F0"/>
<path d="M22.131 79.194H15.906V112.062H22.131V79.194Z" fill="#F0F0F0"/>
<path d="M70.911 112.062H18.177V114.72H70.911V112.062Z" fill="#F0F0F0"/>
<path d="M22.131 112.062H73.182V79.194H22.131L22.131 112.062Z" fill="#F5F5F5"/>
<path d="M26.781 93.606H68.532V82.674H26.781V93.606Z" fill="#F0F0F0"/>
<path d="M26.781 107.049H68.532V96.1171H26.781V107.049Z" fill="#F0F0F0"/>
<path d="M52.554 84.1829H42.759C42.5094 84.1821 42.2703 84.0826 42.0938 83.9061C41.9173 83.7296 41.8178 83.4905 41.817 83.2409C41.817 82.9908 41.9161 82.7509 42.0927 82.5737C42.2693 82.3966 42.5089 82.2967 42.759 82.2959H52.554C52.8041 82.2967 53.0437 82.3966 53.2203 82.5737C53.3968 82.7509 53.496 82.9908 53.496 83.2409C53.4952 83.4905 53.3957 83.7296 53.2192 83.9061C53.0427 84.0826 52.8036 84.1821 52.554 84.1829Z" fill="#F5F5F5"/>
<path d="M52.554 97.623H42.759C42.5089 97.6222 42.2693 97.5223 42.0927 97.3451C41.9161 97.168 41.817 96.9281 41.817 96.678C41.8178 96.4284 41.9173 96.1892 42.0938 96.0127C42.2703 95.8363 42.5094 95.7368 42.759 95.736H52.554C52.8036 95.7368 53.0427 95.8363 53.2192 96.0127C53.3957 96.1892 53.4952 96.4284 53.496 96.678C53.496 96.9281 53.3968 97.168 53.2203 97.3451C53.0437 97.5223 52.8041 97.6222 52.554 97.623Z" fill="#F5F5F5"/>
<path d="M74.76 77.91H22.131V79.194H74.76V77.91Z" fill="#F0F0F0"/>
<path d="M14.253 79.197H22.131V77.913H14.253V79.197Z" fill="#E6E6E6"/>
<path d="M130.14 28.017H84.795V68.943H130.14V28.017Z" fill="#E6E6E6"/>
<path d="M132.477 28.017H85.575V68.943H132.477V28.017Z" fill="#F5F5F5"/>
<path d="M129.786 30.714H88.269V66.252H129.786V30.714Z" fill="white"/>
<path d="M127.53 81.6331H124.086V114.72H127.53V81.6331Z" fill="#E6E6E6"/>
<path d="M128.451 81.6331H126.423V114.72H128.451V81.6331Z" fill="#F0F0F0"/>
<path d="M112.872 81.6331H109.428V114.72H112.872V81.6331Z" fill="#E6E6E6"/>
<path d="M113.517 81.6331H111.489V114.72H113.517V81.6331Z" fill="#F0F0F0"/>
<path d="M98.79 88.0381H129.081V81.6331H98.79V88.0381Z" fill="#F0F0F0"/>
<path d="M83.835 81.6331H80.391V114.72H83.835V81.6331Z" fill="#E6E6E6"/>
<path d="M84.483 81.6331H82.455V114.72H84.483V81.6331Z" fill="#F0F0F0"/>
<path d="M79.779 88.0381H97.317V81.6331H79.779V88.0381Z" fill="#E6E6E6"/>
<path d="M98.496 81.6331H95.052V114.72H98.496V81.6331Z" fill="#E6E6E6"/>
<path d="M99.417 81.6331H97.389V114.72H99.417V81.6331Z" fill="#F0F0F0"/>
<path d="M75 128.268C107.125 128.268 133.167 126.748 133.167 124.872C133.167 122.996 107.125 121.476 75 121.476C42.8753 121.476 16.833 122.996 16.833 124.872C16.833 126.748 42.8753 128.268 75 128.268Z" fill="#F5F5F5"/>
<path d="M25.644 87.756L21.951 23.538C21.9299 23.2387 21.971 22.9382 22.0718 22.6555C22.1725 22.3728 22.3308 22.1141 22.5366 21.8956C22.7423 21.6772 22.9911 21.5037 23.2673 21.3863C23.5434 21.2688 23.8409 21.2098 24.141 21.213H97.38C98.0069 21.2206 98.6078 21.4642 99.0632 21.895C99.5185 22.3259 99.7948 22.9125 99.837 23.538L103.527 87.756C103.549 88.0551 103.508 88.3554 103.407 88.6379C103.307 88.9204 103.149 89.179 102.943 89.3973C102.738 89.6155 102.489 89.7887 102.213 89.9059C101.937 90.0231 101.64 90.0817 101.34 90.078H28.098C27.4718 90.0711 26.8712 89.8281 26.4162 89.3977C25.9613 88.9672 25.6855 88.381 25.644 87.756Z" fill="#263238"/>
<path d="M101.34 90.222H28.098C27.4357 90.213 26.8009 89.9554 26.3197 89.5003C25.8384 89.0452 25.5459 88.4258 25.5 87.765L21.81 23.544C21.7871 23.2254 21.8307 22.9055 21.9378 22.6047C22.045 22.3038 22.2135 22.0284 22.4326 21.7961C22.6517 21.5637 22.9167 21.3793 23.2108 21.2547C23.5049 21.13 23.8216 21.0678 24.141 21.072H97.38C98.0425 21.0802 98.6777 21.3376 99.1591 21.7929C99.6405 22.2481 99.9328 22.8679 99.978 23.529L103.671 87.747C103.693 88.0656 103.65 88.3854 103.542 88.6862C103.435 88.9871 103.266 89.2624 103.047 89.4949C102.828 89.7274 102.564 89.9121 102.27 90.0372C101.976 90.1623 101.659 90.2252 101.34 90.222ZM25.8 87.747C25.8399 88.3358 26.1 88.8881 26.5286 89.2939C26.9572 89.6997 27.5228 89.9293 28.113 89.937H101.34C101.62 89.9397 101.898 89.8844 102.156 89.7746C102.414 89.6647 102.646 89.5027 102.838 89.2987C103.03 89.0947 103.178 88.8531 103.273 88.5891C103.367 88.3252 103.405 88.0446 103.386 87.765L99.696 23.544C99.6553 22.9551 99.3945 22.4032 98.9653 21.9979C98.5362 21.5927 97.9702 21.3639 97.38 21.357H24.141C23.8605 21.3533 23.5823 21.408 23.324 21.5175C23.0657 21.6271 22.833 21.7891 22.6406 21.9933C22.4483 22.1975 22.3004 22.4395 22.2065 22.7038C22.1126 22.9682 22.0746 23.2492 22.095 23.529L25.8 87.747Z" fill="#263238"/>
<path d="M26.541 87.756L22.848 23.538C22.8268 23.2387 22.8679 22.9382 22.9687 22.6555C23.0695 22.3728 23.2278 22.1141 23.4335 21.8956C23.6393 21.6772 23.8881 21.5037 24.1643 21.3863C24.4404 21.2688 24.7379 21.2098 25.038 21.213H98.277C98.9038 21.2206 99.5048 21.4642 99.9602 21.895C100.415 22.3259 100.692 22.9125 100.734 23.538L104.424 87.756C104.446 88.0551 104.405 88.3554 104.304 88.6379C104.204 88.9204 104.046 89.179 103.84 89.3973C103.635 89.6155 103.386 89.7887 103.11 89.9059C102.834 90.0231 102.537 90.0817 102.237 90.078H28.995C28.3687 90.0711 27.7681 89.8281 27.3132 89.3977C26.8583 88.9672 26.5825 88.381 26.541 87.756Z" fill="white"/>
<path d="M102.237 90.222H28.995C28.3332 90.2123 27.6992 89.9544 27.2186 89.4993C26.738 89.0442 26.4458 88.4253 26.4 87.765L22.707 23.544C22.6841 23.2254 22.7277 22.9055 22.8348 22.6047C22.942 22.3038 23.1105 22.0284 23.3296 21.7961C23.5487 21.5637 23.8137 21.3793 24.1078 21.2547C24.4019 21.13 24.7186 21.0678 25.038 21.072H98.277C98.9395 21.0802 99.5747 21.3376 100.056 21.7929C100.537 22.2481 100.83 22.8679 100.875 23.529L104.568 87.747C104.59 88.0656 104.547 88.3854 104.439 88.6862C104.332 88.9871 104.163 89.2624 103.944 89.4949C103.725 89.7274 103.461 89.9121 103.167 90.0372C102.873 90.1623 102.556 90.2252 102.237 90.222ZM25.038 21.357C24.7575 21.3533 24.4793 21.408 24.221 21.5175C23.9627 21.6271 23.73 21.7891 23.5376 21.9933C23.3453 22.1975 23.1974 22.4395 23.1035 22.7038C23.0096 22.9682 22.9716 23.2492 22.992 23.529L26.682 87.747C26.7219 88.3358 26.982 88.8881 27.4106 89.2939C27.8392 89.6997 28.4048 89.9293 28.995 89.937H102.237C102.517 89.9397 102.795 89.8844 103.053 89.7746C103.311 89.6647 103.543 89.5027 103.735 89.2987C103.927 89.0947 104.075 88.8531 104.17 88.5891C104.264 88.3252 104.302 88.0446 104.283 87.765L100.593 23.544C100.551 22.9556 100.29 22.4045 99.8608 21.9995C99.432 21.5945 98.8668 21.3652 98.277 21.357H25.038Z" fill="#263238"/>
<path d="M51.159 30.489H30.693C30.321 30.4795 29.9657 30.3322 29.6963 30.0755C29.4268 29.8188 29.2624 29.4711 29.235 29.1C29.223 28.9226 29.2478 28.7447 29.3078 28.5774C29.3678 28.4101 29.4617 28.257 29.5837 28.1277C29.7057 27.9984 29.853 27.8957 30.0166 27.8261C30.1801 27.7564 30.3563 27.7213 30.534 27.723H51C51.3714 27.728 51.7273 27.8724 51.9973 28.1274C52.2673 28.3824 52.4317 28.7295 52.458 29.1C52.4717 29.2783 52.4482 29.4575 52.389 29.6262C52.3298 29.795 52.2361 29.9495 52.114 30.0802C51.9918 30.2108 51.8439 30.3146 51.6795 30.3849C51.5151 30.4553 51.3378 30.4907 51.159 30.489Z" fill="#F26D0A"/>
<path d="M47.4 35.2619H30.966C30.5975 35.2564 30.2444 35.1139 29.9754 34.862C29.7063 34.6102 29.5408 34.2672 29.511 33.8999C29.4986 33.7226 29.523 33.5446 29.5826 33.3772C29.6422 33.2097 29.7358 33.0564 29.8575 32.9268C29.9792 32.7972 30.1264 32.6942 30.2897 32.6242C30.4531 32.5542 30.6292 32.5187 30.807 32.5199H47.238C47.6098 32.5251 47.9662 32.6698 48.2362 32.9255C48.5063 33.1811 48.6704 33.5289 48.696 33.8999C48.7058 34.0758 48.6795 34.2518 48.6187 34.4171C48.558 34.5825 48.464 34.7336 48.3425 34.8612C48.2211 34.9888 48.0748 35.0902 47.9127 35.1591C47.7506 35.228 47.5761 35.263 47.4 35.2619Z" fill="#F26D0A"/>
<path d="M55.437 41.4239H30.837C30.5951 41.4213 30.3633 41.3269 30.1884 41.1598C30.0135 40.9927 29.9087 40.7654 29.895 40.5239C29.8858 40.4085 29.9008 40.2924 29.939 40.1831C29.9771 40.0737 30.0376 39.9735 30.1167 39.8888C30.1957 39.8042 30.2915 39.7369 30.3979 39.6913C30.5044 39.6457 30.6192 39.6227 30.735 39.6239H55.335C55.5766 39.6273 55.808 39.722 55.9828 39.8889C56.1575 40.0558 56.2626 40.2827 56.277 40.5239C56.2862 40.6394 56.2712 40.7555 56.233 40.8648C56.1948 40.9742 56.1343 41.0744 56.0553 41.159C55.9763 41.2437 55.8805 41.311 55.774 41.3566C55.6676 41.4022 55.5528 41.4251 55.437 41.4239Z" fill="#E0E0E0"/>
<path d="M59.874 44.2619H33.705C33.4634 44.2585 33.2319 44.1639 33.0572 43.9969C32.8825 43.83 32.7774 43.6031 32.763 43.3619C32.7534 43.2463 32.768 43.13 32.806 43.0205C32.844 42.9109 32.9045 42.8106 32.9836 42.7258C33.0627 42.641 33.1587 42.5737 33.2654 42.5283C33.3721 42.4828 33.4871 42.4602 33.603 42.4619H59.772C60.0139 42.4645 60.2457 42.559 60.4206 42.726C60.5954 42.8931 60.7003 43.1204 60.714 43.3619C60.7232 43.4773 60.7082 43.5934 60.67 43.7028C60.6319 43.8121 60.5714 43.9123 60.4923 43.997C60.4133 44.0816 60.3175 44.1489 60.2111 44.1945C60.1046 44.2401 59.9898 44.2631 59.874 44.2619Z" fill="#E0E0E0"/>
<path d="M55.245 47.1H33.867C33.6254 47.0972 33.394 47.0027 33.2196 46.8356C33.0452 46.6684 32.9409 46.4412 32.928 46.1999C32.9174 46.0845 32.9313 45.968 32.9688 45.8583C33.0063 45.7485 33.0665 45.6479 33.1454 45.563C33.2244 45.478 33.3204 45.4107 33.4272 45.3654C33.5339 45.3201 33.649 45.2978 33.765 45.2999H55.143C55.3851 45.3019 55.6173 45.3961 55.7923 45.5633C55.9673 45.7305 56.072 45.9582 56.085 46.1999C56.0942 46.3154 56.0792 46.4315 56.041 46.5408C56.0029 46.6502 55.9423 46.7504 55.8633 46.835C55.7843 46.9197 55.6885 46.987 55.582 47.0326C55.4756 47.0782 55.3608 47.1011 55.245 47.1Z" fill="#E0E0E0"/>
<path d="M52.995 49.938H34.032C33.7901 49.9354 33.5583 49.841 33.3834 49.6739C33.2086 49.5068 33.1037 49.2795 33.09 49.038C33.0799 48.9226 33.0942 48.8064 33.1318 48.6969C33.1694 48.5873 33.2296 48.4869 33.3085 48.4021C33.3874 48.3172 33.4832 48.2499 33.5898 48.2044C33.6963 48.159 33.8112 48.1363 33.927 48.138H52.893C53.1348 48.1407 53.3667 48.2351 53.5415 48.4022C53.7164 48.5693 53.8213 48.7965 53.835 49.038C53.8442 49.1535 53.8292 49.2696 53.791 49.3789C53.7529 49.4883 53.6923 49.5885 53.6133 49.6731C53.5343 49.7578 53.4385 49.8251 53.332 49.8707C53.2256 49.9163 53.1108 49.9392 52.995 49.938Z" fill="#E0E0E0"/>
<path d="M46.95 54.555H31.587C31.3452 54.553 31.1133 54.4587 30.9388 54.2914C30.7642 54.1241 30.6602 53.8964 30.648 53.655C30.6379 53.5396 30.6521 53.4233 30.6898 53.3138C30.7274 53.2043 30.7876 53.1038 30.8665 53.019C30.9454 52.9342 31.0412 52.8669 31.1477 52.8214C31.2543 52.7759 31.3692 52.7533 31.485 52.755H46.848C47.0896 52.7583 47.321 52.853 47.4958 53.0199C47.6705 53.1869 47.7756 53.4137 47.79 53.655C47.7996 53.7705 47.785 53.8868 47.747 53.9964C47.709 54.1059 47.6485 54.2063 47.5694 54.2911C47.4902 54.3758 47.3943 54.4431 47.2876 54.4886C47.1809 54.534 47.0659 54.5566 46.95 54.555Z" fill="#E0E0E0"/>
<path d="M51.3 61.29H34.683C34.5672 61.2888 34.4524 61.3117 34.346 61.3573C34.2395 61.4029 34.1437 61.4702 34.0647 61.5549C33.9857 61.6395 33.9251 61.7397 33.887 61.8491C33.8488 61.9584 33.8338 62.0745 33.843 62.19C33.8574 62.4312 33.9625 62.6581 34.1372 62.825C34.312 62.992 34.5434 63.0866 34.785 63.09H51.408C51.5238 63.0912 51.6386 63.0682 51.7451 63.0226C51.8515 62.977 51.9473 62.9097 52.0263 62.8251C52.1054 62.7404 52.1659 62.6402 52.204 62.5309C52.2422 62.4215 52.2572 62.3054 52.248 62.19C52.2343 61.9475 52.1285 61.7193 51.9524 61.5521C51.7762 61.3848 51.5429 61.2911 51.3 61.29Z" fill="#E0E0E0"/>
<path d="M48 58.4519H34.521C34.4052 58.4508 34.2904 58.4737 34.1839 58.5193C34.0775 58.5649 33.9817 58.6322 33.9027 58.7169C33.8237 58.8015 33.7631 58.9017 33.725 59.0111C33.6868 59.1204 33.6718 59.2365 33.681 59.3519C33.6947 59.5934 33.7996 59.8207 33.9744 59.9878C34.1493 60.1549 34.3811 60.2493 34.623 60.2519H48.09C48.2059 60.2536 48.3209 60.231 48.4276 60.1855C48.5343 60.1401 48.6303 60.0728 48.7094 59.988C48.7885 59.9033 48.849 59.8029 48.887 59.6933C48.925 59.5838 48.9396 59.4675 48.93 59.3519C48.9165 59.1125 48.8133 58.8869 48.6409 58.7201C48.4686 58.5534 48.2398 58.4576 48 58.4519Z" fill="#E0E0E0"/>
<path d="M49.371 55.6139H34.371C34.2553 55.6127 34.1406 55.6356 34.0343 55.6813C33.928 55.7269 33.8324 55.7942 33.7536 55.879C33.6748 55.9637 33.6146 56.0639 33.5768 56.1733C33.539 56.2826 33.5244 56.3986 33.534 56.5139C33.5469 56.7552 33.6512 56.9824 33.8256 57.1496C34 57.3167 34.2315 57.4112 34.473 57.4139H49.488C49.6039 57.4156 49.719 57.393 49.8256 57.3475C49.9323 57.3021 50.0283 57.2348 50.1074 57.15C50.1865 57.0653 50.247 56.9649 50.285 56.8553C50.323 56.7458 50.3376 56.6295 50.328 56.5139C50.3135 56.2701 50.2062 56.0411 50.0283 55.8738C49.8504 55.7065 49.6152 55.6135 49.371 55.6139Z" fill="#E0E0E0"/>
<path d="M48.195 76.2H32.832C32.5904 76.1966 32.359 76.102 32.1842 75.935C32.0095 75.7681 31.9044 75.5412 31.89 75.3C31.8804 75.1844 31.895 75.0681 31.933 74.9586C31.971 74.849 32.0315 74.7487 32.1106 74.6639C32.1898 74.5791 32.2857 74.5119 32.3924 74.4664C32.4991 74.421 32.6141 74.3983 32.73 74.4H48.093C48.3346 74.4027 48.566 74.4972 48.7404 74.6644C48.9148 74.8315 49.0191 75.0588 49.032 75.3C49.0421 75.4154 49.0279 75.5316 48.9902 75.6412C48.9526 75.7507 48.8924 75.8511 48.8135 75.936C48.7346 76.0208 48.6388 76.0881 48.5323 76.1336C48.4257 76.1791 48.3108 76.2017 48.195 76.2Z" fill="#E0E0E0"/>
<path d="M52.551 82.938H35.928C35.8122 82.9368 35.6974 82.9598 35.5909 83.0054C35.4845 83.051 35.3887 83.1183 35.3097 83.2029C35.2306 83.2876 35.1701 83.3878 35.1319 83.4971C35.0938 83.6065 35.0788 83.7226 35.088 83.838C35.1023 84.0793 35.2075 84.3061 35.3822 84.4731C35.5569 84.64 35.7883 84.7347 36.03 84.738H52.653C52.7689 84.7397 52.8839 84.7171 52.9906 84.6716C53.0973 84.6262 53.1932 84.5589 53.2724 84.4741C53.3515 84.3894 53.412 84.289 53.45 84.1794C53.488 84.0699 53.5026 83.9536 53.493 83.838C53.4786 83.5968 53.3735 83.3699 53.1988 83.203C53.024 83.0361 52.7926 82.9414 52.551 82.938Z" fill="#E0E0E0"/>
<path d="M49.233 80.1H35.763C35.6473 80.0988 35.5326 80.1217 35.4263 80.1674C35.32 80.213 35.2244 80.2803 35.1456 80.3651C35.0668 80.4498 35.0066 80.55 34.9688 80.6594C34.931 80.7687 34.9164 80.8847 34.926 81C34.9397 81.2415 35.0446 81.4688 35.2194 81.6359C35.3943 81.803 35.6261 81.8974 35.868 81.9H49.335C49.4508 81.9012 49.5656 81.8783 49.672 81.8327C49.7785 81.7871 49.8743 81.7198 49.9533 81.6351C50.0323 81.5505 50.0929 81.4503 50.131 81.3409C50.1692 81.2316 50.1842 81.1155 50.175 81C50.1606 80.7588 50.0555 80.5319 49.8808 80.365C49.7061 80.198 49.4746 80.1034 49.233 80.1Z" fill="#E0E0E0"/>
<path d="M50.616 77.2619H35.616C35.5001 77.2603 35.3851 77.2829 35.2784 77.3283C35.1717 77.3738 35.0757 77.4411 34.9966 77.5258C34.9175 77.6106 34.857 77.711 34.819 77.8205C34.781 77.9301 34.7664 78.0464 34.776 78.1619C34.7904 78.4031 34.8955 78.63 35.0702 78.7969C35.2449 78.9639 35.4764 79.0585 35.718 79.0619H50.733C50.8488 79.0631 50.9636 79.0402 51.0701 78.9946C51.1765 78.949 51.2723 78.8817 51.3513 78.797C51.4304 78.7123 51.4909 78.6121 51.529 78.5028C51.5672 78.3935 51.5822 78.2774 51.573 78.1619C51.5585 77.9181 51.4513 77.6891 51.2733 77.5218C51.0954 77.3545 50.8603 77.2615 50.616 77.2619Z" fill="#E0E0E0"/>
<path d="M51.795 69.804H35.172C35.0562 69.8023 34.9413 69.825 34.8347 69.8704C34.7282 69.9159 34.6324 69.9833 34.5535 70.0681C34.4746 70.1529 34.4144 70.2533 34.3768 70.3629C34.3391 70.4724 34.3249 70.5886 34.335 70.704C34.3479 70.9453 34.4522 71.1725 34.6266 71.3397C34.801 71.5068 35.0324 71.6013 35.274 71.604H51.9C52.0159 71.6057 52.1309 71.5831 52.2376 71.5376C52.3443 71.4922 52.4403 71.4249 52.5194 71.3401C52.5985 71.2554 52.659 71.155 52.697 71.0454C52.735 70.9359 52.7496 70.8196 52.74 70.704C52.7263 70.462 52.621 70.2343 52.4455 70.0672C52.2699 69.9 52.0374 69.8059 51.795 69.804Z" fill="#E0E0E0"/>
<path d="M48.477 66.966H35.01C34.8942 66.9648 34.7794 66.9877 34.6729 67.0333C34.5665 67.0789 34.4707 67.1462 34.3917 67.2309C34.3126 67.3156 34.2521 67.4157 34.2139 67.5251C34.1758 67.6344 34.1608 67.7505 34.17 67.866C34.1843 68.1072 34.2895 68.3341 34.4642 68.501C34.6389 68.668 34.8703 68.7626 35.112 68.766H48.579C48.6948 68.7672 48.8096 68.7442 48.916 68.6986C49.0225 68.653 49.1183 68.5857 49.1973 68.5011C49.2763 68.4164 49.3368 68.3162 49.375 68.2069C49.4132 68.0975 49.4281 67.9814 49.419 67.866C49.4053 67.6245 49.3004 67.3972 49.1255 67.2301C48.9507 67.0631 48.7188 66.9686 48.477 66.966Z" fill="#E0E0E0"/>
<path d="M49.86 64.128H34.86C34.7443 64.1267 34.6296 64.1497 34.5233 64.1953C34.417 64.241 34.3214 64.3083 34.2426 64.393C34.1638 64.4777 34.1036 64.578 34.0658 64.6873C34.0279 64.7966 34.0134 64.9127 34.023 65.028C34.0367 65.2695 34.1415 65.4967 34.3164 65.6638C34.4913 65.8309 34.7231 65.9253 34.965 65.928H49.965C50.0808 65.9292 50.1956 65.9062 50.302 65.8606C50.4085 65.815 50.5043 65.7477 50.5833 65.6631C50.6623 65.5784 50.7228 65.4782 50.761 65.3689C50.7992 65.2595 50.8142 65.1434 50.805 65.028C50.7906 64.7862 50.685 64.5589 50.5097 64.3919C50.3343 64.2249 50.1021 64.1306 49.86 64.128Z" fill="#E0E0E0"/>
<path d="M78.018 40.83H70.599C68.5979 40.806 66.6792 40.0293 65.2249 38.6545C63.7706 37.2797 62.8873 35.4076 62.751 33.411C62.6833 32.4549 62.8146 31.4952 63.1366 30.5925C63.4586 29.6897 63.9643 28.8635 64.6217 28.1661C65.2791 27.4686 66.074 26.9151 66.9562 26.5403C67.8383 26.1656 68.7886 25.9779 69.747 25.989C71.7483 26.0131 73.6671 26.7903 75.1209 28.1658C76.5748 29.5413 77.4571 31.4141 77.592 33.411L78.018 40.83Z" fill="#F26D0A"/>
<path d="M70.524 39.5459C68.8697 39.5256 67.2838 38.883 66.0819 37.7462C64.88 36.6093 64.1502 35.0615 64.038 33.4109C63.9815 32.6207 64.0896 31.8273 64.3554 31.081C64.6212 30.3346 65.039 29.6516 65.5824 29.0749C66.1257 28.4983 66.7828 28.0407 67.512 27.7311C68.2412 27.4214 69.0268 27.2664 69.819 27.2759C71.474 27.2948 73.0611 27.9368 74.2638 29.0739C75.4665 30.2109 76.1964 31.7596 76.308 33.4109C76.3641 34.2013 76.2556 34.9948 75.9894 35.7411C75.7233 36.4874 75.3052 37.1705 74.7616 37.747C74.218 38.3236 73.5608 38.7811 72.8314 39.0908C72.102 39.4004 71.3163 39.5554 70.524 39.5459Z" fill="white"/>
<path d="M70.902 30.9269L71.202 35.8949H69.828L69.642 32.6399C69.4481 32.7949 69.2402 32.9315 69.021 33.0479C68.7748 33.1691 68.5189 33.2694 68.256 33.3479L68.193 32.2349C68.5728 32.1259 68.9275 31.9435 69.237 31.6979C69.4813 31.4892 69.6717 31.2248 69.792 30.9269H70.902Z" fill="#263238"/>
<path d="M82.599 55.671H90.018C90.9763 55.6821 91.9264 55.4944 92.8084 55.1196C93.6905 54.7449 94.4852 54.1913 95.1424 53.4938C95.7995 52.7962 96.3049 51.97 96.6266 51.0673C96.9482 50.1645 97.0791 49.2049 97.011 48.249C96.8754 46.2526 95.9928 44.3806 94.5389 43.0057C93.0851 41.6308 91.1668 40.854 89.166 40.83C88.2077 40.8184 87.2575 41.0058 86.3754 41.3802C85.4932 41.7546 84.6983 42.3078 84.0408 43.0051C83.3833 43.7023 82.8776 44.5283 82.5556 45.4309C82.2336 46.3335 82.1023 47.293 82.17 48.249L82.599 55.671Z" fill="#F26D0A"/>
<path d="M89.943 54.384C90.7353 54.3935 91.521 54.2385 92.2504 53.9289C92.9798 53.6192 93.637 53.1617 94.1806 52.5851C94.7242 52.0086 95.1422 51.3255 95.4084 50.5792C95.6746 49.8329 95.7831 49.0394 95.727 48.249C95.6147 46.5979 94.8846 45.0497 93.6821 43.9128C92.4795 42.7758 90.8928 42.1336 89.238 42.114C88.4459 42.105 87.6606 42.2603 86.9315 42.5701C86.2025 42.8799 85.5456 43.3375 85.0024 43.914C84.4592 44.4905 84.0414 45.1734 83.7754 45.9196C83.5094 46.6657 83.401 47.4589 83.457 48.249C83.5686 49.8999 84.2981 51.4481 85.5001 52.5851C86.7022 53.7221 88.2885 54.3644 89.943 54.384Z" fill="white"/>
<path d="M91.902 50.733H87.831C87.853 50.331 87.9758 49.941 88.188 49.599C88.5339 49.1126 88.96 48.6885 89.448 48.3449C89.7182 48.1546 89.9615 47.9286 90.171 47.673C90.2655 47.5466 90.3161 47.3928 90.315 47.235C90.3111 47.1619 90.2923 47.0905 90.2598 47.0249C90.2273 46.9594 90.1818 46.9012 90.126 46.8539C90.0111 46.7478 89.8593 46.6908 89.703 46.6949C89.6262 46.691 89.5494 46.7037 89.478 46.7322C89.4065 46.7607 89.3421 46.8043 89.289 46.86C89.1632 47.0253 89.0967 47.2282 89.1 47.4359L87.735 47.325C87.7451 47.0105 87.8272 46.7026 87.975 46.425C88.11 46.2052 88.3103 46.0332 88.548 45.933C88.887 45.8012 89.2497 45.742 89.613 45.759C89.995 45.7435 90.3765 45.7994 90.738 45.924C90.9992 46.0253 91.2261 46.1991 91.392 46.425C91.5553 46.6458 91.6502 46.9097 91.665 47.184C91.6806 47.4828 91.6064 47.7796 91.452 48.0359C91.2132 48.3915 90.9076 48.6972 90.552 48.936C90.288 49.125 90.114 49.257 90.027 49.335C89.9215 49.4293 89.8214 49.5295 89.727 49.635H91.848L91.902 50.733Z" fill="#263238"/>
<g opacity="0.4">
<path opacity="0.4" d="M79.725 70.5H72.3C70.2989 70.476 68.3802 69.6993 66.9259 68.3245C65.4716 66.9497 64.5883 65.0776 64.452 63.081C64.3839 62.1252 64.5148 61.1657 64.8364 60.2631C65.1581 59.3605 65.6635 58.5345 66.3207 57.8372C66.978 57.14 67.7727 56.5866 68.6547 56.2122C69.5368 55.8378 70.4869 55.6504 71.445 55.662C73.4461 55.686 75.3648 56.4627 76.8191 57.8375C78.2734 59.2123 79.1566 61.0844 79.293 63.081L79.725 70.5Z" fill="#F26D0A"/>
</g>
<path d="M72.231 69.225C70.5765 69.2054 68.9902 68.5631 67.7881 67.426C66.586 66.289 65.8565 64.7408 65.745 63.09C65.6885 62.2998 65.7966 61.5064 66.0624 60.76C66.3282 60.0137 66.746 59.3306 67.2893 58.754C67.8327 58.1774 68.4897 57.7198 69.219 57.4102C69.9482 57.1005 70.7338 56.9455 71.526 56.955C73.1782 56.9783 74.7612 57.6222 75.9606 58.7588C77.1599 59.8953 77.8879 61.4414 78 63.09C78.0559 63.8791 77.9479 64.6713 77.6826 65.4166C77.4173 66.1619 77.0006 66.8442 76.4587 67.4205C75.9167 67.9969 75.2613 68.4547 74.5337 68.7653C73.8061 69.0758 73.0221 69.2324 72.231 69.225Z" fill="white"/>
<path d="M71.157 62.061L69.861 61.83C69.9231 61.4576 70.1235 61.1222 70.422 60.891C70.7993 60.6494 71.2439 60.5349 71.691 60.564C72.1856 60.5245 72.6793 60.6501 73.095 60.921C73.2356 61.0269 73.3513 61.1623 73.4337 61.3179C73.5162 61.4734 73.5634 61.6452 73.572 61.821C73.5874 62.0222 73.538 62.2229 73.431 62.394C73.3064 62.5832 73.1361 62.7379 72.936 62.844C73.0904 62.8753 73.2391 62.93 73.377 63.006C73.5423 63.1019 73.6806 63.2382 73.779 63.402C73.8828 63.5789 73.9405 63.779 73.947 63.984C73.9632 64.268 73.902 64.551 73.77 64.803C73.639 65.0618 73.4288 65.272 73.17 65.403C72.829 65.5594 72.4558 65.6324 72.081 65.616C71.7202 65.6288 71.3602 65.5749 71.019 65.457C70.7664 65.3603 70.5409 65.2038 70.362 65.001C70.1715 64.7785 70.0267 64.5205 69.936 64.242L71.283 64.062C71.3211 64.2743 71.4177 64.4717 71.562 64.632C71.6813 64.7418 71.8379 64.8019 72 64.8C72.0841 64.8026 72.1678 64.7862 72.2447 64.7519C72.3216 64.7176 72.3897 64.6664 72.444 64.602C72.5607 64.4498 72.6144 64.2587 72.594 64.068C72.5942 63.8727 72.5215 63.6844 72.39 63.54C72.3255 63.4781 72.2493 63.4298 72.1658 63.3978C72.0823 63.3659 71.9933 63.351 71.904 63.354C71.756 63.3611 71.6096 63.3884 71.469 63.435V62.466C71.529 62.469 71.589 62.469 71.649 62.466C71.729 62.4684 71.8088 62.4548 71.8835 62.426C71.9582 62.3971 72.0264 62.3536 72.084 62.298C72.1373 62.2456 72.1786 62.1823 72.205 62.1123C72.2314 62.0424 72.2423 61.9676 72.237 61.893C72.2338 61.7588 72.179 61.6309 72.084 61.536C71.981 61.4448 71.8464 61.3975 71.709 61.404C71.639 61.4007 71.5691 61.4118 71.5036 61.4366C71.4381 61.4613 71.3783 61.4993 71.328 61.548C71.2164 61.6957 71.1563 61.8759 71.157 62.061Z" fill="#263238"/>
<path d="M84.3 85.35H91.719C92.6774 85.3611 93.6277 85.1734 94.5098 84.7986C95.392 84.4239 96.1869 83.8704 96.8443 83.1729C97.5017 82.4755 98.0074 81.6493 98.3294 80.7465C98.6514 79.8438 98.7827 78.8841 98.715 77.928C98.5809 75.9303 97.699 74.0565 96.2451 72.6799C94.7912 71.3032 92.8721 70.5249 90.87 70.5C89.9119 70.4885 88.9618 70.6758 88.0798 71.0502C87.1977 71.4246 86.403 71.978 85.7458 72.6752C85.0885 73.3725 84.5831 74.1986 84.2614 75.1011C83.9398 76.0037 83.8089 76.9632 83.877 77.919L84.3 85.35Z" fill="#E0E0E0"/>
<path d="M91.65 84.0629C92.4422 84.0724 93.2278 83.9174 93.957 83.6078C94.6863 83.2981 95.3433 82.8405 95.8867 82.2639C96.43 81.6873 96.8478 81.0042 97.1136 80.2579C97.3794 79.5116 97.4875 78.7182 97.431 77.9279C97.3187 76.2776 96.5889 74.7302 95.3869 73.5938C94.185 72.4574 92.599 71.8155 90.945 71.7959C90.1529 71.7865 89.3675 71.9414 88.6384 72.2509C87.9092 72.5603 87.2521 73.0176 86.7086 73.5938C86.1651 74.17 85.7469 74.8527 85.4805 75.5987C85.2142 76.3447 85.1054 77.1378 85.161 77.9279C85.2733 79.579 86.0034 81.1273 87.2059 82.2642C88.4085 83.4012 89.9952 84.0434 91.65 84.0629Z" fill="white"/>
<path d="M91.623 79.5H89.151L89.088 78.384L91.389 75.444H92.574L92.745 78.444H93.36L93.42 79.497H92.82L92.874 80.397H91.692L91.623 79.5ZM91.563 78.447L91.473 76.911L90.255 78.447H91.563Z" fill="#E0E0E0"/>
<path d="M81.6 70.773C81.5327 70.7724 81.4681 70.7464 81.4192 70.7002C81.3702 70.654 81.3405 70.5911 81.336 70.524L79.632 40.845C79.6266 40.8087 79.6289 40.7717 79.6386 40.7363C79.6483 40.701 79.6653 40.668 79.6884 40.6396C79.7116 40.6111 79.7404 40.5878 79.773 40.5711C79.8057 40.5545 79.8415 40.5448 79.8781 40.5427C79.9147 40.5406 79.9513 40.5461 79.9857 40.559C80.02 40.5718 80.0513 40.5917 80.0776 40.6173C80.1038 40.643 80.1244 40.6738 80.1381 40.7078C80.1518 40.7418 80.1582 40.7783 80.157 40.815L81.849 70.5C81.8531 70.5695 81.8296 70.6379 81.7835 70.6901C81.7374 70.7424 81.6725 70.7743 81.603 70.779L81.6 70.773Z" fill="#F26D0A"/>
<path d="M82.44 85.6109C82.3733 85.611 82.3091 85.5856 82.2606 85.5399C82.212 85.4941 82.1828 85.4315 82.179 85.3649L81.324 70.524C81.3262 70.4581 81.3529 70.3954 81.399 70.3483C81.445 70.3011 81.507 70.2729 81.5728 70.2691C81.6386 70.2653 81.7034 70.2863 81.7545 70.3279C81.8056 70.3695 81.8393 70.4288 81.849 70.494L82.704 85.3349C82.7073 85.4045 82.6829 85.4725 82.6363 85.5242C82.5897 85.5759 82.5245 85.6071 82.455 85.6109H82.44Z" fill="#E0E0E0"/>
<path d="M80.436 40.83C80.4409 40.9013 80.4311 40.973 80.4071 41.0403C80.383 41.1077 80.3453 41.1694 80.2963 41.2216C80.2473 41.2737 80.188 41.3151 80.1222 41.3432C80.0564 41.3713 79.9855 41.3855 79.914 41.385C79.7624 41.3854 79.6162 41.3284 79.5049 41.2254C79.3936 41.1225 79.3254 40.9812 79.314 40.83C79.309 40.7583 79.3189 40.6864 79.3432 40.6188C79.3674 40.5512 79.4054 40.4894 79.4547 40.4372C79.504 40.3851 79.5637 40.3437 79.6298 40.3158C79.696 40.2879 79.7672 40.2739 79.839 40.275C79.9901 40.2753 80.1355 40.3326 80.2462 40.4355C80.3569 40.5384 80.4246 40.6793 80.436 40.83Z" fill="white"/>
<path d="M79.914 41.649C79.6973 41.6465 79.4895 41.5623 79.3321 41.4132C79.1747 41.2642 79.0793 41.0613 79.065 40.845C79.0575 40.7376 79.0724 40.6299 79.1086 40.5285C79.1448 40.4271 79.2016 40.3344 79.2755 40.256C79.3493 40.1777 79.4385 40.1155 79.5376 40.0733C79.6366 40.0311 79.7433 40.0099 79.851 40.011C80.0675 40.0143 80.2749 40.0987 80.4322 40.2476C80.5894 40.3965 80.685 40.599 80.7 40.815C80.7085 40.9244 80.6939 41.0343 80.6572 41.1377C80.6205 41.241 80.5625 41.3355 80.487 41.415C80.4128 41.4915 80.3236 41.5518 80.225 41.592C80.1264 41.6323 80.0205 41.6517 79.914 41.649ZM79.851 40.539C79.8154 40.5382 79.7799 40.5447 79.7469 40.5582C79.7139 40.5716 79.684 40.5916 79.659 40.617C79.6338 40.643 79.6145 40.6742 79.6026 40.7084C79.5907 40.7426 79.5864 40.779 79.59 40.815C79.598 40.896 79.6354 40.9712 79.6951 41.0264C79.7548 41.0817 79.8327 41.1132 79.914 41.115C79.9496 41.1158 79.985 41.1093 80.0181 41.0959C80.0511 41.0825 80.081 41.0624 80.106 41.037C80.13 41.0102 80.1484 40.9789 80.1602 40.9449C80.1721 40.9109 80.1771 40.8749 80.175 40.839C80.1669 40.7581 80.1295 40.6829 80.0699 40.6276C80.0102 40.5723 79.9323 40.5408 79.851 40.539Z" fill="#F26D0A"/>
<path d="M81.3 55.671C81.3045 55.7425 81.2943 55.8142 81.2699 55.8816C81.2455 55.949 81.2075 56.0107 81.1583 56.0627C81.109 56.1148 81.0496 56.1562 80.9836 56.1843C80.9177 56.2124 80.8467 56.2266 80.775 56.226C80.6234 56.2264 80.4772 56.1694 80.3659 56.0665C80.2546 55.9635 80.1864 55.8222 80.175 55.671C80.1696 55.5995 80.1791 55.5277 80.203 55.4601C80.2268 55.3925 80.2645 55.3307 80.3137 55.2784C80.3628 55.2262 80.4222 55.1848 80.4882 55.1569C80.5542 55.1289 80.6253 55.115 80.697 55.116C80.8492 55.1148 80.9961 55.1715 81.108 55.2745C81.22 55.3776 81.2886 55.5193 81.3 55.671Z" fill="white"/>
<path d="M80.766 56.4869C80.5497 56.4844 80.3423 56.4007 80.185 56.2523C80.0277 56.1038 79.9321 55.9017 79.917 55.6859C79.9089 55.5766 79.9236 55.4668 79.9603 55.3635C79.997 55.2602 80.0548 55.1657 80.13 55.0859C80.2037 55.0083 80.2926 54.9466 80.3912 54.9048C80.4898 54.863 80.5959 54.8419 80.703 54.8429C80.9192 54.8454 81.1266 54.9292 81.2839 55.0776C81.4412 55.226 81.5369 55.4282 81.552 55.6439C81.5595 55.7512 81.5446 55.8588 81.5084 55.96C81.4721 56.0612 81.4153 56.1538 81.3414 56.2319C81.2675 56.31 81.1782 56.372 81.0792 56.4138C80.9801 56.4556 80.8735 56.4764 80.766 56.4749V56.4869ZM80.703 55.3769C80.6672 55.3767 80.6317 55.3838 80.5987 55.3977C80.5657 55.4116 80.5358 55.4321 80.511 55.4579C80.4867 55.4846 80.4681 55.5158 80.4562 55.5499C80.4444 55.5839 80.4395 55.62 80.442 55.6559C80.45 55.7369 80.4874 55.8121 80.5471 55.8674C80.6068 55.9226 80.6847 55.9541 80.766 55.9559C80.8017 55.9564 80.8371 55.9495 80.87 55.9356C80.9029 55.9217 80.9326 55.9012 80.9571 55.8752C80.9816 55.8493 81.0005 55.8185 81.0125 55.7849C81.0246 55.7513 81.0295 55.7156 81.027 55.6799C81.0196 55.5979 80.9821 55.5216 80.9217 55.4656C80.8613 55.4097 80.7823 55.3781 80.7 55.3769H80.703Z" fill="#F26D0A"/>
<path d="M82.143 70.5C82.148 70.5716 82.138 70.6435 82.1138 70.7111C82.0896 70.7787 82.0516 70.8405 82.0023 70.8927C81.9529 70.9448 81.8933 70.9862 81.8271 71.0141C81.761 71.0421 81.6898 71.056 81.618 71.055C81.469 71.0517 81.3265 70.993 81.2184 70.8904C81.1102 70.7878 81.0441 70.6486 81.033 70.5C81.028 70.4286 81.0379 70.357 81.0619 70.2896C81.0859 70.2222 81.1237 70.1605 81.1727 70.1084C81.2217 70.0563 81.281 70.0148 81.3468 69.9867C81.4125 69.9586 81.4834 69.9444 81.555 69.945C81.7045 69.9475 81.8477 70.0059 81.9565 70.1085C82.0653 70.2112 82.1318 70.3508 82.143 70.5Z" fill="white"/>
<path d="M81.618 71.328C81.4015 71.3248 81.1941 71.2403 81.0368 71.0914C80.8796 70.9425 80.784 70.74 80.769 70.524C80.7605 70.4147 80.7751 70.3047 80.8118 70.2014C80.8485 70.098 80.9065 70.0035 80.982 69.924C81.0553 69.8458 81.1441 69.7837 81.2428 69.7419C81.3415 69.7 81.4478 69.6793 81.555 69.681C81.7713 69.6835 81.9787 69.7673 82.136 69.9157C82.2933 70.0641 82.389 70.2663 82.404 70.482C82.4141 70.5912 82.4005 70.7013 82.3643 70.8049C82.3281 70.9084 82.27 71.0029 82.194 71.082C82.1201 71.1604 82.0308 71.2228 81.9317 71.2651C81.8326 71.3074 81.7258 71.3288 81.618 71.328ZM81.555 70.218C81.5194 70.2174 81.484 70.224 81.451 70.2374C81.418 70.2508 81.3881 70.2707 81.363 70.296C81.3149 70.3504 81.2901 70.4215 81.294 70.494C81.3027 70.5747 81.3403 70.6496 81.3998 70.7047C81.4594 70.7598 81.5369 70.7916 81.618 70.794C81.6538 70.7942 81.6893 70.7872 81.7224 70.7732C81.7554 70.7593 81.7852 70.7388 81.81 70.713C81.8352 70.687 81.8545 70.6558 81.8664 70.6216C81.8783 70.5874 81.8826 70.551 81.879 70.515C81.8703 70.4346 81.8326 70.3601 81.773 70.3055C81.7134 70.2508 81.6359 70.2197 81.555 70.218Z" fill="#E0E0E0"/>
<path d="M82.995 85.35C83 85.4214 82.9902 85.493 82.9661 85.5604C82.9421 85.6278 82.9044 85.6895 82.8553 85.7416C82.8063 85.7937 82.7471 85.8351 82.6813 85.8632C82.6155 85.8914 82.5446 85.9056 82.473 85.905C82.3214 85.9054 82.1752 85.8484 82.0639 85.7454C81.9526 85.6425 81.8844 85.5012 81.873 85.35C81.868 85.2783 81.878 85.2065 81.9022 85.1389C81.9264 85.0713 81.9644 85.0094 82.0137 84.9573C82.0631 84.9051 82.1227 84.8638 82.1889 84.8358C82.255 84.8079 82.3262 84.794 82.398 84.795C82.5491 84.7953 82.6946 84.8526 82.8053 84.9555C82.9159 85.0584 82.9837 85.1993 82.995 85.35Z" fill="white"/>
<path d="M82.473 86.1659C82.2567 86.1634 82.0493 86.0797 81.892 85.9313C81.7347 85.7828 81.639 85.5807 81.624 85.3649C81.6139 85.2557 81.6275 85.1456 81.6637 85.0421C81.6999 84.9386 81.758 84.844 81.834 84.7649C81.9079 84.6865 81.9972 84.6242 82.0963 84.5818C82.1954 84.5395 82.3022 84.5181 82.41 84.5189C82.6265 84.5222 82.8339 84.6066 82.9912 84.7555C83.1484 84.9044 83.244 85.1069 83.259 85.3229C83.266 85.4301 83.2508 85.5375 83.2144 85.6385C83.178 85.7395 83.1211 85.832 83.0473 85.91C82.9735 85.988 82.8845 86.0499 82.7856 86.0919C82.6868 86.1339 82.5804 86.155 82.473 86.1539V86.1659ZM82.41 85.0559C82.3742 85.0557 82.3387 85.0628 82.3057 85.0767C82.2726 85.0906 82.2428 85.1111 82.218 85.1369C82.1928 85.1629 82.1735 85.1941 82.1616 85.2283C82.1497 85.2625 82.1454 85.2989 82.149 85.3349C82.157 85.4159 82.1944 85.4911 82.2541 85.5464C82.3138 85.6016 82.3917 85.6331 82.473 85.6349C82.5086 85.6356 82.544 85.629 82.577 85.6156C82.61 85.6022 82.6399 85.5822 82.665 85.5569C82.7131 85.5026 82.7379 85.4314 82.734 85.3589C82.7266 85.2774 82.6895 85.2015 82.6298 85.1456C82.57 85.0897 82.4918 85.0578 82.41 85.0559Z" fill="#E0E0E0"/>
<path d="M127.065 46.356C127.266 46.656 127.428 46.935 127.593 47.229C127.758 47.523 127.911 47.808 128.061 48.099C128.361 48.681 128.64 49.278 128.898 49.881C129.416 51.0996 129.832 52.3588 130.143 53.646L130.248 54.138L130.299 54.384V54.444L130.32 54.57C130.333 54.6494 130.342 54.7295 130.347 54.81C130.357 55.3055 130.254 55.7968 130.047 56.247C129.741 56.9103 129.343 57.5273 128.865 58.08C128.012 59.0881 127.046 59.9942 125.985 60.78L125.025 59.772C125.771 58.8258 126.464 57.8393 127.101 56.817C127.383 56.3689 127.613 55.8898 127.785 55.389C127.834 55.263 127.849 55.1266 127.83 54.993L127.812 54.942L127.752 54.729L127.626 54.309C127.264 53.1826 126.831 52.0804 126.33 51.009C126.081 50.463 125.808 49.932 125.538 49.398C125.4 49.134 125.259 48.87 125.115 48.609C124.971 48.348 124.815 48.081 124.686 47.862L127.065 46.356Z" fill="#FF8B7B"/>
<path d="M125.724 59.2349L123.468 59.3279L124.368 61.2629C124.368 61.2629 125.973 61.1729 126.576 60.2009L125.724 59.2349Z" fill="#FF8B7B"/>
<path d="M122.91 60.198L123.468 61.932L124.377 61.266L123.468 59.328L122.91 60.198Z" fill="#FF8B7B"/>
<path d="M121.521 122.238C121.766 122.231 122.009 122.198 122.247 122.139C122.259 122.136 122.271 122.13 122.28 122.121C122.289 122.112 122.295 122.1 122.298 122.088C122.3 122.075 122.299 122.063 122.294 122.051C122.289 122.039 122.281 122.029 122.271 122.022C122.178 121.959 121.35 121.422 121.029 121.566C120.993 121.582 120.962 121.608 120.939 121.64C120.916 121.672 120.901 121.71 120.897 121.749C120.883 121.81 120.884 121.874 120.902 121.935C120.92 121.995 120.953 122.05 120.999 122.094C121.15 122.203 121.335 122.254 121.521 122.238ZM122.064 122.046C121.584 122.142 121.227 122.124 121.089 121.998C121.059 121.968 121.038 121.931 121.027 121.891C121.016 121.85 121.015 121.808 121.026 121.767C121.027 121.749 121.033 121.733 121.042 121.718C121.051 121.703 121.065 121.691 121.08 121.683C121.251 121.608 121.728 121.839 122.064 122.046Z" fill="#F26D0A"/>
<path d="M122.232 122.139C122.243 122.142 122.254 122.142 122.265 122.139C122.275 122.133 122.283 122.125 122.289 122.115C122.295 122.105 122.298 122.093 122.298 122.082C122.298 122.049 122.298 121.257 121.998 120.993C121.962 120.959 121.918 120.934 121.871 120.919C121.824 120.904 121.774 120.9 121.725 120.906C121.673 120.907 121.623 120.926 121.583 120.959C121.542 120.992 121.514 121.038 121.503 121.089C121.437 121.389 121.929 121.989 122.187 122.139C122.202 122.144 122.217 122.144 122.232 122.139ZM121.782 121.026C121.834 121.027 121.884 121.047 121.923 121.083C122.1 121.242 122.154 121.683 122.166 121.95C121.908 121.74 121.602 121.296 121.644 121.107C121.644 121.077 121.668 121.038 121.752 121.029L121.782 121.026Z" fill="#F26D0A"/>
<path d="M100.737 121.014C100.748 121.015 100.76 121.012 100.77 121.008C100.781 121.003 100.79 120.996 100.797 120.987C100.805 120.976 100.809 120.963 100.809 120.949C100.809 120.936 100.805 120.923 100.797 120.912C100.713 120.804 99.975 119.877 99.576 119.85H99.549C99.5129 119.851 99.4776 119.861 99.4465 119.879C99.4155 119.897 99.3898 119.924 99.372 119.955C99.3397 120.002 99.32 120.057 99.3148 120.115C99.3095 120.172 99.3189 120.229 99.342 120.282C99.501 120.648 100.278 120.882 100.728 121.011L100.737 121.014ZM99.57 119.979C99.789 119.994 100.251 120.459 100.566 120.837C99.966 120.66 99.552 120.441 99.462 120.237C99.447 120.202 99.4411 120.164 99.4447 120.126C99.4484 120.089 99.4616 120.052 99.483 120.021C99.4901 120.008 99.5005 119.997 99.5132 119.99C99.5259 119.983 99.5403 119.979 99.555 119.979H99.57Z" fill="#F26D0A"/>
<path d="M100.737 121.014C100.748 121.013 100.759 121.008 100.768 121.001C100.777 120.995 100.784 120.985 100.788 120.975C100.788 120.948 101.061 120.273 100.869 119.871C100.841 119.811 100.801 119.758 100.752 119.714C100.703 119.671 100.646 119.637 100.584 119.616C100.41 119.553 100.32 119.616 100.284 119.67C100.101 119.919 100.443 120.72 100.683 120.993C100.69 121 100.698 121.006 100.708 121.01C100.717 121.013 100.727 121.015 100.737 121.014ZM100.476 119.712C100.537 119.719 100.596 119.742 100.646 119.778C100.695 119.814 100.735 119.863 100.761 119.919C100.846 120.215 100.831 120.532 100.719 120.819C100.497 120.498 100.293 119.898 100.401 119.748C100.407 119.733 100.418 119.721 100.431 119.712C100.444 119.704 100.46 119.699 100.476 119.7V119.712Z" fill="#F26D0A"/>
<path d="M120.507 37.002C120.207 38.634 119.499 42.201 120.645 43.263C120.645 43.263 120.21 44.925 117.18 44.985C113.847 45.048 115.578 43.365 115.578 43.365C117.393 42.894 117.339 41.55 117.015 40.29L120.507 37.002Z" fill="#FF8B7B"/>
<path d="M121.098 41.7419C121.015 41.5242 120.851 41.3472 120.64 41.2482C120.429 41.1491 120.188 41.1358 119.967 41.2109C118.925 41.5333 117.849 41.7288 116.76 41.7929C116.566 41.8056 116.378 41.8673 116.213 41.9722C116.049 42.0771 115.914 42.2218 115.821 42.3929L114.534 44.6609L121.872 43.7609L121.098 41.7419Z" fill="#F26D0A"/>
<path d="M113.796 34.293C113.816 34.2877 113.834 34.2785 113.85 34.266C113.877 34.2442 113.894 34.2129 113.898 34.1787C113.902 34.1446 113.892 34.1102 113.871 34.083C113.747 33.9189 113.585 33.7874 113.399 33.7001C113.213 33.6128 113.008 33.5723 112.803 33.582C112.768 33.5858 112.737 33.603 112.715 33.63C112.693 33.6569 112.683 33.6914 112.686 33.726C112.687 33.7428 112.692 33.7592 112.7 33.7742C112.708 33.7891 112.719 33.8023 112.732 33.8129C112.745 33.8236 112.761 33.8314 112.777 33.8361C112.793 33.8407 112.81 33.8421 112.827 33.84C112.989 33.8364 113.15 33.8716 113.296 33.9425C113.442 34.0135 113.569 34.1182 113.667 34.248C113.682 34.2665 113.702 34.2805 113.725 34.2885C113.748 34.2964 113.772 34.298 113.796 34.293Z" fill="#263238"/>
<path d="M113.1 35.9009C112.946 36.4293 112.72 36.934 112.428 37.4009C112.548 37.4702 112.681 37.5126 112.819 37.525C112.957 37.5375 113.096 37.5197 113.226 37.4729L113.1 35.9009Z" fill="#FF5652"/>
<path d="M113.28 35.502C113.298 35.724 113.193 35.913 113.049 35.928C112.905 35.943 112.776 35.772 112.749 35.55C112.722 35.328 112.833 35.139 112.977 35.127C113.121 35.115 113.262 35.28 113.28 35.502Z" fill="#263238"/>
<path d="M113.049 35.133L112.509 35.031C112.509 35.031 112.815 35.418 113.049 35.133Z" fill="#263238"/>
<path d="M103.359 122.745L100.698 121.83L102.576 115.911L105.234 116.829L103.359 122.745Z" fill="#FF8B7B"/>
<path d="M125.304 122.16H122.556L122.307 115.8H125.055L125.304 122.16Z" fill="#FF8B7B"/>
<path d="M122.469 121.758H125.553C125.605 121.757 125.656 121.776 125.696 121.81C125.736 121.844 125.762 121.892 125.769 121.944L126.087 124.386C126.092 124.448 126.085 124.51 126.065 124.569C126.045 124.628 126.013 124.683 125.971 124.729C125.929 124.775 125.878 124.811 125.821 124.836C125.764 124.862 125.702 124.875 125.64 124.875C124.563 124.857 124.047 124.794 122.691 124.794C121.854 124.794 120.636 124.878 119.481 124.878C118.326 124.878 118.281 123.741 118.767 123.636C120.924 123.174 121.272 122.535 122.007 121.926C122.137 121.819 122.3 121.759 122.469 121.758Z" fill="#263238"/>
<path d="M101.046 120.75L103.899 122.091C103.949 122.111 103.989 122.149 104.011 122.197C104.034 122.246 104.038 122.301 104.022 122.352L103.287 124.644C103.264 124.702 103.229 124.754 103.184 124.798C103.14 124.842 103.086 124.876 103.028 124.898C102.97 124.92 102.907 124.929 102.845 124.926C102.783 124.923 102.722 124.906 102.666 124.878C101.679 124.395 101.226 124.113 99.966 123.525C99.192 123.162 97.566 122.487 96.492 121.986C95.418 121.485 95.865 120.459 96.354 120.576C98.544 121.107 99.606 120.915 100.554 120.696C100.719 120.659 100.892 120.678 101.046 120.75Z" fill="#263238"/>
<path opacity="0.2" d="M102.576 115.914L101.568 119.082L104.268 119.88L105.237 116.829L102.576 115.914Z" fill="black"/>
<path opacity="0.2" d="M125.055 115.803H122.307L122.436 119.079H125.184L125.055 115.803Z" fill="black"/>
<path d="M126.015 43.6109C127.158 43.8389 128.4 47.9159 128.4 47.9159L125.193 51.4049C125.193 51.4049 122.493 47.6069 123.03 46.1789C123.6 44.6999 124.665 43.3439 126.015 43.6109Z" fill="#F26D0A"/>
<path opacity="0.4" d="M126.015 43.6109C127.158 43.8389 128.4 47.9159 128.4 47.9159L125.193 51.4049C125.193 51.4049 122.493 47.6069 123.03 46.1789C123.6 44.6999 124.665 43.3439 126.015 43.6109Z" fill="white"/>
<path opacity="0.4" d="M124.221 46.2569C123.642 45.7409 123.252 45.9059 122.988 46.3289C122.733 47.5529 124.302 50.0729 124.935 51.0269C125.217 49.8689 125.535 47.4299 124.221 46.2569Z" fill="#F26D0A"/>
<path d="M111.345 44.5589C111.141 45.7589 111.096 49.4159 112.971 60.5069L124.131 60.2879C123.918 55.7549 123.897 52.9589 126.015 43.6109C124.449 43.3191 122.864 43.1416 121.272 43.0799C119.583 42.993 117.889 43.0271 116.205 43.1819C114.582 43.3589 112.8 43.7129 112.005 43.8809C111.839 43.9142 111.688 43.9967 111.57 44.1177C111.452 44.2387 111.374 44.3925 111.345 44.5589Z" fill="#F26D0A"/>
<path opacity="0.4" d="M111.345 44.5589C111.141 45.7589 111.096 49.4159 112.971 60.5069L124.131 60.2879C123.918 55.7549 123.897 52.9589 126.015 43.6109C124.449 43.3191 122.864 43.1416 121.272 43.0799C119.583 42.993 117.889 43.0271 116.205 43.1819C114.582 43.3589 112.8 43.7129 112.005 43.8809C111.839 43.9142 111.688 43.9967 111.57 44.1177C111.452 44.2387 111.374 44.3925 111.345 44.5589Z" fill="white"/>
<path d="M120.627 34.044C120.678 36.771 120.759 37.926 119.505 39.444C117.618 41.733 114.267 41.244 113.403 38.598C112.623 36.216 112.668 32.154 115.23 30.822C115.788 30.5232 116.413 30.3739 117.046 30.3886C117.679 30.4033 118.297 30.5815 118.84 30.9058C119.384 31.2302 119.834 31.6897 120.147 32.2397C120.46 32.7896 120.625 33.4112 120.627 34.044Z" fill="#FF8B7B"/>
<path d="M113.049 33.3329C115.218 32.9009 118.065 32.1659 118.632 30.5819C119.199 28.9979 112.779 27.7619 113.049 33.3329Z" fill="#263238"/>
<path d="M114.717 34.0499C114.417 33.8969 113.85 32.9459 114.201 31.2899C114.552 29.6339 117.168 28.1489 119.217 29.3159C117.051 30.1499 114.717 34.0499 114.717 34.0499Z" fill="#F26D0A"/>
<path d="M114.534 32.334C114.168 33.867 114.534 34.962 115.134 35.526C115.134 35.526 113.634 45.408 121.134 44.334C128.634 43.26 124.263 32.034 122.508 30.387C120.753 28.74 116.049 27.927 114.534 32.334Z" fill="#263238"/>
<path d="M114.579 34.7189C114.273 35.2111 114.13 35.7876 114.171 36.3659C114.225 37.0979 114.798 37.0979 115.218 36.6659C115.638 36.2339 116.007 35.3249 115.794 34.7669C115.581 34.2089 114.9 34.1999 114.579 34.7189Z" fill="#FF8B7B"/>
<path d="M115.92 60.447C115.92 60.447 117.621 79.245 119.337 89.826C120.723 98.37 121.896 118.362 121.896 118.362H125.64C125.64 118.362 126.861 98.862 126.135 90.384C124.293 68.967 127.608 66.966 124.131 60.288L115.92 60.447Z" fill="#F26D0A"/>
<path opacity="0.4" d="M119.727 66.7319C118.752 68.1659 117.45 69.8189 117.027 71.5649C117.363 74.7359 117.756 78.2429 118.182 81.6149C119.214 78.7799 120.978 73.1129 119.727 66.7319Z" fill="black"/>
<path d="M112.971 60.5069C112.971 60.5069 108.498 80.7329 106.971 88.9739C105.375 97.5479 101.676 116.976 101.676 116.976L105.411 118.896C105.411 118.896 112.311 95.4959 113.235 91.1819C115.671 82.1639 123.471 60.3119 123.471 60.3119L112.971 60.5069Z" fill="#F26D0A"/>
<path d="M100.899 117.777L105.438 119.586L106.32 118.005L101.463 116.064L100.899 117.777Z" fill="#263238"/>
<path d="M121.383 118.437H126.15L126.426 116.763L121.38 116.592L121.383 118.437Z" fill="#263238"/>
<path d="M124.296 59.631L124.806 60.618C124.845 60.693 124.752 60.774 124.623 60.777L112.923 61.008C112.821 61.008 112.737 60.96 112.731 60.897L112.626 59.904C112.626 59.835 112.704 59.775 112.815 59.772L124.116 59.55C124.15 59.5462 124.185 59.5518 124.217 59.566C124.249 59.5802 124.276 59.6027 124.296 59.631Z" fill="#263238"/>
<path d="M122.784 60.921H123.084C123.144 60.921 123.192 60.888 123.186 60.852L123.036 59.559C123.036 59.52 122.979 59.49 122.919 59.49H122.619C122.559 59.49 122.514 59.523 122.517 59.562L122.667 60.855C122.673 60.9 122.724 60.924 122.784 60.921Z" fill="#F26D0A"/>
<path d="M115.449 61.0649H115.749C115.809 61.0649 115.854 61.0319 115.848 60.9959L115.701 59.7029C115.701 59.6639 115.644 59.6339 115.581 59.6339H115.281C115.218 59.6339 115.173 59.6669 115.179 59.7059L115.326 60.9989C115.335 61.0379 115.389 61.0679 115.449 61.0649Z" fill="#F26D0A"/>
<path d="M113.208 47.1479C112.592 48.4407 111.897 49.694 111.126 50.9009C110.739 51.5009 110.343 52.1009 109.902 52.7009C109.692 53.0009 109.455 53.2799 109.23 53.5679C109.005 53.8559 108.75 54.135 108.486 54.408C108.209 54.7086 107.908 54.9865 107.586 55.239C107.274 55.4813 106.948 55.7037 106.608 55.905C105.964 56.285 105.291 56.614 104.595 56.889C103.251 57.4191 101.856 57.8062 100.431 58.044L100.071 56.7029C101.302 56.189 102.504 55.6071 103.671 54.9599C104.231 54.6511 104.771 54.3054 105.285 53.925C105.524 53.748 105.753 53.5566 105.969 53.3519C106.18 53.1565 106.372 52.9427 106.545 52.713C107.35 51.6828 108.082 50.5971 108.735 49.464C109.08 48.891 109.398 48.2999 109.722 47.7119C110.046 47.1239 110.361 46.5119 110.655 45.9449L113.208 47.1479Z" fill="#FF8B7B"/>
<path d="M112.161 43.839C109.524 44.409 108.636 48.267 108.636 48.267L112.002 51.168C112.002 51.168 115.428 47.646 115.302 45.531C115.221 43.959 113.598 43.53 112.161 43.839Z" fill="#F26D0A"/>
<path opacity="0.4" d="M112.161 43.839C109.524 44.409 108.636 48.267 108.636 48.267L112.002 51.168C112.002 51.168 115.428 47.646 115.302 45.531C115.221 43.959 113.598 43.53 112.161 43.839Z" fill="white"/>
<path d="M101.451 57.8219L98.784 59.1749L97.794 56.8949C97.794 56.8949 100.155 56.3489 101.169 56.8559L101.451 57.8219Z" fill="#FF8B7B"/>
<path d="M97.767 59.6429L96.732 58.0979L97.794 56.8949L98.784 59.1749L97.767 59.6429Z" fill="#FF8B7B"/>
</svg>
