<svg width="169" height="169" viewBox="0 0 169 169" fill="none" xmlns="http://www.w3.org/2000/svg">
<path d="M141.673 123.106C149.212 123.106 155.325 120.193 155.325 116.6C155.325 113.006 149.212 110.093 141.673 110.093C134.133 110.093 128.021 113.006 128.021 116.6C128.021 120.193 134.133 123.106 141.673 123.106Z" fill="#E0E0E0"/>
<path d="M82.6309 149.396L48.067 129.454C47.9492 129.378 47.8512 129.274 47.7807 129.153C47.7103 129.031 47.6694 128.895 47.6614 128.755V128.231C47.6694 128.09 47.7103 127.954 47.7807 127.832C47.8512 127.711 47.9492 127.608 48.067 127.531L90.2088 103.195C90.3341 103.132 90.4724 103.099 90.6127 103.099C90.753 103.099 90.8914 103.132 91.0166 103.195L125.581 123.137C125.698 123.214 125.795 123.317 125.865 123.439C125.935 123.56 125.975 123.697 125.983 123.837V124.364C125.975 124.504 125.935 124.64 125.865 124.762C125.795 124.883 125.698 124.987 125.581 125.064L83.4387 149.396C83.3134 149.459 83.1751 149.492 83.0348 149.492C82.8945 149.492 82.7561 149.459 82.6309 149.396Z" fill="#EBEBEB"/>
<path d="M125.581 123.596L83.4353 147.932C83.3106 147.997 83.172 148.031 83.0314 148.031C82.8908 148.031 82.7522 147.997 82.6275 147.932L48.067 127.99C48.0185 127.974 47.9764 127.942 47.9466 127.9C47.9168 127.859 47.9008 127.809 47.9008 127.757C47.9008 127.706 47.9168 127.656 47.9466 127.614C47.9764 127.572 48.0185 127.541 48.067 127.524L90.2088 103.188C90.3341 103.125 90.4724 103.092 90.6127 103.092C90.753 103.092 90.8914 103.125 91.0166 103.188L125.581 123.13C125.629 123.147 125.671 123.178 125.701 123.22C125.731 123.262 125.747 123.312 125.747 123.363C125.747 123.415 125.731 123.465 125.701 123.506C125.671 123.548 125.629 123.58 125.581 123.596Z" fill="#FAFAFA"/>
<path d="M125.581 123.596L83.4353 147.932C83.3106 147.997 83.172 148.031 83.0314 148.031C82.8908 148.031 82.7522 147.997 82.6275 147.932L48.067 127.99C48.0185 127.974 47.9764 127.942 47.9466 127.9C47.9168 127.859 47.9008 127.809 47.9008 127.757C47.9008 127.706 47.9168 127.656 47.9466 127.614C47.9764 127.572 48.0185 127.541 48.067 127.524L90.2088 103.188C90.3341 103.125 90.4724 103.092 90.6127 103.092C90.753 103.092 90.8914 103.125 91.0166 103.188L125.581 123.13C125.629 123.147 125.671 123.178 125.701 123.22C125.731 123.262 125.747 123.312 125.747 123.363C125.747 123.415 125.731 123.465 125.701 123.506C125.671 123.548 125.629 123.58 125.581 123.596Z" fill="#FAFAFA"/>
<path d="M83.0331 148.162V149.484C82.8928 149.486 82.7544 149.452 82.6309 149.386L48.067 129.444C47.9489 129.368 47.8505 129.265 47.78 129.143C47.7095 129.021 47.6688 128.885 47.6614 128.744V128.22C47.6695 128.095 47.7037 127.972 47.7619 127.86C47.8201 127.749 47.901 127.65 47.9994 127.571C47.854 127.7 47.8777 127.876 48.0737 127.987L82.6376 147.929C82.6707 147.948 82.7059 147.963 82.7424 147.973L83.0331 148.162Z" fill="#E0E0E0"/>
<path d="M62.192 125.956C62.1946 125.972 62.1946 125.99 62.192 126.006L62.1548 126.057L61.9621 126.135L57.4667 126.365C57.3971 126.376 57.3308 126.403 57.2724 126.442C57.2141 126.482 57.165 126.534 57.1287 126.595C57.0578 126.716 57.0949 126.814 57.2132 126.821L61.4518 127.037L61.5498 127.115C61.546 127.133 61.5391 127.15 61.5295 127.166C61.509 127.199 61.4807 127.227 61.4472 127.247C61.4137 127.267 61.3758 127.278 61.3368 127.281L57.0611 127.061C56.8212 127.061 56.7434 126.845 56.8854 126.595C56.9622 126.468 57.0664 126.36 57.1904 126.278C57.3144 126.197 57.455 126.145 57.6019 126.125L62.1345 125.891C62.1717 125.891 62.192 125.915 62.192 125.956Z" fill="#455A64"/>
<path d="M101.799 123.231C101.797 123.258 101.788 123.284 101.772 123.306C101.749 123.337 101.72 123.363 101.686 123.381C101.652 123.399 101.614 123.409 101.576 123.411C101.576 123.411 100.454 123.279 98.4019 123.103C98.3411 123.103 98.3242 123.039 98.3681 122.971C98.3894 122.939 98.418 122.913 98.4515 122.894C98.485 122.875 98.5224 122.865 98.5608 122.863C100.616 123.039 101.731 123.171 101.741 123.171C101.757 123.171 101.772 123.178 101.782 123.19C101.793 123.201 101.799 123.216 101.799 123.231Z" fill="#455A64"/>
<path d="M98.0673 129.711C98.0717 129.725 98.0717 129.741 98.0673 129.755C98.0497 129.79 98.024 129.821 97.9923 129.844C97.9606 129.868 97.9237 129.884 97.8848 129.89C97.8848 129.89 96.6038 130.025 94.3459 130.208C94.275 130.208 94.2445 130.164 94.2783 130.1C94.2967 130.065 94.3231 130.034 94.3554 130.011C94.3877 129.988 94.425 129.974 94.4642 129.968C96.7187 129.785 97.9828 129.65 97.9963 129.65C98.0098 129.65 98.0673 129.67 98.0673 129.711Z" fill="#455A64"/>
<path d="M93.288 122.535C93.2872 122.559 93.2802 122.582 93.2677 122.603C93.2455 122.635 93.2163 122.662 93.1824 122.681C93.1484 122.7 93.1106 122.712 93.0717 122.714C91.1958 122.599 89.232 122.501 87.2344 122.417C78.1253 122.048 75.0934 122.383 72.3286 122.826C69.3272 123.306 61.6917 126.084 61.0394 126.588C61.1138 127.088 65.5585 129.853 68.009 130.323C70.2702 130.759 72.9201 131.087 82.472 130.688C84.5608 130.6 86.6429 130.495 88.6641 130.373C88.7317 130.373 88.7588 130.421 88.725 130.485C88.7062 130.519 88.6797 130.549 88.6474 130.571C88.6151 130.594 88.578 130.608 88.5391 130.613C86.5111 130.735 84.4324 130.84 82.3435 130.928C72.7646 131.33 70.1046 130.999 67.8298 130.563C65.6328 130.137 60.431 127.206 60.7859 126.588C61.1408 125.969 69.7328 123.019 72.4232 122.586C75.205 122.143 78.2504 121.805 87.3831 122.177C89.3807 122.258 91.3479 122.359 93.2271 122.474C93.2354 122.473 93.2438 122.474 93.2517 122.477C93.2596 122.479 93.2667 122.484 93.2726 122.49C93.2785 122.496 93.283 122.503 93.2856 122.511C93.2883 122.519 93.2891 122.527 93.288 122.535Z" fill="#455A64"/>
<path d="M76.2021 124.556C75.9756 124.033 75.4348 123.742 74.6879 123.742C73.8005 123.787 72.9425 124.075 72.2069 124.573C71.7934 124.835 71.4103 125.143 71.0645 125.489C70.7413 125.814 70.4597 126.177 70.2263 126.571C69.9125 127.059 69.7654 127.635 69.8071 128.214C69.9119 128.957 70.5203 129.4 71.4295 129.397C72.3172 129.353 73.1756 129.065 73.9105 128.565C74.7177 128.063 75.396 127.379 75.8911 126.567C76.1442 126.159 76.2928 125.695 76.3238 125.215C76.3307 124.99 76.2892 124.765 76.2021 124.556ZM75.6478 126.567C75.1961 127.311 74.5754 127.938 73.8361 128.396C73.1645 128.851 72.3815 129.114 71.5715 129.157C70.7333 129.157 70.1789 128.751 70.0877 128.075C70.0735 127.989 70.0679 127.902 70.0708 127.815C70.1001 127.374 70.237 126.947 70.4696 126.571C70.9219 125.829 71.5411 125.203 72.2779 124.742C72.9505 124.287 73.7349 124.025 74.5459 123.985C75.2219 123.985 75.7255 124.249 75.9351 124.729C76.1446 125.209 76.05 125.868 75.6478 126.567Z" fill="#455A64"/>
<path d="M75.9351 124.722C75.7255 124.242 75.2354 123.978 74.5459 123.978C73.7349 124.019 72.9505 124.281 72.2779 124.736C71.5411 125.196 70.9219 125.822 70.4696 126.564C70.237 126.94 70.1001 127.367 70.0708 127.808C70.0679 127.895 70.0735 127.982 70.0877 128.068C70.1789 128.744 70.7333 129.15 71.5715 129.15C72.3815 129.107 73.1645 128.844 73.8361 128.389C74.5754 127.931 75.1961 127.304 75.6478 126.561C76.05 125.868 76.148 125.215 75.9351 124.722ZM75.036 126.567C74.4039 127.659 73.008 128.552 71.9095 128.552C70.8245 128.552 70.4493 127.659 71.0746 126.571C71.6999 125.482 73.1026 124.59 74.1978 124.587C74.9481 124.587 75.3605 125.006 75.3436 125.601C75.3216 125.943 75.216 126.275 75.036 126.567Z" fill="#6C00F8"/>
<path d="M68.0935 123.762C68.079 123.756 68.0635 123.753 68.0479 123.753C68.0322 123.753 68.0167 123.756 68.0022 123.762C65.8593 124.438 61.0631 126.094 60.7758 126.591C60.4885 127.088 63.3818 128.731 64.7473 129.403C64.7789 129.415 64.8137 129.415 64.8453 129.403C64.8848 129.387 64.9205 129.363 64.9501 129.332C66.6198 127.5 67.6879 125.652 68.1171 123.84V123.82C68.1201 123.809 68.1194 123.797 68.1151 123.787C68.1109 123.776 68.1032 123.768 68.0935 123.762Z" fill="#455A64"/>
<path d="M67.8129 124.046C67.3871 125.736 66.4001 127.426 64.8723 129.143C62.8004 128.112 61.0732 126.916 61.0293 126.601C61.4349 126.273 64.558 125.06 67.8129 124.046Z" fill="#6C00F8"/>
<path d="M101.839 123.556C101.8 124.052 101.673 124.537 101.464 124.989C101.447 125.025 101.421 125.056 101.39 125.08C101.358 125.105 101.321 125.121 101.282 125.128C101.211 125.128 101.174 125.094 101.201 125.03C101.647 123.955 101.566 123.512 101.539 123.407C101.363 123.387 100.623 123.302 99.3787 123.191C99.2588 123.956 99.0096 124.696 98.6419 125.378C98.6232 125.413 98.5966 125.443 98.5644 125.465C98.5321 125.488 98.4951 125.503 98.456 125.51C98.385 125.51 98.358 125.466 98.3884 125.401C98.9765 124.188 99.1016 123.478 99.1117 123.11C99.1157 123.085 99.1246 123.061 99.1379 123.039C99.1513 123.018 99.1688 122.999 99.1895 122.985C99.2287 122.95 99.2791 122.931 99.3314 122.931C100.893 123.069 101.735 123.171 101.745 123.171C101.755 123.172 101.765 123.175 101.774 123.18C101.782 123.185 101.79 123.192 101.795 123.201C101.837 123.314 101.852 123.436 101.839 123.556Z" fill="#455A64"/>
<path d="M99.71 128.004C99.7055 128.032 99.6939 128.059 99.6762 128.082C98.6892 129.434 97.9862 129.843 97.9524 129.86C97.9267 129.876 97.8979 129.886 97.8679 129.89C97.8679 129.89 96.9012 129.995 95.1639 130.14C95.1166 130.14 95.0861 130.14 95.0828 130.083C95.0845 130.059 95.0915 130.035 95.1032 130.014C95.1148 129.993 95.1309 129.975 95.1504 129.961C95.8821 129.284 96.5239 128.516 97.0601 127.676C97.0811 127.643 97.11 127.615 97.1442 127.596C97.1783 127.576 97.2168 127.566 97.2561 127.565C97.3169 127.565 97.3338 127.629 97.2899 127.696C96.7785 128.487 96.1823 129.219 95.512 129.88C96.8843 129.762 97.7225 129.674 97.922 129.653C98.5146 129.202 99.0304 128.657 99.4497 128.041C99.4723 128.01 99.5018 127.986 99.5359 127.968C99.57 127.951 99.6077 127.943 99.6458 127.943C99.6543 127.941 99.6631 127.942 99.6714 127.944C99.6797 127.947 99.6874 127.951 99.6937 127.957C99.7 127.963 99.7047 127.97 99.7076 127.978C99.7104 127.987 99.7112 127.995 99.71 128.004Z" fill="#455A64"/>
<path d="M104.009 132.706L95.3869 133.287L94.5284 130.008C94.5257 129.999 94.5201 129.99 94.5122 129.983C94.5044 129.976 94.4947 129.972 94.4845 129.971C92.8418 129.525 90.8645 129.664 88.61 130.38C88.5619 130.397 88.5189 130.427 88.485 130.465C88.4716 130.48 88.4618 130.498 88.4565 130.517C88.4512 130.536 88.4506 130.557 88.4546 130.576L90.4217 135.754C90.4262 135.767 90.4346 135.777 90.4457 135.784C90.4567 135.79 90.4697 135.793 90.4826 135.792L93.8626 135.849H93.9065L103.928 132.949C103.963 132.939 103.995 132.921 104.023 132.897C104.05 132.873 104.072 132.844 104.087 132.81C104.088 132.799 104.088 132.788 104.087 132.777C104.104 132.729 104.06 132.702 104.009 132.706ZM93.964 135.606L90.6651 135.552L88.7621 130.539C90.8577 129.904 92.7032 129.789 94.2479 130.201L95.1098 133.493C95.1098 133.52 95.147 133.537 95.1875 133.534L102.931 133.013L93.964 135.606Z" fill="#455A64"/>
<path d="M102.945 133.01L93.964 135.606L90.6651 135.552L88.7622 130.539C90.8578 129.904 92.7033 129.789 94.2479 130.201L95.1098 133.493C95.1098 133.52 95.147 133.537 95.1876 133.534L102.945 133.01Z" fill="#6C00F8"/>
<path d="M111.32 120.095L104.624 117.218H104.587L101.143 117.286C101.105 117.288 101.069 117.301 101.038 117.323L93.0987 122.515C93.0565 122.541 93.0234 122.58 93.0041 122.626C92.9967 122.642 92.9953 122.659 93.0003 122.676C93.0053 122.692 93.0163 122.706 93.0311 122.714C94.4642 123.424 96.2826 123.556 98.4391 123.106C98.4705 123.098 98.5002 123.084 98.527 123.066L103.164 119.78L111.138 120.328C111.173 120.326 111.208 120.316 111.24 120.299C111.271 120.282 111.299 120.259 111.32 120.23C111.34 120.207 111.352 120.179 111.354 120.149C111.355 120.137 111.352 120.126 111.346 120.116C111.34 120.107 111.331 120.099 111.32 120.095ZM103.262 119.53C103.217 119.53 103.173 119.546 103.137 119.574L98.4763 122.873C96.4483 123.285 94.7583 123.177 93.3792 122.535L101.062 117.519L104.442 117.455L110.431 120.027L103.262 119.53Z" fill="#455A64"/>
<path d="M110.421 120.027L103.262 119.53C103.217 119.53 103.173 119.546 103.137 119.574L98.4763 122.873C96.4483 123.286 94.7583 123.177 93.3792 122.535L101.062 117.519L104.442 117.455L110.421 120.027Z" fill="#6C00F8"/>
<path d="M110.996 126.365L102.593 124.722H102.556L90.033 126.412C89.9979 126.419 89.9645 126.434 89.9349 126.454C89.9054 126.474 89.8801 126.5 89.8606 126.53C89.8235 126.591 89.8404 126.642 89.8944 126.652L100.477 128.342H100.518L110.861 126.605C110.896 126.597 110.929 126.583 110.958 126.562C110.987 126.541 111.011 126.514 111.03 126.483C111.039 126.465 111.045 126.446 111.047 126.426C111.047 126.411 111.043 126.396 111.033 126.385C111.024 126.374 111.01 126.366 110.996 126.365ZM100.633 128.102L90.8307 126.537L102.444 124.979L110.239 126.493L100.633 128.102Z" fill="#455A64"/>
<path d="M110.225 126.49L100.633 128.099L90.8172 126.534L102.431 124.976L110.225 126.49Z" fill="#6C00F8"/>
<path d="M100.122 133.824L99.1523 134.108L98.1721 134.396L97.077 134.713C96.6799 134.832 96.3151 135.04 96.01 135.32C95.705 135.601 95.4676 135.947 95.316 136.332C95.1267 137.008 95.5864 137.404 96.3672 137.238L97.4014 137.019H97.4319L98.3884 136.816L99.328 136.616C99.8384 136.488 100.234 135.69 100.416 135.048C100.483 134.821 100.523 134.588 100.535 134.352C100.552 133.99 100.443 133.743 100.122 133.824ZM100.149 135.109C99.9702 135.751 99.6322 136.319 99.4058 136.376L98.7298 136.518L98.4087 136.586L97.7327 136.728L97.4251 136.795L96.428 137.005C95.8804 137.12 95.5255 136.893 95.5357 136.478C95.539 136.404 95.5515 136.332 95.5729 136.261C95.6963 135.947 95.8898 135.665 96.1387 135.436C96.3876 135.208 96.6854 135.039 97.0094 134.943L98.0234 134.642L98.3377 134.551L99.0137 134.352L99.3517 134.254L100.028 134.054C100.288 134 100.332 134.473 100.149 135.109Z" fill="#455A64"/>
<path d="M99.372 134.254C99.3579 134.22 99.3371 134.189 99.311 134.164C99.2849 134.138 99.2539 134.118 99.2199 134.105C99.1956 134.098 99.1699 134.098 99.1455 134.105L98.1653 134.392C98.1074 134.41 98.0573 134.447 98.0234 134.497C97.9896 134.544 97.9896 134.592 98.0234 134.612C98.033 134.619 98.041 134.628 98.047 134.639C98.1619 134.778 98.1484 135.17 98.0132 135.653C97.9098 136.073 97.7134 136.465 97.4386 136.799L97.3947 136.843C97.3743 136.858 97.3577 136.878 97.346 136.901C97.3343 136.924 97.3278 136.949 97.3271 136.975C97.3311 136.99 97.3405 137.003 97.3536 137.012C97.3667 137.02 97.3825 137.024 97.3981 137.022H97.4285L98.385 136.819C98.412 136.812 98.4372 136.799 98.4594 136.782C98.5593 136.711 98.6482 136.625 98.723 136.528C98.9915 136.171 99.1878 135.764 99.301 135.332C99.3699 135.107 99.4096 134.874 99.4193 134.639C99.4326 134.509 99.4164 134.377 99.372 134.254ZM99.034 135.389C98.9279 135.834 98.7117 136.246 98.4053 136.586L97.7293 136.728C97.9744 136.38 98.1563 135.993 98.2667 135.582C98.3827 135.251 98.4095 134.896 98.3445 134.551L99.0205 134.352C99.1861 134.446 99.1861 134.862 99.034 135.389Z" fill="#455A64"/>
<path d="M99.034 135.389C98.9278 135.835 98.7117 136.246 98.4053 136.586L97.7293 136.728C97.9744 136.38 98.1563 135.993 98.2667 135.582C98.3827 135.251 98.4095 134.896 98.3445 134.551L99.0205 134.352C99.1861 134.446 99.1861 134.862 99.034 135.389Z" fill="#6C00F8"/>
<path d="M110.948 116.431L110.232 116.235L109.512 116.035L108.704 115.812C108.116 115.65 107.193 116.052 106.609 116.725C106.024 117.398 105.976 118.107 106.507 118.341L107.234 118.655L107.886 118.939L108.532 119.219C108.65 119.26 108.887 119.219 109.34 118.881C109.664 118.615 109.965 118.321 110.239 118.003C110.501 117.709 110.733 117.39 110.932 117.049C111.009 116.922 111.059 116.779 111.077 116.63C111.084 116.587 111.074 116.543 111.05 116.506C111.027 116.47 110.991 116.443 110.948 116.431ZM110.681 117.056C110.499 117.37 110.285 117.664 110.043 117.935C109.791 118.228 109.514 118.499 109.215 118.743C108.985 118.925 108.809 119.013 108.735 118.99L108.282 118.794L108.059 118.696L107.606 118.499L107.399 118.408L106.723 118.111C106.291 117.921 106.325 117.344 106.805 116.793C107.285 116.242 108.035 115.914 108.518 116.049L109.279 116.259L109.505 116.319L110.016 116.458L110.259 116.526L110.763 116.664C110.827 116.691 110.8 116.833 110.681 117.056Z" fill="#455A64"/>
<path d="M110.272 116.272C110.27 116.263 110.265 116.254 110.258 116.247C110.25 116.241 110.242 116.236 110.232 116.235L109.512 116.035C109.458 116.032 109.405 116.048 109.363 116.08C109.32 116.112 109.29 116.159 109.279 116.211C109.279 116.211 109.279 116.238 109.279 116.255C109.105 116.679 108.851 117.066 108.532 117.394C108.212 117.789 107.832 118.131 107.406 118.408L107.349 118.435C107.293 118.457 107.246 118.498 107.217 118.55C107.193 118.597 107.2 118.638 107.237 118.655L107.89 118.939C107.914 118.947 107.94 118.947 107.964 118.939C108.083 118.906 108.197 118.856 108.302 118.79C108.736 118.485 109.128 118.125 109.468 117.719C109.799 117.367 110.07 116.962 110.269 116.522C110.289 116.467 110.3 116.409 110.303 116.35C110.298 116.322 110.288 116.296 110.272 116.272ZM109.258 117.654C108.929 118.074 108.523 118.428 108.062 118.695L107.609 118.499C108.018 118.199 108.39 117.852 108.718 117.465C109.033 117.124 109.296 116.738 109.498 116.319L110.009 116.458C110.019 116.637 109.705 117.134 109.255 117.654H109.258Z" fill="#455A64"/>
<path d="M110.005 116.458C110.005 116.637 109.705 117.134 109.255 117.654C108.926 118.074 108.52 118.427 108.059 118.695L107.606 118.499C108.014 118.199 108.387 117.852 108.714 117.465C109.029 117.124 109.292 116.738 109.495 116.319L110.005 116.458Z" fill="#6C00F8"/>
<path d="M74.1977 124.587C73.106 124.587 71.7033 125.479 71.0746 126.571C70.4459 127.663 70.8245 128.552 71.9095 128.552C73.0046 128.552 74.4039 127.659 75.036 126.568C75.211 126.28 75.3142 125.954 75.3368 125.618C75.374 125.006 74.9481 124.587 74.1977 124.587ZM74.7994 126.568C74.2451 127.528 73.0181 128.308 72.0548 128.308C71.0915 128.308 70.7637 127.531 71.318 126.571C71.8723 125.611 73.0992 124.834 74.0592 124.83C75.0191 124.827 75.3503 125.608 74.7994 126.568Z" fill="#455A64"/>
<path d="M134.821 61.178C133.412 63.0539 130.566 66.417 129.153 68.1915C128.405 69.1184 128 70.2755 128.007 71.4667C128.007 72.3489 128.261 73.0857 129.123 72.7105C129.748 72.4367 130.137 72.1156 131.056 71.2166C131.874 70.4087 136.606 64.4261 136.606 64.4261C136.606 64.4261 136.995 61.0732 138.218 60.7081C139.442 60.3431 137.779 59.3291 137.779 59.3291C137.262 59.3866 136.244 59.2852 134.821 61.178Z" fill="#9A4A4D"/>
<path d="M117.509 106.034L108.674 116.12C108.617 116.183 108.542 116.227 108.459 116.246C108.376 116.265 108.29 116.257 108.211 116.225C108.133 116.192 108.067 116.136 108.022 116.064C107.977 115.991 107.955 115.907 107.961 115.822L108.839 102.367L117.509 106.034Z" fill="#FFA8A7"/>
<path d="M107.961 115.822C107.955 115.907 107.977 115.992 108.022 116.064C108.067 116.136 108.133 116.192 108.211 116.225C108.29 116.257 108.376 116.265 108.459 116.246C108.542 116.227 108.617 116.183 108.674 116.12L110.398 114.149C109.985 114.192 109.568 114.12 109.193 113.941C108.819 113.762 108.501 113.483 108.275 113.135L108.146 112.943L107.961 115.822Z" fill="#263238"/>
<path d="M130.468 50.0948L129.995 51.244L129.417 52.6265L108.836 102.363C109.38 103.775 110.437 104.93 111.797 105.594C113.825 106.676 116.255 106.872 117.499 106.03L137.904 56.6588L138.999 54.0123C138.208 55.6854 129.674 51.7848 130.468 50.0948Z" fill="#6C00F8"/>
<path d="M128.639 54.4551L127.585 57.0205C127.247 57.754 128.639 58.8829 130.4 59.7989C132.733 61.0258 135.721 61.8776 136.146 60.9075L136.927 59.0181L137.194 58.3421C136.755 59.3121 133.767 58.4638 131.431 57.2368C129.741 56.3546 128.389 55.273 128.599 54.5328C128.605 54.5038 128.619 54.4771 128.639 54.4551Z" fill="#EBEBEB"/>
<path d="M128.383 55.0939C127.612 56.7839 136.18 60.681 136.951 58.9809L138.016 56.4155C137.245 58.1055 128.677 54.232 129.447 52.5319L128.383 55.0939Z" fill="#6C00F8"/>
<path d="M130.468 50.0948L129.417 52.6265C128.639 54.2894 136.89 58.1359 137.904 56.6588C137.925 56.6306 137.944 56.5999 137.958 56.5676L138.999 54.0123C138.208 55.6854 129.674 51.7849 130.468 50.0948Z" fill="#EBEBEB"/>
<path opacity="0.1" d="M137.904 56.6589L138.999 54.0124C138.634 54.7695 136.694 54.3842 134.747 53.5831L113.436 106.257L108.674 116.12L117.509 106.034L137.904 56.6589Z" fill="black"/>
<path d="M134.909 39.36L130.468 50.0949C130.13 50.8182 131.482 51.9438 133.24 52.8631C135.568 54.0968 138.563 54.9722 139.023 54.0123L143.312 43.6763C144.508 41.3508 140.382 38.4238 137.417 38.2683C136.295 38.1939 135.355 38.4914 134.909 39.36Z" fill="#FFA8A7"/>
<path d="M139.013 42.9022L134.761 53.5796C136.495 54.2928 138.215 54.6748 138.817 54.2151C138.86 54.1791 138.901 54.1395 138.938 54.0968C138.959 54.0664 138.982 54.0427 138.999 54.0123L143.41 43.3687C142.862 44.6463 139.013 42.9022 139.013 42.9022Z" fill="#F28F8F"/>
<path d="M152.333 113.652L149.896 114.379L148.842 110.827L151.333 109.975L152.333 113.652Z" fill="#B16668"/>
<path d="M149.538 113.176L149.433 112.838C149.23 113.007 149.17 115.163 148.598 116.407C147.976 117.759 147.317 118.733 147.04 119.344C146.668 120.162 148.115 120.595 149.714 119.807C150.505 119.415 151.776 118.395 151.978 117.739C152.181 117.083 152.11 116.235 152.286 115.745C152.462 115.255 153.009 114.612 153.033 114.102C152.952 113.655 152.774 113.232 152.512 112.861C152.272 112.466 152.009 112.027 151.874 112.111C151.874 112.165 151.951 112.378 151.951 112.378C151.717 112.801 151.365 113.146 150.937 113.372C150.555 113.568 149.666 113.598 149.538 113.176Z" fill="#263238"/>
<path d="M146.293 73.1431C147.763 75.0291 148.027 76.976 147.706 82.4888C147.385 88.0015 147.287 92.6288 147.368 92.9228C147.449 93.2169 149.18 95.4477 149.734 97.4655C150.288 99.4834 151.806 110.915 151.806 110.915C151.474 111.325 151.05 111.653 150.569 111.871C150.088 112.089 149.562 112.192 149.034 112.172C149.034 112.172 142.9 95.4679 142.487 94.2241C142.075 92.9803 139.445 79.92 139.445 79.92L139.844 72.5448L146.293 73.1431Z" fill="#37474F"/>
<path d="M139.898 56.9022H141.926C143.202 56.9022 144.426 56.3956 145.328 55.4937C146.231 54.5918 146.738 53.3684 146.739 52.0925C146.739 50.5461 146.125 49.0631 145.032 47.9697C143.938 46.8762 142.455 46.262 140.909 46.262C139.362 46.262 137.879 46.8762 136.786 47.9697C135.693 49.0631 135.078 50.5461 135.078 52.0925C135.078 52.7249 135.203 53.3512 135.445 53.9354C135.688 54.5196 136.043 55.0503 136.491 55.4971C136.938 55.9438 137.47 56.2979 138.054 56.539C138.639 56.7801 139.266 56.9035 139.898 56.9022Z" fill="#263238"/>
<path d="M136.839 108.988L134.297 108.955L134.248 112.659L136.79 112.692L136.839 108.988Z" fill="#B16668"/>
<path d="M135.065 79.484C135.291 76.9388 135.835 72.5279 135.835 72.5279L142.345 72.146C143.4 73.7887 142.94 76.54 142.653 78.9939L138.935 93.5684C139.009 94.2681 139.651 95.7485 138.935 99.5003C138.134 103.692 136.944 109.698 136.944 109.698C136.944 109.698 135.088 110.631 134.172 109.613C134.172 109.613 133.682 95.9919 134.027 92.3753C134.396 88.441 134.913 81.2281 135.065 79.484Z" fill="#37474F"/>
<path d="M134.274 111.395V111.03C134.031 111.131 133.327 113.172 132.415 114.19C131.418 115.302 130.498 116.029 130.049 116.529C129.454 117.205 130.705 118.043 132.462 117.766C133.338 117.631 134.855 117.029 135.241 116.468C135.626 115.907 135.815 115.069 136.129 114.656C136.444 114.244 137.143 113.788 137.329 113.304C137.387 112.85 137.343 112.388 137.201 111.952C137.089 111.503 136.968 111.006 136.816 111.046C136.816 111.101 136.816 111.324 136.816 111.324C136.463 111.657 136.022 111.881 135.545 111.969C135.132 112.054 134.27 111.837 134.274 111.395Z" fill="#263238"/>
<path d="M136.609 67.4275C136.447 68.9147 135.487 75.3739 135.487 75.3739C140.395 77.99 146.482 76.2561 147.412 75.1778C146.57 72.3995 145.661 70.8176 144.968 70.0808L146.016 65.9978C146.016 65.9978 143.65 63.4763 145.756 59.5048L143.153 59.2918L139.334 59.1803C138.421 59.231 137.769 59.3189 137.769 59.3189C137.071 60.4772 136.473 61.6927 135.981 62.9524C135.602 63.9393 135.2 65.3826 136.609 67.4275Z" fill="#F0F0F0"/>
<path d="M137.167 48.8003C136.552 49.1653 135.791 50.7134 135.866 53.9615C135.93 56.7129 136.822 57.3922 137.269 57.5883C137.715 57.7843 138.58 57.666 139.422 57.5241V59.1769C139.422 59.1769 138.259 60.5289 138.333 61.2826C138.408 62.0364 140.023 62.2189 141.095 61.4787C141.88 60.8693 142.557 60.131 143.096 59.2952L143.075 55.4994C143.075 55.4994 143.572 55.9794 144.41 55.2459C145.086 54.6409 145.333 53.6235 144.796 53.076C144.656 52.9457 144.487 52.8506 144.303 52.7984C144.119 52.7462 143.926 52.7384 143.738 52.7757C143.551 52.813 143.375 52.8943 143.225 53.0129C143.075 53.1315 142.955 53.2841 142.876 53.4579C142.876 53.4579 141.524 53.5052 139.756 52.525C139.062 52.1517 138.466 51.6198 138.016 50.9725C137.566 50.3253 137.275 49.5811 137.167 48.8003Z" fill="#B16668"/>
<path d="M138.938 53.2687C138.933 53.3161 138.938 53.3641 138.952 53.4095C138.967 53.4549 138.991 53.4967 139.023 53.5321C139.055 53.5675 139.094 53.5958 139.138 53.6151C139.181 53.6344 139.229 53.6442 139.276 53.6439C139.347 53.6478 139.418 53.6306 139.479 53.5945C139.54 53.5583 139.589 53.5048 139.619 53.4408C139.65 53.3768 139.661 53.3052 139.651 53.2349C139.641 53.1647 139.61 53.0991 139.562 53.0463C139.515 52.9936 139.453 52.9562 139.384 52.9388C139.315 52.9214 139.243 52.9248 139.176 52.9486C139.109 52.9725 139.051 53.0156 139.008 53.0726C138.966 53.1296 138.942 53.1978 138.938 53.2687Z" fill="#263238"/>
<path d="M138.847 55.601L138.043 55.8578C138.057 55.9116 138.083 55.962 138.117 56.0058C138.152 56.0497 138.195 56.0863 138.243 56.1133C138.292 56.1404 138.346 56.1575 138.401 56.1635C138.457 56.1695 138.513 56.1644 138.566 56.1485C138.674 56.11 138.763 56.0319 138.815 55.9302C138.867 55.8285 138.879 55.7108 138.847 55.601Z" fill="#9A4A4D"/>
<path d="M136.102 52.2074L136.802 51.7207C136.773 51.6736 136.734 51.633 136.688 51.6014C136.643 51.5698 136.591 51.5477 136.537 51.5367C136.482 51.5256 136.426 51.5257 136.372 51.537C136.318 51.5483 136.266 51.5705 136.221 51.6024C136.128 51.6692 136.064 51.769 136.042 51.8814C136.02 51.9939 136.041 52.1105 136.102 52.2074Z" fill="#263238"/>
<path d="M136.261 53.0186C136.262 53.0842 136.281 53.1484 136.317 53.2032C136.353 53.2581 136.404 53.3012 136.464 53.3274C136.525 53.3536 136.591 53.3617 136.656 53.3507C136.721 53.3397 136.781 53.3101 136.829 53.2655C136.877 53.2209 136.911 53.1632 136.927 53.0995C136.943 53.0359 136.94 52.9689 136.919 52.9069C136.897 52.8448 136.858 52.7904 136.806 52.7502C136.754 52.71 136.692 52.6858 136.626 52.6806C136.533 52.6778 136.443 52.7117 136.375 52.7749C136.306 52.8381 136.266 52.9256 136.261 53.0186Z" fill="#263238"/>
<path d="M137.894 52.8225L137.84 54.9046L136.745 54.5666L137.894 52.8225Z" fill="#9A4A4D"/>
<path d="M139.422 57.5241C140.307 57.4092 142.126 56.8853 142.41 56.1721C142.296 56.5367 142.073 56.8576 141.771 57.0915C141.227 57.5579 139.422 58.0818 139.422 58.0818V57.5241Z" fill="#9A4A4D"/>
<path d="M146.692 52.9983L147.932 52.0891C147.877 52.005 147.805 51.9331 147.721 51.8776C147.637 51.8222 147.542 51.7843 147.443 51.7663C147.344 51.7483 147.242 51.7505 147.144 51.7729C147.045 51.7953 146.953 51.8373 146.871 51.8964C146.706 52.0222 146.595 52.2066 146.562 52.4116C146.529 52.6166 146.575 52.8266 146.692 52.9983Z" fill="#263238"/>
<path d="M140.608 85.6693L139.543 80.3188C138.603 79.9857 137.71 79.5312 136.887 78.9668C137.412 79.6322 138.04 80.2105 138.746 80.6805L140.608 85.6693Z" fill="#263238"/>
<path d="M146.016 56.9258C144.887 56.3546 145.043 55.2865 145.614 54.1542C146.185 53.0219 146.949 52.2614 148.081 52.8293C148.604 53.1145 148.996 53.592 149.174 54.1609C149.351 54.7298 149.3 55.3454 149.032 55.8775C148.764 56.4097 148.299 56.8166 147.736 57.0122C147.173 57.2079 146.556 57.1769 146.016 56.9258Z" fill="#263238"/>
<path d="M127.805 73.8327C128.372 73.9814 128.923 73.9341 129.707 74.2045C130.229 74.4306 130.797 74.5269 131.364 74.485C132.101 74.4377 134.024 73.5285 135.731 72.4908C137.603 71.2749 139.253 69.7464 140.608 67.9718C142.153 65.7849 143.863 62.3339 144.681 61.0157C145.499 59.6975 145.779 59.5049 145.779 59.5049C146.847 59.5488 147.909 60.5189 147.199 63.135C146.611 65.2914 145.032 68.0867 143.089 70.4392C141.612 72.1785 139.859 73.663 137.901 74.8332C136.096 75.9351 134.521 76.4826 132.493 77.1553C131.945 77.3378 131.587 77.6082 130.586 78.0814C130.183 78.2998 129.751 78.4581 129.302 78.5512C128.741 78.632 128.172 78.632 127.612 78.5512C126.9 78.4532 126.227 78.1647 125.665 77.7163C125.357 77.4711 125.111 77.1575 124.945 76.8004C124.781 76.4384 124.75 76.0303 124.857 75.6478C124.877 75.5702 124.916 75.4991 124.972 75.4416C125.031 75.3997 125.097 75.3698 125.167 75.3535C125.237 75.3373 125.31 75.335 125.381 75.3469C126.2 75.4283 127.022 75.4678 127.845 75.4653C128.521 75.4179 128.991 75.2895 128.893 75.1948C128.795 75.1002 128.403 75.1543 127.862 74.9211C127.321 74.6878 126.966 74.1741 127.115 73.9071C127.264 73.64 127.237 73.684 127.805 73.8327Z" fill="#B16668"/>
<path d="M124.073 65.5279C124.855 65.1885 125.719 65.0805 126.561 65.217C127.237 65.3285 127.237 67.583 125.063 68.3029C123.647 68.766 122.795 68.5598 122.339 69.7259C122.339 69.7259 121.42 69.6042 121.629 68.3029C121.859 66.9591 122.462 65.707 123.37 64.6897C123.992 63.9529 124.046 63.3377 124.34 63.5405C124.634 63.7433 124.526 64.4632 124.526 64.4632L124.073 65.5279Z" fill="#B16668"/>
<path d="M106.335 80.8428L93.9302 80.6738L93.8221 90.8138C93.8221 91.7298 94.4068 92.6526 95.6101 93.3657C98.02 94.7921 101.948 94.8327 104.398 93.4604C105.628 92.7675 106.244 91.8481 106.24 90.922L106.335 80.8428Z" fill="#37474F"/>
<path d="M95.7757 78.1625C93.3387 79.5381 93.315 81.8061 95.7216 83.2325C98.1282 84.6588 102.056 84.6994 104.493 83.3271C106.93 81.9548 106.957 79.6868 104.55 78.2571C102.144 76.8274 98.2127 76.7902 95.7757 78.1625Z" fill="#455A64"/>
<path d="M105.794 80.8022C105.791 80.9682 105.761 81.1325 105.706 81.289C105.52 81.8703 105.013 82.4077 104.222 82.8539C102.938 83.4826 101.525 83.8022 100.095 83.7869C98.6653 83.7716 97.259 83.422 95.9886 82.766C95.2247 82.3131 94.7245 81.752 94.5488 81.2011C94.4895 81.034 94.4598 80.8579 94.4609 80.6806C94.4609 79.9268 95.0287 79.1967 96.036 78.6526C97.3207 78.0261 98.7339 77.7079 100.163 77.7232C101.592 77.7384 102.998 78.0867 104.27 78.7404C105.27 79.3117 105.794 80.0451 105.794 80.8022Z" fill="#263238"/>
<path d="M105.713 81.289C105.527 81.8703 105.02 82.4077 104.229 82.8539C102.945 83.4826 101.532 83.8022 100.102 83.7869C98.6721 83.7716 97.2658 83.422 95.9954 82.766C95.2315 82.3131 94.7313 81.752 94.5555 81.2011C94.8378 80.5132 95.3687 79.9569 96.0427 79.6429C97.3256 79.01 98.7396 78.6881 100.17 78.7034C101.601 78.7187 103.007 79.0706 104.276 79.7308C104.929 80.058 105.44 80.612 105.713 81.289Z" fill="#6C00F8"/>
<path d="M102.776 84.6385C103.049 84.4864 103.266 84.6149 103.262 84.9258C103.251 85.0957 103.201 85.2607 103.114 85.4075C103.028 85.5542 102.909 85.6787 102.766 85.7709C102.492 85.923 102.275 85.7945 102.279 85.4836C102.29 85.3137 102.34 85.1487 102.427 85.0019C102.513 84.8552 102.633 84.7307 102.776 84.6385Z" fill="#263238"/>
<path d="M93.9099 82.472C93.2339 83.824 91.8819 87.0147 93.6328 88.3194C93.7071 88.3734 93.7747 88.4208 93.8491 88.4681V89.1137C93.6733 89.0089 93.4908 88.8872 93.315 88.7588C90.6821 86.8051 93.653 81.7993 93.7815 81.5898C93.8142 81.5336 93.8676 81.4924 93.9302 81.4749L93.9099 82.472Z" fill="#E0E0E0"/>
<path d="M103.009 85.3314C102.935 85.4869 101.018 89.1508 97.8645 89.8877C97.5082 89.9737 97.1428 90.0168 96.7762 90.0161C95.7304 89.9965 94.7123 89.6774 93.8423 89.0967V88.4512C95.1436 89.3536 96.4551 89.6646 97.7361 89.3671C100.646 88.6911 102.509 85.1151 102.522 85.0813C102.539 85.0498 102.561 85.0218 102.588 84.9989C102.615 84.9761 102.647 84.9588 102.681 84.9481C102.715 84.9375 102.75 84.9336 102.786 84.9367C102.821 84.9398 102.856 84.9499 102.887 84.9664C102.92 84.9814 102.949 85.0031 102.973 85.0299C102.997 85.0568 103.016 85.0883 103.027 85.1225C103.039 85.1567 103.043 85.1929 103.04 85.2289C103.037 85.2648 103.026 85.2997 103.009 85.3314Z" fill="#E0E0E0"/>
<path d="M86.9573 60.6777H58.5653L61.7391 86.7984C61.8844 88.3126 62.9424 89.7998 64.9433 90.9558C69.2596 93.4468 76.2528 93.4468 80.5657 90.9558C82.5666 89.7998 83.628 88.3126 83.7733 86.7984L86.9573 60.6777Z" fill="#37474F"/>
<path d="M62.7369 54.8777C68.2835 51.6768 77.2709 51.6768 82.8208 54.8777C88.3708 58.0786 88.3674 63.2736 82.8208 66.4745C77.2743 69.6753 68.2868 69.6753 62.7369 66.4745C57.1869 63.2736 57.1903 58.0819 62.7369 54.8777Z" fill="#455A64"/>
<path d="M72.7782 67.2283C69.2697 67.2283 65.9945 66.4542 63.5609 65.0482C61.4079 63.8043 60.2249 62.2529 60.2249 60.6745C60.2249 59.096 61.4079 57.548 63.5609 56.3041C65.9945 54.898 69.2697 54.124 72.7782 54.124C76.2866 54.124 79.5618 54.898 81.9954 56.3041C84.1485 57.548 85.3315 59.0994 85.3315 60.6745C85.3315 62.2495 84.1485 63.8043 81.9954 65.0448C79.5618 66.4543 76.2866 67.2283 72.7782 67.2283Z" fill="#263238"/>
<path d="M80.64 82.134L75.401 92.105C75.3693 92.1702 75.3175 92.2235 75.2532 92.257C75.189 92.2905 75.1156 92.3025 75.044 92.2911C74.9724 92.2797 74.9064 92.2457 74.8556 92.1939C74.8049 92.1421 74.7721 92.0754 74.7622 92.0036L72.8423 80.8496L80.64 82.134Z" fill="#FFA8A7"/>
<path d="M80.64 82.134L75.401 92.105C75.3693 92.1702 75.3175 92.2235 75.2532 92.257C75.189 92.2905 75.1156 92.3025 75.044 92.2911C74.9724 92.2797 74.9064 92.2457 74.8556 92.1939C74.8049 92.1421 74.7721 92.0754 74.7622 92.0036L72.8423 80.8496L80.64 82.134Z" fill="#FFA8A7"/>
<path d="M74.7622 91.9934C74.7722 92.0652 74.8049 92.132 74.8557 92.1837C74.9064 92.2355 74.9725 92.2696 75.044 92.2809C75.1156 92.2923 75.189 92.2803 75.2533 92.2468C75.3175 92.2133 75.3694 92.16 75.401 92.0948L76.415 90.1479C76.0863 90.2637 75.732 90.2868 75.391 90.2147C75.05 90.1425 74.7354 89.9779 74.4817 89.739L74.3397 89.6038L74.7622 91.9934Z" fill="#263238"/>
<path d="M80.2412 33.8912L80.0823 34.9052L79.8795 36.1457L72.839 80.8259C73.5567 81.8715 74.6435 82.6069 75.881 82.8843C77.74 83.3744 79.7714 83.0533 80.613 82.1205L87.6231 37.7884L87.9983 35.4224C87.6704 36.9366 79.9336 35.4258 80.2412 33.8912Z" fill="#6C00F8"/>
<path d="M79.6125 37.8086L79.2543 40.1104C79.1292 40.7864 80.4812 41.4252 82.1002 41.8308C84.2431 42.3716 86.8525 42.4831 87.0215 41.6043L87.2885 39.9143L87.373 39.3059C87.204 40.1847 84.5947 40.0766 82.4517 39.5358C80.9003 39.1437 79.5889 38.5218 79.6058 37.8897C79.5984 37.8627 79.6008 37.834 79.6125 37.8086Z" fill="#EBEBEB"/>
<path d="M79.528 38.3866C79.2306 39.9245 86.9945 41.4286 87.302 39.8772L87.6671 37.5754C87.373 39.1133 79.6091 37.6227 79.8931 36.0848L79.528 38.3866Z" fill="#6C00F8"/>
<path d="M80.2412 33.8912L79.8795 36.166C79.5787 37.6768 87.0586 39.208 87.6231 37.7918C87.6361 37.765 87.6452 37.7366 87.6502 37.7073L87.9882 35.4156C87.6704 36.9366 79.9336 35.4258 80.2412 33.8912Z" fill="#EBEBEB"/>
<path opacity="0.1" d="M87.6231 37.7884L87.9983 35.4224C87.8496 36.0984 86.1866 36.1795 84.4392 35.9057L77.3581 83.104L75.401 92.0948L80.64 82.1238L87.6231 37.7884Z" fill="black"/>
<path d="M81.7723 24.2481L80.2412 33.8912C80.1094 34.5469 81.4478 35.1993 83.05 35.6083C85.1929 36.1592 87.8124 36.2843 87.9983 35.4122L89.4686 26.1375C89.9891 24.0013 86.0446 22.4195 83.5874 22.8623C82.6714 23.011 81.9684 23.4504 81.7723 24.2481Z" fill="#FFA8A7"/>
<path d="M63.7265 79.937L63.5846 78.9027L63.4054 77.6589L57.1389 32.8772C57.7203 33.4755 59.2244 33.7932 60.8569 33.6175C62.7666 33.4113 64.5276 32.6271 64.9467 31.7179L71.1659 76.1683L71.5039 78.5512C71.2065 77.02 63.446 78.3957 63.7265 79.937Z" fill="#6C00F8"/>
<path d="M63.1655 76.0061L62.8477 73.701C62.7328 73.025 64.0983 72.4064 65.7207 72.0312C67.8772 71.5242 70.4865 71.46 70.6386 72.3422L70.8786 74.0322L70.953 74.6406C70.7975 73.7584 68.1881 73.8226 66.0317 74.3263C64.4769 74.6913 63.1553 75.2896 63.1621 75.9216C63.1544 75.9494 63.1556 75.979 63.1655 76.0061Z" fill="#EBEBEB"/>
<path d="M63.0911 75.4315C62.8207 73.8834 70.6082 72.5281 70.8651 74.0795L71.2031 76.388C70.9327 74.8434 63.1452 76.1987 63.4291 77.74L63.0911 75.4315Z" fill="#6C00F8"/>
<path d="M63.7265 79.9369L63.4054 77.6588C63.1283 76.1412 70.6353 74.7588 71.1794 76.1682C71.1898 76.1957 71.1977 76.2239 71.2031 76.2527L71.5107 78.5511C71.2065 77.02 63.446 78.3957 63.7265 79.9369Z" fill="#EBEBEB"/>
<path d="M60.3398 24.069C59.2041 24.363 58.8019 24.1264 58.8019 24.1264L57.1423 32.8772C58.0481 34.1785 60.2553 34.4489 62.1244 33.8912L62.0669 33.462L60.3398 24.069Z" fill="#FFA8A7"/>
<path d="M64.9602 31.7178L60.8873 23.6058L64.9602 31.7178Z" fill="#FAFAFA"/>
<path d="M60.884 23.6194L59.897 21.6556L60.884 23.6194Z" fill="#E0E0E0"/>
<path d="M59.2548 21.7469L58.8019 24.1129C58.8019 24.1129 59.1872 24.3867 60.3398 24.0554L59.897 21.6421C59.8775 21.6021 59.8504 21.5664 59.817 21.5369C59.7837 21.5074 59.7449 21.4848 59.7028 21.4703C59.6607 21.4559 59.6162 21.4499 59.5718 21.4527C59.5274 21.4555 59.484 21.467 59.4441 21.4866C59.3934 21.5109 59.3495 21.5474 59.3165 21.5928C59.2834 21.6382 59.2622 21.6912 59.2548 21.7469Z" fill="#455A64"/>
<path opacity="0.1" d="M71.1761 76.1683L64.9569 31.728C64.5175 32.786 63.3987 33.5363 62.1244 33.9047L67.9583 78.0036C69.7125 77.7603 71.3721 77.8583 71.5073 78.5512L71.1761 76.1683Z" fill="black"/>
<path d="M64.9569 31.728L60.8806 23.616C60.7575 23.825 60.5649 23.9841 60.3364 24.0655L62.067 33.4619L62.1244 33.8979C63.3987 33.5363 64.5175 32.7859 64.9569 31.728Z" fill="#F28F8F"/>
<path d="M60.3398 24.069C60.4586 24.0401 60.5693 23.9846 60.6636 23.9068C60.7578 23.8289 60.8332 23.7306 60.884 23.6194L59.897 21.6556L60.3398 24.069Z" fill="#37474F"/>
<path d="M65.0887 89.6038L63.7367 79.937C63.6184 79.2779 64.9636 78.6493 66.5725 78.2673C68.7289 77.7536 71.3484 77.6724 71.5174 78.5512L72.8289 87.853C73.3122 89.9959 69.3407 91.5068 66.8936 91.0234C65.9675 90.8544 65.2712 90.4049 65.0887 89.6038Z" fill="#F28F8F"/>
<path d="M70.2567 28.8347C70.2567 28.8347 68.7459 40.9554 68.7323 52.9578C68.7323 64.8554 70.9192 77.8447 71.3586 79.8491C71.3586 79.8491 71.3586 79.8491 71.3586 79.8727C71.3602 79.8839 71.3602 79.8953 71.3586 79.9065C71.4031 80.0898 71.5048 80.2542 71.6489 80.3759C71.7931 80.4976 71.9722 80.5703 72.1603 80.5835C72.3485 80.5967 72.536 80.5496 72.6957 80.4492C72.8554 80.3488 72.979 80.2001 73.0486 80.0248C73.0748 79.962 73.093 79.8962 73.1027 79.8288C73.1027 79.8288 76.05 64.5579 76.0737 52.8631C76.0973 41.1683 74.573 28.8212 74.573 28.8212C74.5327 28.6547 74.4556 28.4994 74.3474 28.3666C74.2392 28.2338 74.1026 28.127 73.9477 28.0539C73.4733 27.8129 72.9487 27.6873 72.4165 27.6873C71.8844 27.6873 71.3598 27.8129 70.8854 28.0539C70.7272 28.1265 70.5881 28.2347 70.479 28.3702C70.3699 28.5057 70.2938 28.6648 70.2567 28.8347Z" fill="#6C00F8"/>
<path opacity="0.1" d="M73.052 80.0248C73.0782 79.962 73.0964 79.8961 73.106 79.8288C73.106 79.8288 76.05 64.5579 76.0737 52.8631C76.0737 44.9911 75.3977 36.8318 74.9515 32.333L72.2205 32.8062C72.2205 32.8062 72.6599 80.4642 71.8825 80.5048C71.9907 80.5507 72.107 80.5747 72.2245 80.5754C72.3421 80.5762 72.4586 80.5535 72.5674 80.5089C72.6762 80.4643 72.775 80.3985 72.8582 80.3154C72.9414 80.2323 73.0072 80.1335 73.052 80.0248Z" fill="black"/>
<path d="M72.4098 27.672C72.7883 26.9622 74.8535 23.1293 74.1876 20.0062C73.772 19.9949 73.362 19.9078 72.9776 19.7493C71.4938 19.1341 71.6695 17.8159 70.6116 17.2346C69.5537 16.6532 68.2726 18.4446 68.2625 18.4615C67.7454 20.0366 67.1032 21.7232 67.6744 24.1264C68.0714 25.9101 68.971 27.5429 70.2668 28.8313H74.5831C74.8535 28.4291 75.1509 27.9999 75.445 27.5334C75.1509 27.9999 74.8535 28.4291 74.5831 28.8313L72.4098 27.672Z" fill="#F0F0F0"/>
<path opacity="0.1" d="M77.2398 20.6957C76.3204 19.5904 75.3774 20.0467 74.1978 20.0197C74.8738 23.1428 72.7985 26.9757 72.4199 27.6855L74.5831 28.8314C74.8535 28.4291 75.1509 27.9999 75.445 27.5334C75.5194 27.4185 75.5937 27.2968 75.6681 27.1752C75.8168 26.9318 75.9621 26.6749 76.1007 26.4079C76.3224 25.9871 76.5166 25.5525 76.6821 25.1066C76.7936 24.7956 76.8984 24.4712 76.9863 24.1264C77.1841 23.3764 77.2975 22.6066 77.3243 21.8314C77.3298 21.4511 77.3015 21.071 77.2398 20.6957Z" fill="black"/>
<path d="M77.2364 20.6788C77.206 20.4861 77.1688 20.3002 77.1249 20.1143V20.0603C77.0877 19.9217 77.0471 19.7831 77.0032 19.6513L76.9525 19.4958C76.9525 19.4552 76.9187 19.4147 76.9052 19.3741L76.8207 19.1612C76.7835 19.0733 76.7463 18.9888 76.7057 18.9077C76.6109 18.7168 76.5048 18.5317 76.388 18.3534C76.2832 18.1742 76.1717 18.0154 76.05 17.8328C75.9283 17.6503 75.81 17.4948 75.6816 17.3495C74.8823 16.3938 73.9055 15.6018 72.8052 15.0173L72.5652 14.8956L72.4976 14.8618L72.2205 14.7401C71.6477 14.5 71.0551 14.31 70.4494 14.1723C70.179 14.1115 69.9221 14.0675 69.6821 14.0303C69.4421 13.9932 69.219 13.9729 69.0061 13.9594L68.7154 13.9391H68.4585H68.0462C67.8197 13.9391 67.7082 13.9661 67.7082 13.9661C67.7082 13.9661 68.8101 15.0105 68.5667 17.1197C68.4999 17.5806 68.3866 18.0335 68.2287 18.4717C68.2287 18.4717 69.5131 16.6667 70.5778 17.2447C71.6425 17.8227 71.4701 19.1443 72.9438 19.7594C73.3282 19.918 73.7382 20.005 74.1538 20.0163C75.3436 20.0569 76.2866 19.6006 77.1958 20.6923L77.2364 20.6788Z" fill="#6C00F8"/>
<path opacity="0.1" d="M67.7183 13.9661C67.7183 13.9661 71.122 14.6421 73.559 18.4379C73.8623 18.918 74.0754 19.4495 74.1876 20.0062C75.3774 20.0467 76.3204 19.5904 77.2296 20.6822C77.1992 20.4895 77.162 20.3036 77.1181 20.1177V20.0636C77.0809 19.9251 77.0404 19.7865 76.9964 19.6547L76.9457 19.4992C76.9457 19.4586 76.9119 19.4181 76.8984 19.3775L76.8139 19.1646C76.7767 19.0767 76.7395 18.9922 76.699 18.9111C76.605 18.7199 76.5012 18.5338 76.388 18.3534C76.2832 18.1742 76.1717 18.0154 76.05 17.8328C75.9283 17.6503 75.81 17.4948 75.6816 17.3495C74.8823 16.3938 73.9055 15.6018 72.8052 15.0173L72.5652 14.8956L72.4976 14.8618L72.2205 14.7401C71.6477 14.5 71.0551 14.31 70.4494 14.1723C70.179 14.1115 69.9221 14.0675 69.6821 14.0303C69.4421 13.9932 69.219 13.9729 69.0061 13.9594L68.7154 13.9391H68.4585H68.0462C67.8197 13.9391 67.7082 13.9661 67.7082 13.9661H67.7183Z" fill="black"/>
<path d="M74.573 28.8178C74.5321 28.652 74.4547 28.4975 74.3465 28.3653C74.2384 28.2332 74.1021 28.1268 73.9477 28.0539C73.4733 27.8129 72.9487 27.6873 72.4165 27.6873C71.8844 27.6873 71.3598 27.8129 70.8854 28.0539C70.7254 28.1273 70.585 28.2376 70.4757 28.3756C70.3664 28.5137 70.2914 28.6756 70.2567 28.8482C70.0539 30.5382 69.8646 32.377 69.6821 34.3171C69.7215 34.0926 69.8147 33.881 69.9536 33.7003C70.0925 33.5196 70.273 33.3752 70.4798 33.2794C71.0789 32.9754 71.7413 32.8169 72.4132 32.8169C73.085 32.8169 73.7474 32.9754 74.3465 33.2794C74.558 33.3755 74.742 33.5229 74.8819 33.7083C75.0218 33.8937 75.1131 34.1111 75.1476 34.3407C74.9414 32.1911 74.742 30.1901 74.573 28.8178Z" fill="#455A64"/>
<path d="M72.2205 32.8063C72.9624 32.7594 73.7029 32.9184 74.36 33.266C74.5715 33.362 74.7555 33.5095 74.8954 33.6948C75.0353 33.8802 75.1266 34.0976 75.1611 34.3273C74.9549 32.1911 74.7555 30.1902 74.5865 28.8179C74.5441 28.6508 74.4647 28.4954 74.3541 28.3632C74.2435 28.2309 74.1046 28.1253 73.9477 28.054C73.4746 27.803 72.9452 27.6774 72.4098 27.689L72.3624 27.7228L72.2205 32.8232V32.8063Z" fill="#37474F"/>
<path d="M87.9983 35.4122L89.4686 26.1375C89.4918 26.0434 89.5054 25.9471 89.5092 25.8502C88.894 27.4354 85.852 26.6242 85.852 26.6242L84.429 35.8922C86.19 36.166 87.8496 36.1018 87.9983 35.4122Z" fill="#F28F8F"/>
</svg>
