<svg width="150" height="150" viewBox="0 0 150 150" fill="none" xmlns="http://www.w3.org/2000/svg">
<path d="M134.97 119.547H125.034V119.622H134.97V119.547Z" fill="#EBEBEB"/>
<path d="M99.366 120.363H96.759V120.438H99.366V120.363Z" fill="#EBEBEB"/>
<path d="M124.734 116.763H118.977V116.838H124.734V116.763Z" fill="#EBEBEB"/>
<path d="M28.695 117.267H15.738V117.342H28.695V117.267Z" fill="#EBEBEB"/>
<path d="M33.267 117.267H31.368V117.342H33.267V117.267Z" fill="#EBEBEB"/>
<path d="M67.545 118.533H39.441V118.608H67.545V118.533Z" fill="#EBEBEB"/>
<path d="M71.1 101.34H13.176C12.7217 101.34 12.286 101.16 11.9647 100.838C11.6435 100.517 11.463 100.081 11.463 99.627V18.198C11.467 17.7463 11.6492 17.3144 11.97 16.9964C12.2908 16.6784 12.7243 16.5 13.176 16.5H71.1C71.5543 16.5 71.99 16.6805 72.3113 17.0017C72.6325 17.323 72.813 17.7587 72.813 18.213V99.627C72.813 100.081 72.6325 100.517 72.3113 100.838C71.99 101.16 71.5543 101.34 71.1 101.34ZM13.176 16.56C12.7418 16.5608 12.3257 16.7336 12.0186 17.0406C11.7116 17.3476 11.5388 17.7638 11.538 18.198V99.627C11.5388 100.061 11.7116 100.477 12.0186 100.784C12.3257 101.091 12.7418 101.264 13.176 101.265H71.1C71.5342 101.264 71.9504 101.091 72.2574 100.784C72.5644 100.477 72.7372 100.061 72.738 99.627V18.198C72.7372 17.7638 72.5644 17.3476 72.2574 17.0406C71.9504 16.7336 71.5342 16.5608 71.1 16.56H13.176Z" fill="#EBEBEB"/>
<path d="M135.993 101.34H78.063C77.6089 101.339 77.1737 101.158 76.8526 100.837C76.5315 100.516 76.3508 100.081 76.35 99.627V18.198C76.3547 17.7465 76.5372 17.3151 76.8579 16.9973C77.1785 16.6794 77.6115 16.5008 78.063 16.5H135.993C136.444 16.5016 136.876 16.6807 137.195 16.9985C137.515 17.3164 137.696 17.7473 137.7 18.198V99.627C137.7 100.08 137.52 100.515 137.2 100.836C136.88 101.157 136.446 101.338 135.993 101.34ZM78.063 16.56C77.6288 16.5608 77.2127 16.7336 76.9056 17.0406C76.5986 17.3476 76.4258 17.7638 76.425 18.198V99.627C76.4258 100.061 76.5986 100.477 76.9056 100.784C77.2127 101.091 77.6288 101.264 78.063 101.265H135.993C136.427 101.264 136.843 101.091 137.15 100.784C137.457 100.477 137.63 100.061 137.631 99.627V18.198C137.63 17.7638 137.457 17.3476 137.15 17.0406C136.843 16.7336 136.427 16.5608 135.993 16.56H78.063Z" fill="#EBEBEB"/>
<path d="M150 114.72H0V114.795H150V114.72Z" fill="#EBEBEB"/>
<path d="M123.855 87.828C120.45 90.453 119.466 96.201 119.295 100.251C119.295 100.62 118.695 100.623 118.719 100.251C118.899 95.961 119.877 90.174 123.564 87.33C123.864 87.105 124.143 87.603 123.864 87.828H123.855Z" fill="#F5F5F5"/>
<path d="M115.95 84.9C116.82 84.801 117.549 85.689 117.927 86.34C119.886 89.727 119.127 94.836 118.758 98.472C118.719 98.835 118.143 98.841 118.182 98.472C118.542 94.935 119.199 90.327 117.6 86.967C117.327 86.391 116.742 85.386 115.95 85.467C115.584 85.509 115.587 84.933 115.95 84.891V84.9Z" fill="#E6E6E6"/>
<path d="M113.841 89.5409C117.483 88.6409 117.939 96.7169 118.041 98.4599C118.065 98.8289 117.489 98.8289 117.465 98.4599C117.321 96.1019 117.204 92.7269 115.5 90.8369C115.155 90.4529 114.558 89.9579 114 90.0959C113.935 90.0949 113.872 90.0728 113.821 90.0331C113.77 89.9934 113.733 89.9382 113.716 89.8757C113.699 89.8132 113.702 89.7468 113.726 89.6865C113.749 89.6261 113.792 89.5751 113.847 89.5409H113.841Z" fill="#E6E6E6"/>
<path d="M124.635 93.4589C121.635 91.2299 120.645 97.0889 120.477 98.7779C120.441 99.1439 119.877 99.1469 119.901 98.7779C120.09 96.8609 120.381 93.3779 122.601 92.5859C122.991 92.4587 123.406 92.4263 123.812 92.4915C124.217 92.5567 124.601 92.7177 124.932 92.9609C125.232 93.1799 124.932 93.6809 124.632 93.4589H124.635Z" fill="#E6E6E6"/>
<path d="M112.659 94.518C112.887 94.2762 113.169 94.0911 113.481 93.9776C113.794 93.864 114.129 93.8251 114.459 93.864C116.295 94.164 116.805 96.945 117.084 98.382C117.153 98.745 116.598 98.898 116.529 98.535C116.289 97.293 115.131 92.835 113.073 94.935C113.016 94.9647 112.952 94.9755 112.888 94.9658C112.825 94.9562 112.767 94.9266 112.722 94.8814C112.676 94.8362 112.647 94.7777 112.637 94.7145C112.627 94.6513 112.638 94.5866 112.668 94.53L112.659 94.518Z" fill="#F5F5F5"/>
<path d="M123.504 113.4H114.804C114.019 112.736 113.389 111.909 112.957 110.977C112.525 110.044 112.303 109.028 112.305 108C112.305 105.531 113.694 98.121 113.694 98.121H124.629C124.629 98.121 126 105.543 126 108C126.003 109.028 125.781 110.043 125.349 110.976C124.918 111.909 124.288 112.736 123.504 113.4Z" fill="#EBEBEB"/>
<path d="M124.89 96.3C122.262 96.3 119.691 95.235 119.148 93.9239C118.605 92.6129 120.294 91.5449 122.919 91.5449C123.766 91.5458 124.61 91.6537 125.43 91.866C126.157 91.6414 126.916 91.5331 127.677 91.5449C130.302 91.5449 132.873 92.6099 133.416 93.9239C133.959 95.238 132.273 96.3 129.645 96.3H124.89Z" fill="#F5F5F5"/>
<path d="M107.751 91.2C105.603 91.2 104.73 90.33 105.807 89.256C106.884 88.182 109.491 87.312 111.642 87.312C112.214 87.2934 112.785 87.382 113.325 87.573C114.048 87.4066 114.788 87.3191 115.53 87.312C117.681 87.312 118.551 88.182 117.477 89.256C116.403 90.33 113.79 91.2 111.642 91.2H107.751Z" fill="#F0F0F0"/>
<path d="M127.5 89.265C124.8 89.265 121.5 88.17 120.156 86.817C118.812 85.464 119.901 84.369 122.604 84.369C123.539 84.3783 124.471 84.4899 125.382 84.702C126.061 84.458 126.779 84.345 127.5 84.369C130.2 84.369 133.5 85.467 134.841 86.817C136.182 88.167 135.096 89.265 132.393 89.265H127.5Z" fill="#EBEBEB"/>
<path d="M112.482 86.1C111.132 86.1 110.262 85.551 110.541 84.876C110.82 84.201 112.146 83.652 113.496 83.652C113.887 83.6456 114.277 83.7013 114.651 83.817C115.073 83.7079 115.508 83.6525 115.944 83.652C117.294 83.652 118.164 84.198 117.885 84.876C117.606 85.554 116.283 86.1 114.93 86.1H112.482Z" fill="#F0F0F0"/>
<path d="M110.925 95.8949C109.572 95.8949 108.249 95.3459 107.97 94.6709C107.691 93.9959 108.57 93.4469 109.911 93.4469C110.346 93.4487 110.779 93.5041 111.201 93.6119C111.576 93.4979 111.967 93.4423 112.359 93.4469C113.709 93.4469 115.032 93.9959 115.311 94.6709C115.59 95.3459 114.711 95.8949 113.37 95.8949H110.925Z" fill="#EBEBEB"/>
<path d="M113.433 99.5041C113.58 98.6731 113.682 98.1331 113.682 98.1331H124.617C124.617 98.1331 124.716 98.6731 124.863 99.5041H113.433Z" fill="#F5F5F5"/>
<path d="M112.956 88.056C112.956 88.056 109.956 89.055 109.008 90.705C109.008 90.705 109.158 88.305 112.956 88.056Z" fill="#FAFAFA"/>
<path d="M114.369 84.1321C113.886 84.4114 113.46 84.7787 113.112 85.2151C113.195 84.9328 113.358 84.6805 113.581 84.4884C113.804 84.2963 114.078 84.1726 114.369 84.1321Z" fill="#FAFAFA"/>
<path d="M126 85.215C126 85.215 129.252 86.415 131.253 88.656C131.256 88.656 129.705 85.527 126 85.215Z" fill="#FAFAFA"/>
<path d="M126 92.4541C127.352 93.0151 128.528 93.9289 129.405 95.1001C129.405 95.1001 128.805 92.8531 126 92.4541Z" fill="#E6E6E6"/>
<path d="M111.255 94.104C111.496 94.2305 111.7 94.4165 111.849 94.6444C111.998 94.8723 112.085 95.1345 112.104 95.406C111.707 95.0581 111.413 94.6077 111.255 94.104Z" fill="#FAFAFA"/>
<path d="M132.165 51.627V50.241H92.475V51.627H132.165Z" fill="#F5F5F5"/>
<path d="M103.053 51.63H96.414V54.741H99.735C99.7346 54.5538 99.7712 54.3683 99.8427 54.1952C99.9141 54.0221 100.019 53.8649 100.151 53.7325C100.284 53.6001 100.441 53.4951 100.614 53.4237C100.787 53.3522 100.973 53.3156 101.16 53.316H103.053V51.63Z" fill="#E0E0E0"/>
<path d="M100.053 51.63H95.214V54.741H96.735C96.7346 54.5538 96.7712 54.3683 96.8427 54.1952C96.9141 54.0221 97.0191 53.8649 97.1515 53.7325C97.2839 53.6001 97.4411 53.4951 97.6142 53.4237C97.7873 53.3522 97.9728 53.3156 98.16 53.316H100.053V51.63Z" fill="#F5F5F5"/>
<path d="M121.587 51.63H128.229V54.741H124.908C124.908 54.3631 124.758 54.0006 124.491 53.7334C124.223 53.4661 123.861 53.316 123.483 53.316H121.587V51.63Z" fill="#EBEBEB"/>
<path d="M124.587 51.63H129.429V54.741H127.908C127.908 54.3631 127.758 54.0006 127.491 53.7334C127.223 53.4661 126.861 53.316 126.483 53.316H124.587V51.63Z" fill="#F5F5F5"/>
<path d="M117.069 50.376H120.525C120.836 50.1135 121.087 49.786 121.258 49.4165C121.43 49.047 121.518 48.6444 121.518 48.237C121.518 47.259 120.966 41.436 120.966 41.436H116.628C116.628 41.436 116.076 47.259 116.076 48.237C116.076 48.6444 116.164 49.047 116.336 49.4165C116.507 49.786 116.758 50.1135 117.069 50.376Z" fill="#EBEBEB"/>
<path d="M119.268 46.536C119.253 46.812 119.244 47.034 119.244 47.184C119.244 47.7919 119.376 48.3925 119.632 48.9439C119.888 49.4952 120.261 49.984 120.726 50.376H125.886C126.351 49.984 126.724 49.4952 126.98 48.9439C127.236 48.3925 127.368 47.7919 127.368 47.184C127.368 47.034 127.368 46.812 127.344 46.536H119.268Z" fill="#F5F5F5"/>
<path d="M117.063 46.575C117.061 46.3985 116.992 46.2295 116.868 46.1036C116.744 45.9777 116.576 45.9047 116.4 45.9H112.344C112.166 45.9 111.995 45.9702 111.868 46.0954C111.741 46.2206 111.668 46.3908 111.666 46.569V46.617C111.52 46.571 111.369 46.5467 111.216 46.545C110.553 46.545 110.109 47.061 110.109 47.832C110.109 48.603 110.883 49.119 111.576 49.119C111.646 49.1181 111.717 49.1111 111.786 49.098C111.946 49.5932 112.241 50.0338 112.638 50.37H116.1C116.411 50.1075 116.662 49.78 116.833 49.4105C117.005 49.041 117.093 48.6384 117.093 48.231C117.084 47.97 117.075 47.346 117.063 46.575ZM111.573 48.693C111.105 48.693 110.538 48.312 110.538 47.838C110.538 47.637 110.586 46.98 111.213 46.98C111.366 46.9834 111.518 47.0181 111.657 47.082C111.657 47.613 111.642 48.033 111.642 48.237C111.644 48.3879 111.658 48.5384 111.684 48.687L111.573 48.693Z" fill="#E0E0E0"/>
<path d="M65.625 39.066H45.78V82.557H65.625V39.066Z" fill="#EBEBEB"/>
<path d="M45.78 39.066H25.935V82.557H45.78V39.066Z" fill="#EBEBEB"/>
<path d="M56.679 110.292H63.318V113.4H60C60 113.022 59.8499 112.66 59.5826 112.392C59.3154 112.125 58.9529 111.975 58.575 111.975H56.679V110.292Z" fill="#E0E0E0"/>
<path d="M34.884 110.292H28.242V113.4H31.563C31.563 113.022 31.7131 112.66 31.9804 112.392C32.2476 112.125 32.6101 111.975 32.988 111.975H34.884V110.292Z" fill="#E0E0E0"/>
<path d="M65.625 82.5541H25.935V96.2551H65.625V82.5541Z" fill="#EBEBEB"/>
<path d="M65.625 96.255H25.935V109.956H65.625V96.255Z" fill="#EBEBEB"/>
<path d="M65.625 84.66V83.274H25.935V84.66H65.625Z" fill="#E0E0E0"/>
<path d="M45.783 41.052V39.666H25.938V41.052H45.783Z" fill="#E0E0E0"/>
<path d="M65.628 41.052V39.666H45.783V41.052H65.628Z" fill="#E0E0E0"/>
<path d="M65.625 98.2529V96.8669H25.935V98.2529H65.625Z" fill="#E0E0E0"/>
<path d="M65.625 38.3729H25.242V110.553H66.318V38.3729H65.625ZM64.932 83.3999V95.5889H26.628V83.3999H64.932ZM46.473 82.0139V39.7589H64.932V82.0199L46.473 82.0139ZM45.087 39.7529V82.0199H26.628V39.7589L45.087 39.7529ZM26.628 109.167V96.9809H64.932V109.167H26.628Z" fill="#F5F5F5"/>
<path d="M31.884 110.292H25.242V113.4H28.563C28.563 113.022 28.7131 112.66 28.9804 112.392C29.2476 112.125 29.6101 111.975 29.988 111.975H31.884V110.292Z" fill="#F5F5F5"/>
<path d="M59.679 110.292H66.318V113.4H63C63 113.022 62.8499 112.66 62.5826 112.392C62.3154 112.125 61.9529 111.975 61.575 111.975H59.679V110.292Z" fill="#F5F5F5"/>
<path d="M47.481 90.6001C47.481 90.9365 47.3812 91.2654 47.1943 91.5451C47.0074 91.8248 46.7418 92.0428 46.431 92.1716C46.1201 92.3003 45.7781 92.334 45.4482 92.2684C45.1182 92.2027 44.8151 92.0407 44.5772 91.8029C44.3393 91.565 44.1773 91.2619 44.1117 90.9319C44.0461 90.6019 44.0797 90.2599 44.2085 89.9491C44.3372 89.6383 44.5553 89.3726 44.835 89.1857C45.1147 88.9988 45.4436 88.899 45.78 88.899C46.2311 88.899 46.6638 89.0783 46.9828 89.3973C47.3018 89.7163 47.481 90.1489 47.481 90.6001Z" fill="#E0E0E0"/>
<path d="M47.481 89.4C47.481 89.7364 47.3812 90.0653 47.1943 90.345C47.0074 90.6247 46.7418 90.8428 46.431 90.9715C46.1201 91.1002 45.7781 91.1339 45.4482 91.0683C45.1182 91.0027 44.8151 90.8407 44.5772 90.6028C44.3393 90.3649 44.1773 90.0618 44.1117 89.7318C44.0461 89.4019 44.0797 89.0599 44.2085 88.749C44.3372 88.4382 44.5553 88.1726 44.835 87.9856C45.1147 87.7987 45.4436 87.699 45.78 87.699C46.2311 87.699 46.6638 87.8782 46.9828 88.1972C47.3018 88.5162 47.481 88.9488 47.481 89.4Z" fill="#F5F5F5"/>
<path d="M47.481 104.304C47.4804 104.64 47.3801 104.969 47.1929 105.248C47.0056 105.528 46.7397 105.745 46.4289 105.873C46.118 106.002 45.7761 106.035 45.4463 105.969C45.1166 105.903 44.8138 105.741 44.5762 105.503C44.3386 105.265 44.1769 104.962 44.1115 104.632C44.0461 104.302 44.0799 103.96 44.2088 103.649C44.3376 103.339 44.5556 103.073 44.8353 102.886C45.115 102.7 45.4437 102.6 45.78 102.6C46.0036 102.6 46.2251 102.644 46.4316 102.73C46.6382 102.815 46.8259 102.941 46.9839 103.099C47.1418 103.258 47.2671 103.445 47.3524 103.652C47.4377 103.859 47.4814 104.08 47.481 104.304Z" fill="#E0E0E0"/>
<path d="M47.481 103.104C47.4804 103.44 47.3801 103.769 47.1929 104.048C47.0056 104.328 46.7397 104.545 46.4289 104.673C46.118 104.802 45.7761 104.835 45.4463 104.769C45.1166 104.703 44.8138 104.541 44.5762 104.303C44.3386 104.065 44.1769 103.762 44.1115 103.432C44.0461 103.102 44.0799 102.76 44.2088 102.449C44.3376 102.139 44.5556 101.873 44.8353 101.686C45.115 101.5 45.4437 101.4 45.78 101.4C46.0036 101.4 46.2251 101.444 46.4316 101.53C46.6382 101.615 46.8259 101.741 46.9839 101.899C47.1418 102.058 47.2671 102.245 47.3524 102.452C47.4377 102.659 47.4814 102.88 47.481 103.104Z" fill="#F5F5F5"/>
<path d="M43.533 59.961C43.5399 59.8451 43.523 59.7289 43.4834 59.6198C43.4437 59.5106 43.3822 59.4107 43.3026 59.3262C43.2229 59.2416 43.1268 59.1743 43.0202 59.1282C42.9136 59.0822 42.7986 59.0585 42.6825 59.0585C42.5664 59.0585 42.4514 59.0822 42.3448 59.1282C42.2382 59.1743 42.1421 59.2416 42.0624 59.3262C41.9828 59.4107 41.9213 59.5106 41.8816 59.6198C41.842 59.7289 41.8251 59.8451 41.832 59.961V62.862C41.8449 63.0788 41.9401 63.2826 42.0982 63.4315C42.2563 63.5805 42.4653 63.6635 42.6825 63.6635C42.8997 63.6635 43.1087 63.5805 43.2668 63.4315C43.4249 63.2826 43.5201 63.0788 43.533 62.862V59.961Z" fill="#E0E0E0"/>
<path d="M43.533 58.7609C43.5399 58.645 43.523 58.5289 43.4834 58.4197C43.4437 58.3105 43.3822 58.2106 43.3026 58.1261C43.2229 58.0416 43.1268 57.9742 43.0202 57.9282C42.9136 57.8821 42.7986 57.8584 42.6825 57.8584C42.5664 57.8584 42.4514 57.8821 42.3448 57.9282C42.2382 57.9742 42.1421 58.0416 42.0624 58.1261C41.9828 58.2106 41.9213 58.3105 41.8816 58.4197C41.842 58.5289 41.8251 58.645 41.832 58.7609V61.6619C41.8449 61.8788 41.9401 62.0825 42.0982 62.2315C42.2563 62.3804 42.4653 62.4634 42.6825 62.4634C42.8997 62.4634 43.1087 62.3804 43.2668 62.2315C43.4249 62.0825 43.5201 61.8788 43.533 61.6619V58.7609Z" fill="#F5F5F5"/>
<path d="M49.782 59.961C49.7889 59.8451 49.772 59.7289 49.7324 59.6198C49.6927 59.5106 49.6312 59.4107 49.5516 59.3262C49.4719 59.2416 49.3758 59.1743 49.2692 59.1282C49.1626 59.0822 49.0476 59.0585 48.9315 59.0585C48.8154 59.0585 48.7004 59.0822 48.5938 59.1282C48.4872 59.1743 48.3911 59.2416 48.3114 59.3262C48.2318 59.4107 48.1703 59.5106 48.1306 59.6198C48.091 59.7289 48.0741 59.8451 48.081 59.961V62.862C48.0939 63.0788 48.1891 63.2826 48.3472 63.4315C48.5053 63.5805 48.7143 63.6635 48.9315 63.6635C49.1487 63.6635 49.3577 63.5805 49.5158 63.4315C49.6739 63.2826 49.7691 63.0788 49.782 62.862V59.961Z" fill="#E0E0E0"/>
<path d="M49.782 58.7609C49.7889 58.645 49.772 58.5289 49.7324 58.4197C49.6927 58.3105 49.6312 58.2106 49.5516 58.1261C49.4719 58.0416 49.3758 57.9742 49.2692 57.9282C49.1626 57.8821 49.0476 57.8584 48.9315 57.8584C48.8154 57.8584 48.7004 57.8821 48.5938 57.9282C48.4872 57.9742 48.3911 58.0416 48.3114 58.1261C48.2318 58.2106 48.1703 58.3105 48.1306 58.4197C48.091 58.5289 48.0741 58.645 48.081 58.7609V61.6619C48.0939 61.8788 48.1891 62.0825 48.3472 62.2315C48.5053 62.3804 48.7143 62.4634 48.9315 62.4634C49.1487 62.4634 49.3577 62.3804 49.5158 62.2315C49.6739 62.0825 49.7691 61.8788 49.782 61.6619V58.7609Z" fill="#F5F5F5"/>
<path d="M132.165 64.5809V63.1949H92.475V64.5809H132.165Z" fill="#F5F5F5"/>
<path d="M103.053 64.584H96.414V67.695H99.735C99.7346 67.5077 99.7712 67.3223 99.8427 67.1492C99.9141 66.9761 100.019 66.8189 100.151 66.6865C100.284 66.5541 100.441 66.4491 100.614 66.3776C100.787 66.3062 100.973 66.2696 101.16 66.27H103.053V64.584Z" fill="#E0E0E0"/>
<path d="M100.053 64.584H95.214V67.695H96.735C96.7346 67.5077 96.7712 67.3223 96.8427 67.1492C96.9141 66.9761 97.0191 66.8189 97.1515 66.6865C97.2839 66.5541 97.4411 66.4491 97.6142 66.3776C97.7873 66.3062 97.9728 66.2696 98.16 66.27H100.053V64.584Z" fill="#F5F5F5"/>
<path d="M121.587 64.584H128.229V67.695H124.908C124.908 67.3171 124.758 66.9546 124.491 66.6874C124.223 66.4201 123.861 66.27 123.483 66.27H121.587V64.584Z" fill="#EBEBEB"/>
<path d="M124.587 64.584H129.429V67.695H127.908C127.908 67.3171 127.758 66.9546 127.491 66.6874C127.223 66.4201 126.861 66.27 126.483 66.27H124.587V64.584Z" fill="#F5F5F5"/>
<path d="M113.775 58.941C113.804 57.8533 114.257 56.8198 115.036 56.0608C115.816 55.3017 116.861 54.877 117.95 54.877C119.038 54.877 120.083 55.3017 120.863 56.0608C121.642 56.8198 122.095 57.8533 122.124 58.941V63.258H113.775V58.941Z" fill="#F0F0F0"/>
<path d="M121.119 59.6856C121.533 57.9327 120.447 56.1764 118.694 55.7627C116.942 55.349 115.185 56.4346 114.772 58.1874C114.358 59.9402 115.443 61.6966 117.196 62.1103C118.949 62.524 120.705 61.4384 121.119 59.6856Z" fill="#FAFAFA"/>
<path d="M117.951 56.193C118.77 56.1934 119.559 56.5024 120.161 57.0584C120.762 57.6143 121.132 58.3765 121.197 59.193C121.197 59.109 121.212 59.025 121.212 58.938C121.212 58.0731 120.868 57.2437 120.257 56.6321C119.645 56.0206 118.816 55.677 117.951 55.677C117.086 55.677 116.257 56.0206 115.645 56.6321C115.034 57.2437 114.69 58.0731 114.69 58.938C114.69 59.025 114.69 59.109 114.69 59.193C114.755 58.3739 115.127 57.6096 115.732 57.0533C116.337 56.4969 117.129 56.1897 117.951 56.193Z" fill="#E0E0E0"/>
<path d="M120 58.938H118.287V57.225C118.287 57.1335 118.251 57.0458 118.186 56.9811C118.121 56.9164 118.034 56.88 117.942 56.88C117.851 56.88 117.763 56.9164 117.698 56.9811C117.633 57.0458 117.597 57.1335 117.597 57.225V59.283C117.597 59.3284 117.605 59.3735 117.622 59.4155C117.64 59.4575 117.665 59.4957 117.697 59.5278C117.729 59.56 117.767 59.5854 117.81 59.6026C117.852 59.6198 117.897 59.6284 117.942 59.628H120C120.091 59.628 120.179 59.5917 120.244 59.527C120.309 59.4622 120.345 59.3745 120.345 59.283C120.345 59.1915 120.309 59.1037 120.244 59.039C120.179 58.9743 120.091 58.938 120 58.938Z" fill="#E0E0E0"/>
<path d="M120 59.2859C120.091 59.2859 120.179 59.2496 120.244 59.1849C120.309 59.1202 120.345 59.0324 120.345 58.9409C120.345 58.8494 120.309 58.7617 120.244 58.697C120.179 58.6323 120.091 58.5959 120 58.5959H117.942C117.85 58.5959 117.763 58.6323 117.698 58.697C117.633 58.7617 117.597 58.8494 117.597 58.9409C117.597 59.0324 117.633 59.1202 117.698 59.1849C117.763 59.2496 117.85 59.2859 117.942 59.2859H120Z" fill="#F5F5F5"/>
<path d="M118.296 56.88C118.296 56.7885 118.26 56.7008 118.195 56.6361C118.13 56.5714 118.042 56.535 117.951 56.535C117.859 56.535 117.772 56.5714 117.707 56.6361C117.642 56.7008 117.606 56.7885 117.606 56.88V58.941C117.606 59.0325 117.642 59.1203 117.707 59.185C117.772 59.2497 117.859 59.286 117.951 59.286C118.042 59.286 118.13 59.2497 118.195 59.185C118.26 59.1203 118.296 59.0325 118.296 58.941V56.88Z" fill="#EBEBEB"/>
<path d="M73.554 127.113C105.679 127.113 131.721 125.592 131.721 123.717C131.721 121.841 105.679 120.321 73.554 120.321C41.4292 120.321 15.387 121.841 15.387 123.717C15.387 125.592 41.4292 127.113 73.554 127.113Z" fill="#F5F5F5"/>
<path d="M99.057 115.02H67.65C67.0457 115.026 66.4466 114.908 65.8902 114.672C65.3339 114.436 64.8322 114.088 64.4165 113.649C64.0009 113.21 63.6803 112.69 63.4747 112.122C63.2692 111.554 63.1832 110.949 63.222 110.346L67.302 32.4841C67.38 31.2276 67.9307 30.0472 68.8434 29.1801C69.7561 28.3131 70.9632 27.8236 72.222 27.8101H103.626C104.231 27.8035 104.83 27.9217 105.387 28.1575C105.943 28.3932 106.445 28.7414 106.861 29.1802C107.277 29.6189 107.598 30.1388 107.804 30.7074C108.01 31.2759 108.096 31.8807 108.057 32.4841L103.977 110.346C103.898 111.602 103.347 112.782 102.435 113.649C101.522 114.516 100.316 115.006 99.057 115.02Z" fill="#3D42DD"/>
<path d="M103.464 30.9451H72.057C71.2591 30.9548 70.4943 31.2656 69.9157 31.8152C69.3372 32.3649 68.9876 33.1127 68.937 33.9091L65.007 108.909C64.9822 109.292 65.0366 109.675 65.1669 110.036C65.2972 110.396 65.5005 110.726 65.7641 111.004C66.0277 111.282 66.3459 111.503 66.6988 111.653C67.0517 111.802 67.4317 111.877 67.815 111.873H99.222C100.02 111.863 100.785 111.553 101.363 111.003C101.942 110.453 102.291 109.705 102.342 108.909L106.272 33.9091C106.297 33.5266 106.242 33.1431 106.112 32.7827C105.982 32.4222 105.778 32.0925 105.515 31.8143C105.251 31.536 104.933 31.3152 104.58 31.1656C104.227 31.0161 103.847 30.941 103.464 30.9451Z" fill="#3D42DD"/>
<path opacity="0.8" d="M103.464 30.9451H72.057C71.2591 30.9548 70.4943 31.2656 69.9157 31.8152C69.3372 32.3649 68.9876 33.1127 68.937 33.9091L65.007 108.909C64.9822 109.292 65.0366 109.675 65.1669 110.036C65.2972 110.396 65.5005 110.726 65.7641 111.004C66.0277 111.282 66.3459 111.503 66.6988 111.653C67.0517 111.802 67.4317 111.877 67.815 111.873H99.222C100.02 111.863 100.785 111.553 101.363 111.003C101.942 110.453 102.291 109.705 102.342 108.909L106.272 33.9091C106.297 33.5266 106.242 33.1431 106.112 32.7827C105.982 32.4222 105.778 32.0925 105.515 31.8143C105.251 31.536 104.933 31.3152 104.58 31.1656C104.227 31.0161 103.847 30.941 103.464 30.9451Z" fill="white"/>
<path d="M106.2 27.8101H103.635C104.24 27.8035 104.839 27.9217 105.396 28.1575C105.952 28.3932 106.454 28.7414 106.87 29.1802C107.286 29.6189 107.607 30.1388 107.813 30.7074C108.019 31.2759 108.105 31.8807 108.066 32.4841L103.986 110.346C103.908 111.603 103.357 112.783 102.445 113.65C101.532 114.517 100.325 115.007 99.066 115.02H101.631C102.89 115.007 104.097 114.517 105.01 113.65C105.922 112.783 106.473 111.603 106.551 110.346L110.631 32.4841C110.67 31.8807 110.584 31.2759 110.378 30.7074C110.172 30.1388 109.851 29.6189 109.435 29.1802C109.019 28.7414 108.517 28.3932 107.961 28.1575C107.404 27.9217 106.805 27.8035 106.2 27.8101Z" fill="#3D42DD"/>
<path opacity="0.4" d="M106.2 27.8101H103.635C104.24 27.8035 104.839 27.9217 105.396 28.1575C105.952 28.3932 106.454 28.7414 106.87 29.1802C107.286 29.6189 107.607 30.1388 107.813 30.7074C108.019 31.2759 108.105 31.8807 108.066 32.4841L103.986 110.346C103.908 111.603 103.357 112.783 102.445 113.65C101.532 114.517 100.325 115.007 99.066 115.02H101.631C102.89 115.007 104.097 114.517 105.01 113.65C105.922 112.783 106.473 111.603 106.551 110.346L110.631 32.4841C110.67 31.8807 110.584 31.2759 110.378 30.7074C110.172 30.1388 109.851 29.6189 109.435 29.1802C109.019 28.7414 108.517 28.3932 107.961 28.1575C107.404 27.9217 106.805 27.8035 106.2 27.8101Z" fill="white"/>
<path opacity="0.4" d="M72.054 30.9451L76.32 111.9H87.42L83.154 30.9601H72.054V30.9451Z" fill="white"/>
<path opacity="0.4" d="M89.43 111.885H91.929L87.663 30.9451H85.164L89.43 111.885Z" fill="white"/>
<path d="M73.638 26.445H74.739C74.7748 26.445 74.8091 26.4308 74.8345 26.4055C74.8598 26.3802 74.874 26.3459 74.874 26.31C74.874 26.2742 74.8598 26.2399 74.8345 26.2146C74.8091 26.1893 74.7748 26.175 74.739 26.175H73.638C73.6022 26.175 73.5678 26.1893 73.5425 26.2146C73.5172 26.2399 73.503 26.2742 73.503 26.31C73.503 26.3459 73.5172 26.3802 73.5425 26.4055C73.5678 26.4308 73.6022 26.445 73.638 26.445Z" fill="#3D42DD"/>
<path d="M65.634 35.331C65.703 34.047 65.649 32.676 65.934 31.431C66.57 28.539 69.168 26.559 72.078 26.46C72.249 26.46 72.252 26.184 72.078 26.19C70.8041 26.2179 69.5642 26.6065 68.5022 27.3106C67.4402 28.0147 66.5996 29.0055 66.078 30.168C65.37 31.773 65.478 33.63 65.382 35.346C65.382 35.52 65.643 35.52 65.652 35.346L65.634 35.331Z" fill="#3D42DD"/>
<path d="M90.234 47.0101H83.034C82.7173 47.0136 82.4032 46.9518 82.1116 46.8283C81.8199 46.7049 81.5568 46.5226 81.3388 46.2928C81.1209 46.063 80.9527 45.7906 80.8448 45.4928C80.7369 45.195 80.6917 44.8782 80.712 44.5621L81.09 37.3621C81.1302 36.7037 81.4184 36.0851 81.8966 35.6308C82.3748 35.1766 83.0074 34.9205 83.667 34.9141H90.867C91.1836 34.9105 91.4975 34.9724 91.789 35.0959C92.0806 35.2193 92.3434 35.4017 92.5612 35.6316C92.7789 35.8614 92.9468 36.1338 93.0543 36.4316C93.1618 36.7294 93.2067 37.0462 93.186 37.3621L92.811 44.5621C92.7694 45.2199 92.4807 45.8378 92.0028 46.2918C91.5249 46.7457 90.8931 47.0023 90.234 47.0101Z" fill="white"/>
<path d="M85.638 42.0481C85.1333 41.4956 84.8354 40.7854 84.795 40.0381H84.765C84.465 40.0381 84.255 39.7171 84.276 39.3241C84.297 38.9311 84.549 38.6101 84.84 38.6101H84.915L84.969 38.4181C86.706 38.3251 87.669 37.7521 88.2 37.2841C88.3103 37.5186 88.4689 37.7272 88.6653 37.8963C88.8617 38.0653 89.0916 38.191 89.34 38.2651C89.367 38.3761 89.391 38.4931 89.409 38.6101H89.484C89.784 38.6101 89.997 38.9281 89.976 39.3241C89.955 39.7201 89.7 40.0381 89.409 40.0381H89.379C89.2571 40.7579 88.924 41.4252 88.422 41.9551C88.8325 42.0856 89.2656 42.1296 89.694 42.0841C91.449 41.9821 90.522 38.3731 89.577 37.0801C89.001 36.2881 88.677 35.9191 88.35 36.0661C87.984 35.8651 85.785 34.9591 84.363 37.6261C82.887 40.3951 82.449 42.9151 85.638 42.0481Z" fill="#3D42DD"/>
<path d="M90.471 43.989L88.656 43.41C88.656 43.41 87.087 44.01 86.712 45.51C86.496 44.01 84.99 43.41 84.99 43.41L83.115 43.989C81.99 44.145 81.444 45.108 81.18 46.104C81.3981 46.3875 81.6791 46.6164 82.0009 46.7726C82.3227 46.9288 82.6763 47.008 83.034 47.004H90.234C90.6045 47.0023 90.9703 46.921 91.3067 46.7658C91.6431 46.6105 91.9423 46.3848 92.184 46.104C92.025 45.108 91.578 44.145 90.471 43.989Z" fill="#3D42DD"/>
<path d="M95.445 45.9511C95.4556 45.8093 95.4556 45.6669 95.445 45.5251L96.162 44.9071C96.098 44.6098 95.9972 44.3216 95.862 44.0491L94.941 44.0971C94.7811 43.8705 94.5891 43.6684 94.371 43.4971L94.467 42.5791C94.2028 42.4266 93.9206 42.3077 93.627 42.2251L92.955 42.9001C92.8148 42.881 92.6735 42.8709 92.532 42.8701C92.3885 42.8709 92.2452 42.881 92.103 42.9001L91.524 42.2191C91.219 42.3021 90.925 42.4209 90.648 42.5731V43.5001C90.4117 43.6717 90.1989 43.8734 90.015 44.1001L89.1 44.0521C88.9342 44.3221 88.7994 44.6099 88.698 44.9101L89.349 45.5281C89.3211 45.6686 89.3041 45.811 89.298 45.9541C89.2874 46.0949 89.2874 46.2363 89.298 46.3771L88.584 46.9951C88.6493 47.2921 88.75 47.5802 88.884 47.8531L89.805 47.8051C89.9666 48.0303 90.1584 48.2322 90.375 48.4051L90.282 49.3231C90.5451 49.4757 90.8263 49.5946 91.119 49.6771L91.773 48.9961C91.9132 49.0153 92.0545 49.0253 92.196 49.0261C92.3385 49.0253 92.4808 49.0153 92.622 48.9961L93.204 49.6771C93.5086 49.5931 93.8025 49.4743 94.08 49.3231V48.4051C94.3149 48.232 94.5275 48.0304 94.713 47.8051L95.628 47.8531C95.794 47.5837 95.9279 47.2957 96.027 46.9951L95.4 46.3741C95.4242 46.2343 95.4392 46.0929 95.445 45.9511ZM92.319 46.9141C92.194 46.9165 92.07 46.8929 91.9547 46.8447C91.8394 46.7965 91.7354 46.7248 91.6493 46.6342C91.5632 46.5436 91.497 46.4361 91.4547 46.3185C91.4125 46.2009 91.3952 46.0758 91.404 45.9511C91.4206 45.6916 91.5346 45.4479 91.7231 45.2688C91.9117 45.0897 92.1609 44.9884 92.421 44.9851C92.5449 44.9848 92.6676 45.0101 92.7814 45.0594C92.8951 45.1087 92.9974 45.1809 93.0819 45.2716C93.1664 45.3623 93.2312 45.4695 93.2724 45.5864C93.3135 45.7033 93.3301 45.8275 93.321 45.9511C93.3052 46.2081 93.1935 46.4497 93.0079 46.6281C92.8222 46.8065 92.5764 46.9086 92.319 46.9141Z" fill="#3D42DD"/>
<path opacity="0.4" d="M95.445 45.9511C95.4556 45.8093 95.4556 45.6669 95.445 45.5251L96.162 44.9071C96.098 44.6098 95.9972 44.3216 95.862 44.0491L94.941 44.0971C94.7811 43.8705 94.5891 43.6684 94.371 43.4971L94.467 42.5791C94.2028 42.4266 93.9206 42.3077 93.627 42.2251L92.955 42.9001C92.8148 42.881 92.6735 42.8709 92.532 42.8701C92.3885 42.8709 92.2452 42.881 92.103 42.9001L91.524 42.2191C91.219 42.3021 90.925 42.4209 90.648 42.5731V43.5001C90.4117 43.6717 90.1989 43.8734 90.015 44.1001L89.1 44.0521C88.9342 44.3221 88.7994 44.6099 88.698 44.9101L89.349 45.5281C89.3211 45.6686 89.3041 45.811 89.298 45.9541C89.2874 46.0949 89.2874 46.2363 89.298 46.3771L88.584 46.9951C88.6493 47.2921 88.75 47.5802 88.884 47.8531L89.805 47.8051C89.9666 48.0303 90.1584 48.2322 90.375 48.4051L90.282 49.3231C90.5451 49.4757 90.8263 49.5946 91.119 49.6771L91.773 48.9961C91.9132 49.0153 92.0545 49.0253 92.196 49.0261C92.3385 49.0253 92.4808 49.0153 92.622 48.9961L93.204 49.6771C93.5086 49.5931 93.8025 49.4743 94.08 49.3231V48.4051C94.3149 48.232 94.5275 48.0304 94.713 47.8051L95.628 47.8531C95.794 47.5837 95.9279 47.2957 96.027 46.9951L95.4 46.3741C95.4242 46.2343 95.4392 46.0929 95.445 45.9511ZM92.319 46.9141C92.194 46.9165 92.07 46.8929 91.9547 46.8447C91.8394 46.7965 91.7354 46.7248 91.6493 46.6342C91.5632 46.5436 91.497 46.4361 91.4547 46.3185C91.4125 46.2009 91.3952 46.0758 91.404 45.9511C91.4206 45.6916 91.5346 45.4479 91.7231 45.2688C91.9117 45.0897 92.1609 44.9884 92.421 44.9851C92.5449 44.9848 92.6676 45.0101 92.7814 45.0594C92.8951 45.1087 92.9974 45.1809 93.0819 45.2716C93.1664 45.3623 93.2312 45.4695 93.2724 45.5864C93.3135 45.7033 93.3301 45.8275 93.321 45.9511C93.3052 46.2081 93.1935 46.4497 93.0079 46.6281C92.8222 46.8065 92.5764 46.9086 92.319 46.9141Z" fill="white"/>
<path d="M92.319 46.9141C92.1941 46.9165 92.07 46.8928 91.9547 46.8447C91.8394 46.7965 91.7354 46.7248 91.6493 46.6342C91.5633 46.5436 91.497 46.4361 91.4548 46.3185C91.4125 46.2009 91.3952 46.0758 91.404 45.9511C91.4206 45.6916 91.5346 45.4479 91.7232 45.2688C91.9117 45.0897 92.161 44.9884 92.421 44.9851C92.545 44.9848 92.6676 45.0101 92.7814 45.0594C92.8951 45.1086 92.9974 45.1809 93.0819 45.2716C93.1664 45.3623 93.2313 45.4695 93.2724 45.5864C93.3136 45.7033 93.3301 45.8275 93.321 45.9511C93.3053 46.2081 93.1935 46.4497 93.0079 46.6281C92.8223 46.8065 92.5764 46.9086 92.319 46.9141Z" fill="white"/>
<path d="M86.133 80.211H85.11L85.203 78.453H86.223L86.133 80.211Z" fill="#3D42DD"/>
<path d="M90.786 80.2111H89.766L89.919 77.3131H90.939L90.786 80.2111Z" fill="#3D42DD"/>
<path d="M95.442 80.211H94.422L94.632 76.173H95.655L95.442 80.211Z" fill="#3D42DD"/>
<path d="M100.098 80.211H99.075L99.348 75.036H100.368L100.098 80.211Z" fill="white"/>
<path d="M72.024 80.211H77.214C77.9132 80.204 78.5837 79.9325 79.0908 79.451C79.5979 78.9695 79.9038 78.3139 79.947 77.616C79.9684 77.2811 79.9206 76.9453 79.8063 76.6297C79.6921 76.3141 79.5139 76.0255 79.283 75.7819C79.0521 75.5383 78.7734 75.345 78.4644 75.2141C78.1553 75.0832 77.8226 75.0174 77.487 75.021H72.3C71.6008 75.028 70.9302 75.2996 70.4231 75.781C69.9161 76.2625 69.6102 76.9181 69.567 77.616C69.5455 77.9507 69.5933 78.2862 69.7074 78.6016C69.8214 78.917 69.9993 79.2055 70.2299 79.449C70.4605 79.6926 70.7388 79.8859 71.0475 80.017C71.3562 80.1482 71.6886 80.2142 72.024 80.211Z" fill="white"/>
<path d="M72.267 75.6H77.457C78.0859 75.593 78.6932 75.8295 79.1517 76.2601C79.6103 76.6906 79.8845 77.2819 79.917 77.91C79.932 77.817 79.941 77.721 79.947 77.625C79.9685 77.2901 79.9206 76.9543 79.8063 76.6387C79.6921 76.3231 79.5139 76.0345 79.283 75.7909C79.0521 75.5473 78.7734 75.354 78.4644 75.2231C78.1553 75.0922 77.8226 75.0265 77.487 75.03H72.3C71.6008 75.0371 70.9302 75.3086 70.4231 75.7901C69.9161 76.2715 69.6102 76.9271 69.567 77.625C69.567 77.721 69.567 77.817 69.567 77.91C69.6757 77.27 70.0054 76.6883 70.4988 76.2662C70.9921 75.8441 71.6178 75.6084 72.267 75.6Z" fill="#3D42DD"/>
<path opacity="0.3" d="M72.267 75.6H77.457C78.0859 75.593 78.6932 75.8295 79.1517 76.2601C79.6103 76.6906 79.8845 77.2819 79.917 77.91C79.932 77.817 79.941 77.721 79.947 77.625C79.9685 77.2901 79.9206 76.9543 79.8063 76.6387C79.6921 76.3231 79.5139 76.0345 79.283 75.7909C79.0521 75.5473 78.7734 75.354 78.4644 75.2231C78.1553 75.0922 77.8226 75.0265 77.487 75.03H72.3C71.6008 75.0371 70.9302 75.3086 70.4231 75.7901C69.9161 76.2715 69.6102 76.9271 69.567 77.625C69.567 77.721 69.567 77.817 69.567 77.91C69.6757 77.27 70.0054 76.6883 70.4988 76.2662C70.9921 75.8441 71.6178 75.6084 72.267 75.6Z" fill="white"/>
<path d="M73.9233 79.4214C74.977 78.3946 75.041 76.7512 74.0662 75.7509C73.0914 74.7506 71.4469 74.7721 70.3932 75.799C69.3395 76.8258 69.2756 78.4691 70.2504 79.4694C71.2252 80.4697 72.8696 80.4482 73.9233 79.4214Z" fill="#3D42DD"/>
<path d="M69.099 102.582H68.079L68.202 100.254H69.222L69.099 102.582Z" fill="#3D42DD"/>
<path d="M72.885 102.012H71.865L71.913 101.109H72.933L72.885 102.012Z" fill="#3D42DD"/>
<path d="M76.626 102.297H75.606L75.681 100.824H76.704L76.626 102.297Z" fill="#3D42DD"/>
<path d="M80.397 102.012H79.374L79.422 101.109H80.445L80.397 102.012Z" fill="#3D42DD"/>
<path d="M84.123 102.582H83.1L83.223 100.254H84.243L84.123 102.582Z" fill="#3D42DD"/>
<path d="M87.906 102.012H86.886L86.934 101.109H87.954L87.906 102.012Z" fill="#3D42DD"/>
<path d="M91.647 102.297H90.627L90.705 100.824H91.725L91.647 102.297Z" fill="#3D42DD"/>
<path d="M95.418 102.012H94.398L94.443 101.109H95.466L95.418 102.012Z" fill="#3D42DD"/>
<path d="M99.144 102.582H98.124L98.244 100.254H99.267L99.144 102.582Z" fill="#3D42DD"/>
<g opacity="0.3">
<path opacity="0.3" d="M69.099 102.582H68.079L68.202 100.254H69.222L69.099 102.582Z" fill="black"/>
<path opacity="0.3" d="M72.885 102.012H71.865L71.913 101.109H72.933L72.885 102.012Z" fill="black"/>
<path opacity="0.3" d="M76.626 102.297H75.606L75.681 100.824H76.704L76.626 102.297Z" fill="black"/>
<path opacity="0.3" d="M80.397 102.012H79.374L79.422 101.109H80.445L80.397 102.012Z" fill="black"/>
<path opacity="0.3" d="M84.123 102.582H83.1L83.223 100.254H84.243L84.123 102.582Z" fill="black"/>
<path opacity="0.3" d="M87.906 102.012H86.886L86.934 101.109H87.954L87.906 102.012Z" fill="black"/>
<path opacity="0.3" d="M91.647 102.297H90.627L90.705 100.824H91.725L91.647 102.297Z" fill="black"/>
<path opacity="0.3" d="M95.418 102.012H94.398L94.443 101.109H95.466L95.418 102.012Z" fill="black"/>
<path opacity="0.3" d="M99.144 102.582H98.124L98.244 100.254H99.267L99.144 102.582Z" fill="black"/>
</g>
<path d="M81.24 102.966C81.255 102.708 81.3 101.817 81.315 101.562C81.33 101.307 81.375 100.413 81.387 100.158C81.399 99.9767 81.3734 99.7949 81.3119 99.624C81.2504 99.453 81.1542 99.2966 81.0295 99.1646C80.9047 99.0325 80.7541 98.9276 80.5869 98.8564C80.4197 98.7853 80.2397 98.7494 80.058 98.751C79.6794 98.7556 79.3166 98.9032 79.0422 99.1641C78.7679 99.4251 78.6024 99.7801 78.579 100.158C78.564 100.413 78.519 101.304 78.504 101.562C78.489 101.82 78.444 102.708 78.432 102.966C78.4204 103.147 78.4463 103.329 78.5081 103.499C78.5698 103.67 78.666 103.826 78.7907 103.958C78.9154 104.089 79.0659 104.194 79.2329 104.265C79.3998 104.336 79.5796 104.372 79.761 104.37C80.1391 104.366 80.5016 104.218 80.7758 103.958C81.05 103.698 81.2158 103.343 81.24 102.966Z" fill="#3D42DD"/>
<path d="M71.367 92.721H76.56C77.2589 92.714 77.9291 92.4423 78.4357 91.9608C78.9423 91.4793 79.2476 90.8237 79.29 90.126C79.3119 89.7912 79.2645 89.4555 79.1506 89.1399C79.0367 88.8243 78.8588 88.5357 78.6281 88.292C78.3974 88.0484 78.1189 87.8551 77.81 87.7241C77.5011 87.5932 77.1685 87.5274 76.833 87.531H71.64C70.9408 87.538 70.2702 87.8096 69.7632 88.2911C69.2561 88.7725 68.9502 89.4281 68.907 90.126C68.8855 90.461 68.9334 90.7968 69.0476 91.1124C69.1619 91.4279 69.34 91.7166 69.5709 91.9602C69.8019 92.2037 70.0806 92.397 70.3896 92.528C70.6987 92.6589 71.0314 92.7246 71.367 92.721Z" fill="white"/>
<path d="M71.61 88.101H76.8C77.4286 88.094 78.0356 88.3306 78.4937 88.7613C78.9517 89.1919 79.2253 89.7831 79.257 90.411C79.2731 90.3168 79.2831 90.2216 79.287 90.126C79.3089 89.7912 79.2614 89.4555 79.1475 89.1399C79.0336 88.8243 78.8558 88.5357 78.6251 88.292C78.3944 88.0484 78.1159 87.8551 77.807 87.7241C77.4981 87.5932 77.1655 87.5274 76.83 87.531H71.64C70.9408 87.538 70.2702 87.8096 69.7631 88.2911C69.2561 88.7725 68.9502 89.4281 68.907 90.126C68.907 90.222 68.907 90.318 68.907 90.411C69.0147 89.77 69.3446 89.1872 69.8387 88.7649C70.3329 88.3425 70.9599 88.1075 71.61 88.101Z" fill="#3D42DD"/>
<path opacity="0.3" d="M71.61 88.101H76.8C77.4286 88.094 78.0356 88.3306 78.4937 88.7613C78.9517 89.1919 79.2253 89.7831 79.257 90.411C79.2731 90.3168 79.2831 90.2216 79.287 90.126C79.3089 89.7912 79.2614 89.4555 79.1475 89.1399C79.0336 88.8243 78.8558 88.5357 78.6251 88.292C78.3944 88.0484 78.1159 87.8551 77.807 87.7241C77.4981 87.5932 77.1655 87.5274 76.83 87.531H71.64C70.9408 87.538 70.2702 87.8096 69.7631 88.2911C69.2561 88.7725 68.9502 89.4281 68.907 90.126C68.907 90.222 68.907 90.318 68.907 90.411C69.0147 89.77 69.3446 89.1872 69.8387 88.7649C70.3329 88.3425 70.9599 88.1075 71.61 88.101Z" fill="white"/>
<path d="M74.1 90.126C74.1432 89.4281 74.4491 88.7725 74.9562 88.2911C75.4632 87.8096 76.1338 87.538 76.833 87.531C77.1685 87.5274 77.5011 87.5932 77.81 87.7241C78.1189 87.8551 78.3974 88.0484 78.6281 88.292C78.8588 88.5357 79.0367 88.8243 79.1506 89.1399C79.2645 89.4555 79.3119 89.7912 79.29 90.126C79.2476 90.8237 78.9423 91.4793 78.4357 91.9608C77.9291 92.4423 77.2589 92.714 76.56 92.721C76.2244 92.7246 75.8916 92.6589 75.5826 92.528C75.2736 92.397 74.9949 92.2037 74.7639 91.9602C74.533 91.7166 74.3549 91.4279 74.2406 91.1124C74.1264 90.7968 74.0785 90.461 74.1 90.126Z" fill="#3D42DD"/>
<path d="M71.877 56.4H100.2C100.571 56.3962 100.927 56.2522 101.196 55.9967C101.466 55.7413 101.629 55.3935 101.652 55.023C101.663 54.8454 101.638 54.6674 101.577 54.5C101.516 54.3327 101.422 54.1797 101.299 54.0505C101.177 53.9213 101.029 53.8187 100.865 53.7491C100.701 53.6796 100.525 53.6445 100.347 53.646H72.021C71.6502 53.6499 71.2945 53.7941 71.0257 54.0496C70.7568 54.305 70.5947 54.6529 70.572 55.023C70.56 55.2009 70.5849 55.3793 70.6453 55.547C70.7057 55.7148 70.8001 55.8681 70.9227 55.9975C71.0454 56.1269 71.1935 56.2295 71.3577 56.2988C71.5219 56.368 71.6988 56.4025 71.877 56.4Z" fill="white"/>
<path d="M72.021 54.2551H100.332C100.628 54.2525 100.916 54.3519 101.147 54.5366C101.378 54.7213 101.538 54.98 101.601 55.2691C101.618 55.1909 101.63 55.1117 101.637 55.0321C101.648 54.8544 101.623 54.6764 101.562 54.5091C101.501 54.3418 101.407 54.1887 101.284 54.0595C101.162 53.9303 101.014 53.8278 100.85 53.7582C100.686 53.6886 100.51 53.6535 100.332 53.6551H72.021C71.6501 53.6589 71.2945 53.8031 71.0257 54.0586C70.7568 54.3141 70.5947 54.6619 70.572 55.0321C70.5655 55.1552 70.5776 55.2786 70.608 55.3981C70.6808 55.0765 70.8598 54.7888 71.1162 54.5814C71.3725 54.374 71.6913 54.2591 72.021 54.2551Z" fill="#3D42DD"/>
<path opacity="0.3" d="M72.021 54.2551H100.332C100.628 54.2525 100.916 54.3519 101.147 54.5366C101.378 54.7213 101.538 54.98 101.601 55.2691C101.618 55.1909 101.63 55.1117 101.637 55.0321C101.648 54.8544 101.623 54.6764 101.562 54.5091C101.501 54.3418 101.407 54.1887 101.284 54.0595C101.162 53.9303 101.014 53.8278 100.85 53.7582C100.686 53.6886 100.51 53.6535 100.332 53.6551H72.021C71.6501 53.6589 71.2945 53.8031 71.0257 54.0586C70.7568 54.3141 70.5947 54.6619 70.572 55.0321C70.5655 55.1552 70.5776 55.2786 70.608 55.3981C70.6808 55.0765 70.8598 54.7888 71.1162 54.5814C71.3725 54.374 71.6913 54.2591 72.021 54.2551Z" fill="white"/>
<path d="M78.8181 56.8379C79.872 55.8112 79.9363 54.1679 78.9617 53.1674C77.987 52.1669 76.3426 52.1882 75.2887 53.2148C74.2348 54.2415 74.1706 55.8848 75.1452 56.8853C76.1198 57.8857 77.7643 57.8645 78.8181 56.8379Z" fill="#3D42DD"/>
<path d="M99.705 88.5301C99.7133 88.4011 99.6948 88.2717 99.6508 88.1501C99.6067 88.0286 99.5381 87.9174 99.4491 87.8237C99.3601 87.7299 99.2527 87.6555 99.1336 87.6051C99.0145 87.5548 98.8863 87.5296 98.757 87.5311H90.399C90.1299 87.5343 89.8719 87.639 89.6767 87.8242C89.4815 88.0094 89.3634 88.2615 89.346 88.5301L89.178 91.7221C89.1697 91.8511 89.1882 91.9804 89.2322 92.102C89.2763 92.2236 89.345 92.3347 89.434 92.4285C89.523 92.5223 89.6303 92.5967 89.7494 92.647C89.8685 92.6974 89.9967 92.7226 90.126 92.7211H98.484C98.7531 92.7179 99.0111 92.6132 99.2063 92.4279C99.4015 92.2427 99.5196 91.9906 99.537 91.7221L99.705 88.5301Z" fill="#3D42DD"/>
<path d="M90.369 88.1011H98.727C98.8563 88.0996 98.9845 88.1248 99.1036 88.1751C99.2227 88.2255 99.3301 88.2999 99.4191 88.3937C99.5081 88.4874 99.5767 88.5986 99.6208 88.7201C99.6648 88.8417 99.6833 88.971 99.675 89.1001L99.705 88.5301C99.7133 88.401 99.6948 88.2717 99.6508 88.1501C99.6067 88.0286 99.5381 87.9174 99.4491 87.8237C99.3601 87.7299 99.2527 87.6555 99.1336 87.6051C99.0145 87.5548 98.8863 87.5296 98.757 87.5311H90.399C90.1299 87.5343 89.872 87.639 89.6767 87.8242C89.4815 88.0094 89.3634 88.2615 89.346 88.5301L89.316 89.1001C89.3334 88.8315 89.4515 88.5794 89.6467 88.3942C89.8419 88.209 90.0999 88.1043 90.369 88.1011Z" fill="#3D42DD"/>
<path opacity="0.3" d="M90.369 88.1011H98.727C98.8563 88.0996 98.9845 88.1248 99.1036 88.1751C99.2227 88.2255 99.3301 88.2999 99.4191 88.3937C99.5081 88.4874 99.5767 88.5986 99.6208 88.7201C99.6648 88.8417 99.6833 88.971 99.675 89.1001L99.705 88.5301C99.7133 88.401 99.6948 88.2717 99.6508 88.1501C99.6067 88.0286 99.5381 87.9174 99.4491 87.8237C99.3601 87.7299 99.2527 87.6555 99.1336 87.6051C99.0145 87.5548 98.8863 87.5296 98.757 87.5311H90.399C90.1299 87.5343 89.872 87.639 89.6767 87.8242C89.4815 88.0094 89.3634 88.2615 89.346 88.5301L89.316 89.1001C89.3334 88.8315 89.4515 88.5794 89.6467 88.3942C89.8419 88.209 90.0999 88.1043 90.369 88.1011Z" fill="black"/>
<path d="M94.539 88.5301C94.5473 88.4011 94.5288 88.2717 94.4848 88.1501C94.4407 88.0286 94.3721 87.9174 94.2831 87.8237C94.1941 87.7299 94.0867 87.6555 93.9676 87.6051C93.8485 87.5548 93.7203 87.5296 93.591 87.5311H90.399C90.1299 87.5343 89.8719 87.639 89.6767 87.8242C89.4815 88.0094 89.3634 88.2615 89.346 88.5301L89.178 91.7221C89.1697 91.8511 89.1882 91.9804 89.2322 92.102C89.2763 92.2236 89.345 92.3347 89.434 92.4285C89.523 92.5223 89.6303 92.5967 89.7494 92.647C89.8685 92.6974 89.9967 92.7226 90.126 92.7211H93.318C93.5871 92.7179 93.8451 92.6132 94.0403 92.4279C94.2355 92.2427 94.3536 91.9906 94.371 91.7221L94.539 88.5301Z" fill="white"/>
<path d="M92.322 91.0051H91.302L91.395 89.2471H92.415L92.322 91.0051Z" fill="#3D42DD"/>
<path d="M99.738 64.9471H71.43C71.059 64.9516 70.7034 65.0959 70.4343 65.3511C70.1651 65.6064 70.0021 65.9539 69.978 66.3241C69.9664 66.5018 69.9917 66.68 70.0522 66.8476C70.1127 67.0151 70.2072 67.1683 70.3298 67.2976C70.4523 67.4269 70.6002 67.5294 70.7642 67.5989C70.9283 67.6683 71.1049 67.7031 71.283 67.7011H99.6C99.971 67.6979 100.327 67.554 100.596 67.2984C100.865 67.0427 101.027 66.6945 101.049 66.3241C101.061 66.1458 101.035 65.9671 100.974 65.7991C100.913 65.6312 100.818 65.4777 100.695 65.3483C100.572 65.219 100.423 65.1165 100.259 65.0474C100.094 64.9784 99.9166 64.9442 99.738 64.9471Z" fill="#3D42DD"/>
<path opacity="0.3" d="M71.43 65.5471H99.738C100.034 65.5438 100.321 65.6426 100.552 65.8268C100.784 66.011 100.944 66.2693 101.007 66.5581C101.027 66.4815 101.039 66.4031 101.043 66.3241C101.055 66.1464 101.029 65.9681 100.969 65.8006C100.908 65.6331 100.814 65.4799 100.691 65.3506C100.569 65.2213 100.421 65.1187 100.257 65.0493C100.093 64.9799 99.9161 64.9451 99.738 64.9471H71.43C71.2134 64.9424 70.9986 64.9873 70.802 65.0783C70.6053 65.1693 70.4321 65.304 70.2955 65.4721C70.1589 65.6403 70.0625 65.8374 70.0137 66.0485C69.9649 66.2596 69.965 66.4791 70.014 66.6901C70.0879 66.3685 70.2676 66.0811 70.5244 65.8738C70.7811 65.6665 71.1 65.5515 71.43 65.5471Z" fill="black"/>
<path d="M95.346 68.9191H93.177C92.9825 68.921 92.7897 68.883 92.6104 68.8074C92.4312 68.7319 92.2694 68.6204 92.135 68.4798C92.0006 68.3392 91.8964 68.1725 91.829 67.9901C91.7616 67.8076 91.7323 67.6133 91.743 67.4191L91.857 65.2501C91.8849 64.8454 92.0645 64.4662 92.3598 64.1881C92.6551 63.9101 93.0444 63.7536 93.45 63.7501H95.619C95.8134 63.7481 96.0061 63.7861 96.1851 63.8617C96.3642 63.9373 96.5259 64.0489 96.66 64.1895C96.7942 64.3301 96.8981 64.4969 96.9651 64.6793C97.0322 64.8617 97.0611 65.056 97.05 65.2501L96.936 67.4191C96.9081 67.8232 96.729 68.202 96.4343 68.48C96.1397 68.758 95.7511 68.9147 95.346 68.9191Z" fill="white"/>
<path d="M94.974 67.2031H93.954L94.047 65.4451H95.067L94.974 67.2031Z" fill="#3D42DD"/>
<path d="M50.343 57.168L46.5 61.518C46.8 63.594 47.427 69.618 47.427 69.618C46.851 70.38 45.444 70.164 45.444 70.164C44.2951 67.3026 43.8248 64.2138 44.07 61.14C44.34 58.329 47.946 52.8 50.514 51.24C50.933 50.9864 51.3868 50.7954 51.861 50.673L52.368 50.613L50.568 57.3L50.343 57.168Z" fill="#3D42DD"/>
<path opacity="0.6" d="M50.343 57.168L46.5 61.518C46.8 63.594 47.427 69.618 47.427 69.618C46.851 70.38 45.444 70.164 45.444 70.164C44.2951 67.3026 43.8248 64.2138 44.07 61.14C44.34 58.329 47.946 52.8 50.514 51.24C50.933 50.9864 51.3868 50.7954 51.861 50.673L52.368 50.613L50.568 57.3L50.343 57.168Z" fill="black"/>
<path d="M47.217 70.092L48.147 71.085C48.1772 71.1181 48.2007 71.1568 48.216 71.199L48.762 72.735C48.795 72.8157 48.795 72.9062 48.762 72.987L48.498 73.53C48.4762 73.5751 48.4443 73.6146 48.4048 73.6453C48.3652 73.676 48.3191 73.6971 48.27 73.707L46.371 74.1C46.3284 74.1087 46.2845 74.1088 46.2419 74.1003C46.1992 74.0919 46.1587 74.075 46.1227 74.0507C46.0867 74.0264 46.0558 73.9951 46.032 73.9588C46.0082 73.9224 45.9919 73.8817 45.984 73.839L45.618 71.817C45.6095 71.7764 45.6095 71.7345 45.618 71.694L45.87 70.398C45.8829 70.3334 45.915 70.2742 45.9621 70.2281C46.0092 70.1821 46.0691 70.1514 46.134 70.14L46.923 69.999C46.9759 69.9891 47.0303 69.9924 47.0816 70.0086C47.1329 70.0249 47.1794 70.0535 47.217 70.092Z" fill="#FAB27B"/>
<path d="M48.018 69.8641L45.06 71.2051L45.021 69.7741L47.751 68.7241L48.018 69.8641Z" fill="#3D42DD"/>
<path opacity="0.5" d="M48.018 69.8641L45.06 71.2051L45.021 69.7741L47.751 68.7241L48.018 69.8641Z" fill="white"/>
<path d="M46.872 75.156C45.108 81.456 45.855 90.756 44.886 96.993C44.22 101.289 39.666 115.428 39.666 115.428L43.686 116.646C43.686 116.646 48.702 104.193 49.686 100.482C51.264 94.461 53.634 83.037 53.634 83.037C53.634 83.037 54.519 79.797 54.117 79.437C53.715 79.077 46.872 75.156 46.872 75.156Z" fill="#3D42DD"/>
<path opacity="0.3" d="M51.3 79.4821L54.207 80.4241L53.118 85.5241C53.118 85.5241 53.652 80.6461 51.3 79.4821Z" fill="black"/>
<path d="M40.473 115.245L39.753 117.528L41.703 118.404L42.669 115.98L40.473 115.245Z" fill="#FAB27B"/>
<path opacity="0.2" d="M40.047 116.598L42.105 117.393L42.378 116.706L40.215 116.067L40.047 116.598Z" fill="black"/>
<path d="M39.708 114.177L44.625 115.521L43.734 117.105L39.432 115.836L39.708 114.177Z" fill="#3D42DD"/>
<path opacity="0.5" d="M39.708 114.177L44.625 115.521L43.734 117.105L39.432 115.836L39.708 114.177Z" fill="white"/>
<path d="M42.12 118.716C42.1102 118.709 42.1024 118.699 42.0977 118.688C42.0929 118.677 42.0913 118.665 42.093 118.653C42.0954 118.642 42.1013 118.631 42.1099 118.623C42.1184 118.615 42.1293 118.61 42.141 118.608C42.186 118.608 43.164 118.458 43.506 118.713C43.5384 118.736 43.5659 118.765 43.587 118.798C43.6081 118.832 43.6224 118.869 43.629 118.908C43.6404 118.952 43.6379 118.998 43.6218 119.041C43.6057 119.083 43.5767 119.12 43.539 119.145C43.2893 119.206 43.0259 119.174 42.798 119.055C42.5625 118.962 42.3357 118.849 42.12 118.716ZM42.324 118.716C42.732 118.938 43.311 119.16 43.476 119.052C43.5 119.052 43.527 119.013 43.512 118.929C43.5093 118.905 43.5008 118.881 43.4872 118.861C43.4737 118.841 43.4554 118.824 43.434 118.812C43.4051 118.789 43.3727 118.771 43.338 118.758C43.0061 118.678 42.662 118.661 42.324 118.71V118.716Z" fill="#3D42DD"/>
<path d="M42.093 118.701C42.0877 118.692 42.085 118.682 42.085 118.671C42.085 118.661 42.0877 118.65 42.093 118.641C42.108 118.614 42.411 118.02 42.798 117.894C42.8532 117.875 42.9117 117.867 42.97 117.871C43.0282 117.875 43.085 117.891 43.137 117.918C43.281 117.993 43.299 118.086 43.278 118.152C43.227 118.428 42.48 118.71 42.159 118.725C42.1513 118.728 42.1427 118.728 42.135 118.725C42.1266 118.725 42.1183 118.723 42.111 118.718C42.1036 118.714 42.0975 118.708 42.093 118.701ZM43.053 118.008C42.9844 117.982 42.9086 117.982 42.84 118.008C42.5889 118.143 42.3856 118.353 42.258 118.608C42.609 118.551 43.125 118.308 43.158 118.143C43.158 118.128 43.158 118.086 43.074 118.038H43.041L43.053 118.008Z" fill="#3D42DD"/>
<path d="M42 118.302L39.495 117.321C39.4491 117.302 39.3982 117.3 39.3506 117.314C39.3031 117.328 39.2619 117.358 39.234 117.399L37.983 119.262C37.9296 119.341 37.9094 119.438 37.9268 119.532C37.9442 119.625 37.9978 119.709 38.076 119.763L38.145 119.799C39.045 120.135 39.876 120.399 41.001 120.843C42.327 121.365 41.928 121.392 43.479 122.025C44.415 122.406 45.006 121.404 44.628 121.197C42.894 120.252 42.921 119.625 42.471 118.698C42.3688 118.512 42.2008 118.371 42 118.302Z" fill="#263238"/>
<path d="M58.344 117.105L58.389 119.304L60.516 119.508L60.645 117.105H58.344Z" fill="#FAB27B"/>
<path opacity="0.2" d="M60.591 118.125L60.621 117.549L58.356 117.642L58.371 118.314L60.591 118.125Z" fill="black"/>
<path d="M46.872 75.156C47.538 71.982 50.196 69.156 50.196 69.156L60.396 69.81C60.396 69.81 61.038 76.362 61.188 78.552C61.488 82.974 62.73 89.841 62.763 94.275C62.808 100.275 61.434 116.196 61.434 116.196L57.582 116.652C57.582 116.652 57.639 101.925 57.009 96.372C56.532 92.172 53.658 80.634 53.658 80.634C53.658 80.634 45.759 80.478 46.872 75.156Z" fill="#3D42DD"/>
<path d="M56.916 116.031L62.004 115.719L61.671 117.504L57.189 117.69L56.916 116.031Z" fill="#3D42DD"/>
<path opacity="0.5" d="M56.916 116.031L62.004 115.719L61.671 117.504L57.189 117.69L56.916 116.031Z" fill="white"/>
<path d="M60.978 119.661C60.9662 119.658 60.9556 119.652 60.9476 119.643C60.9395 119.633 60.9344 119.622 60.933 119.61C60.9307 119.599 60.9324 119.587 60.9378 119.576C60.9433 119.566 60.9522 119.558 60.963 119.553C61.002 119.532 61.881 119.073 62.286 119.205C62.3622 119.226 62.4269 119.277 62.466 119.346C62.4918 119.384 62.5056 119.428 62.5056 119.474C62.5056 119.519 62.4918 119.564 62.466 119.601C62.2499 119.743 61.9892 119.799 61.734 119.76C61.4796 119.749 61.2267 119.715 60.978 119.661ZM61.17 119.589C61.626 119.664 62.247 119.685 62.37 119.529C62.388 119.511 62.403 119.475 62.37 119.403C62.3596 119.381 62.3442 119.361 62.3249 119.346C62.3056 119.331 62.283 119.321 62.259 119.316C62.2232 119.304 62.1857 119.298 62.148 119.298C61.8063 119.331 61.4742 119.43 61.17 119.589Z" fill="#3D42DD"/>
<path d="M60.945 119.655C60.9372 119.648 60.9311 119.64 60.9269 119.631C60.9228 119.621 60.9207 119.611 60.921 119.601C60.921 119.571 61.02 118.911 61.344 118.665C61.3896 118.629 61.4422 118.603 61.4985 118.588C61.5547 118.573 61.6134 118.569 61.671 118.578C61.83 118.599 61.878 118.683 61.881 118.749C61.923 119.028 61.311 119.541 61.011 119.649C61.0073 119.651 61.0032 119.652 60.999 119.652C60.9948 119.652 60.9906 119.651 60.987 119.649C60.9807 119.653 60.9738 119.655 60.9666 119.656C60.9594 119.657 60.952 119.657 60.945 119.655ZM61.629 118.686C61.5544 118.683 61.4812 118.707 61.422 118.752C61.2307 118.957 61.1063 119.216 61.065 119.493C61.365 119.325 61.785 118.923 61.776 118.755C61.776 118.74 61.776 118.698 61.662 118.686H61.629Z" fill="#3D42DD"/>
<path d="M60.738 119.307L58.038 119.199C57.9886 119.197 57.94 119.212 57.9002 119.242C57.8605 119.271 57.8318 119.313 57.819 119.361L57.246 121.53C57.2338 121.576 57.2306 121.623 57.2368 121.67C57.243 121.717 57.2584 121.762 57.2821 121.803C57.3058 121.844 57.3373 121.88 57.3749 121.909C57.4124 121.938 57.4553 121.959 57.501 121.971C57.5259 121.974 57.5511 121.974 57.576 121.971C58.545 121.992 59.409 121.971 60.618 122.022C62.04 122.079 61.674 122.235 63.348 122.322C64.356 122.376 64.584 121.236 64.161 121.164C62.211 120.84 62.031 120.24 61.305 119.511C61.1462 119.378 60.9452 119.306 60.738 119.307Z" fill="#263238"/>
<path d="M57.549 48.0841C57.372 48.6511 56.928 49.6081 57.549 50.4631L54.486 50.1631C54.486 50.1631 54.813 47.9041 55.002 47.1631C55.125 46.6861 55.284 46.1671 56.895 46.6171C57.819 46.8841 57.669 47.7001 57.549 48.0841Z" fill="#FAB27B"/>
<path d="M54.786 47.247C53.1 45.945 49.536 42.417 52.956 39.336C55.803 36.771 58.419 38.271 59.31 40.005C60.309 41.946 62.574 47.133 57.549 48.084C56.625 48.258 55.662 47.922 54.786 47.247Z" fill="#FAB27B"/>
<path d="M52.377 50.265C52.377 50.265 54.741 48.189 59.232 50.928L59.169 51.57L52.419 50.916L52.377 50.265Z" fill="#3D42DD"/>
<path opacity="0.5" d="M52.377 50.265C52.377 50.265 54.741 48.189 59.232 50.928L59.169 51.57L52.419 50.916L52.377 50.265Z" fill="white"/>
<path opacity="0.1" d="M56.904 47.472C56.904 48.165 57.117 48.525 57.366 48.705C57.4123 48.494 57.4734 48.2865 57.549 48.084C56.946 47.82 56.904 47.472 56.904 47.472Z" fill="black"/>
<path d="M58.704 50.8471C57.7319 50.6395 56.7495 50.4833 55.761 50.3791C54.021 50.1751 52.692 50.0401 51.732 50.4631C50.202 51.1381 50.007 51.5701 50.007 51.5701L50.307 56.5291C50.5456 58.9216 50.5888 61.3295 50.436 63.7291C50.436 63.7501 50.316 68.4541 47.775 70.9801C48.8313 71.8369 50.082 72.421 51.417 72.6811L52.851 69.2491L53.304 72.8491C53.304 72.8491 58.467 74.3791 62.727 72.9661C62.727 72.9661 60.396 69.2401 61.146 65.4301C61.509 63.5971 61.773 62.7301 61.977 61.2901C62.0946 60.5135 62.0946 59.7236 61.977 58.9471L61.02 52.4071C61.02 52.4071 59.328 51.0001 58.704 50.8471Z" fill="#3D42DD"/>
<path opacity="0.6" d="M58.704 50.8471C57.7319 50.6395 56.7495 50.4833 55.761 50.3791C54.021 50.1751 52.692 50.0401 51.732 50.4631C50.202 51.1381 50.007 51.5701 50.007 51.5701L50.307 56.5291C50.5456 58.9216 50.5888 61.3295 50.436 63.7291C50.436 63.7501 50.316 68.4541 47.775 70.9801C48.8313 71.8369 50.082 72.421 51.417 72.6811L52.851 69.2491L53.304 72.8491C53.304 72.8491 58.467 74.3791 62.727 72.9661C62.727 72.9661 60.396 69.2401 61.146 65.4301C61.509 63.5971 61.773 62.7301 61.977 61.2901C62.0946 60.5135 62.0946 59.7236 61.977 58.9471L61.02 52.4071C61.02 52.4071 59.328 51.0001 58.704 50.8471Z" fill="black"/>
<path d="M61.671 63.147C61.794 62.484 61.902 61.86 61.971 61.305C62.0886 60.5285 62.0886 59.7386 61.971 58.962L60.6 57.42C60.6 57.42 61.92 59.274 61.671 63.147Z" fill="black"/>
<path d="M73.914 56.1L74.862 53.4C74.8804 53.3456 74.9191 53.3004 74.97 53.274L76.455 52.515C76.4953 52.4959 76.5402 52.4888 76.5844 52.4947C76.6286 52.5005 76.6701 52.519 76.704 52.548L77.763 53.478C77.8048 53.515 77.8312 53.5665 77.8367 53.6221C77.8423 53.6777 77.8267 53.7334 77.793 53.778L76.698 55.218C76.6856 55.2346 76.6755 55.2527 76.668 55.272C76.584 55.485 76.02 56.832 74.82 57.168L74.775 57.186L74.373 57.399C74.3241 57.4288 74.2657 57.4385 74.2098 57.4262C74.1539 57.4139 74.1049 57.3805 74.073 57.333L73.56 56.616C73.5406 56.5892 73.5275 56.5584 73.5216 56.5259C73.5156 56.4934 73.517 56.4599 73.5256 56.428C73.5343 56.3961 73.5499 56.3665 73.5714 56.3414C73.5929 56.3163 73.6198 56.2964 73.65 56.283L73.785 56.22C73.814 56.2107 73.8406 56.1951 73.8629 56.1744C73.8852 56.1536 73.9027 56.1282 73.914 56.1Z" fill="#FAB27B"/>
<path d="M58.677 50.844C60.4739 51.2874 62.0498 52.3657 63.114 53.88C64.4494 55.5658 65.9576 57.1072 67.614 58.479C67.614 58.479 71.082 57.741 73.269 55.848L74.553 57.765C74.553 57.765 69.285 61.737 67.14 61.53C65.31 61.353 61.974 58.971 61.974 58.971L60.6 57.429L58.677 50.844Z" fill="#3D42DD"/>
<path opacity="0.6" d="M58.677 50.844C60.4739 51.2874 62.0498 52.3657 63.114 53.88C64.4494 55.5658 65.9576 57.1072 67.614 58.479C67.614 58.479 71.082 57.741 73.269 55.848L74.553 57.765C74.553 57.765 69.285 61.737 67.14 61.53C65.31 61.353 61.974 58.971 61.974 58.971L60.6 57.429L58.677 50.844Z" fill="black"/>
<path d="M73.389 55.608L75.315 57.999L74.025 58.341L72.489 56.094L73.389 55.608Z" fill="#3D42DD"/>
<path opacity="0.5" d="M73.389 55.608L75.315 57.999L74.025 58.341L72.489 56.094L73.389 55.608Z" fill="white"/>
<path d="M60.561 44.151V45.081L61.188 44.994L60.561 44.151Z" fill="#E07F50"/>
<path d="M55.644 49.719C54.201 49.866 49.944 49.95 50.451 46.827C50.958 43.704 50.268 42.156 51.591 39.957C52.914 37.758 55.671 37.116 58.152 37.767C60.219 38.307 60.387 39.753 59.826 40.623C59.265 41.493 59.013 41.655 59.112 42.273C59.211 42.891 58.836 43.236 58.674 43.527C58.4955 43.7368 58.2691 43.9004 58.014 44.004C57.9025 44.611 57.9406 45.2361 58.125 45.825C58.425 46.968 59.037 49.368 55.644 49.719Z" fill="black"/>
<path d="M57.564 37.8001C58.2576 37.872 58.933 38.0659 59.559 38.3731C60.048 38.6251 60.537 39.0001 60.648 39.5731C60.807 40.3981 60.168 41.1811 59.661 41.7511C59.58 41.8441 59.736 41.9521 59.814 41.8621C60.714 40.8541 61.41 39.4381 60.09 38.4721C59.3397 37.9793 58.4769 37.6841 57.582 37.6141C57.5573 37.6117 57.5327 37.6192 57.5136 37.635C57.4945 37.6507 57.4824 37.6734 57.48 37.6981C57.4776 37.7227 57.4851 37.7474 57.5009 37.7665C57.5166 37.7856 57.5393 37.7977 57.564 37.8001Z" fill="black"/>
<path d="M51.6 39.939C50.649 41.172 50.604 42.783 50.4 44.253C50.265 45.291 49.095 47.316 49.923 48.294C50.001 48.387 50.151 48.27 50.073 48.177C49.506 47.508 50.073 46.524 50.265 45.831C50.4465 45.1497 50.57 44.4542 50.634 43.752C50.763 42.495 50.934 41.091 51.741 40.053C51.816 39.957 51.663 39.843 51.588 39.939H51.6Z" fill="black"/>
<path d="M59.916 42.381C59.898 42.42 59.931 42.351 59.937 42.342C59.9554 42.3061 59.9786 42.2728 60.006 42.243C60.0472 42.1932 60.1024 42.1569 60.1644 42.1388C60.2264 42.1206 60.2924 42.1214 60.354 42.141C60.468 42.168 60.516 41.994 60.402 41.967C60.2661 41.9336 60.1226 41.9527 60.0002 42.0206C59.8778 42.0884 59.7856 42.2 59.742 42.333C59.697 42.438 59.871 42.486 59.916 42.381Z" fill="black"/>
<path d="M59.178 43.7491C59.37 44.3251 59.178 44.9071 58.767 45.0481C58.356 45.1891 57.867 44.8351 57.657 44.2561C57.447 43.6771 57.657 43.0981 58.068 42.9571C58.479 42.8161 58.983 43.1701 59.178 43.7491Z" fill="#FAB27B"/>
<path d="M60.6 42.3C60.573 42.516 60.363 42.561 60.255 42.579C60.147 42.597 60.138 42.72 60.159 42.879C60.18 43.038 60.255 43.152 60.327 43.14C60.399 43.128 60.444 42.999 60.426 42.84C60.4184 42.7969 60.4063 42.7547 60.39 42.714C60.729 42.51 60.6 42.3 60.6 42.3Z" fill="black"/>
</svg>
