<svg width="249" height="166" viewBox="0 0 249 166" fill="none" xmlns="http://www.w3.org/2000/svg">
<path d="M0.77348 164.198C0.345598 164.198 0 164.56 0 165.012C0 165.465 0.345598 165.827 0.77348 165.827H247.571C248.016 165.827 248.378 165.473 248.378 165.029C248.378 165.021 248.378 165.012 248.378 165.012C248.386 164.56 248.024 164.198 247.571 164.198H0.77348Z" fill="#F26D0A"/>
<path d="M130.2 78.2017L128.85 76.2515L126.48 76.2598C126.217 76.2598 126.061 75.9471 126.225 75.7331L127.657 73.857L126.925 71.6024C126.842 71.3473 127.089 71.1087 127.344 71.1992L129.574 71.9809L131.483 70.5903C131.705 70.4257 132.01 70.5903 132.002 70.8536L131.944 73.2234L133.861 74.6058C134.083 74.7704 134.026 75.1078 133.763 75.1818L131.5 75.8648L130.776 78.1112C130.693 78.3745 130.348 78.4239 130.2 78.2017Z" fill="#F47458"/>
<path d="M192.638 35.3144L193.888 32.4261L192.218 29.7601C192.029 29.4556 192.267 29.0607 192.621 29.0936L195.756 29.3898L197.772 26.9789C198.003 26.6991 198.447 26.8061 198.529 27.1599L199.212 30.2291L202.133 31.4058C202.471 31.5375 202.504 31.99 202.199 32.1793L199.484 33.7838L199.27 36.9189C199.253 37.281 198.826 37.4538 198.554 37.2151L196.192 35.1333L193.14 35.8986C192.794 35.9891 192.498 35.6435 192.638 35.3144Z" fill="#F7CC7F"/>
<path d="M29.7048 114.711L28.1002 111.65L24.6689 111.231C24.2822 111.181 24.1176 110.704 24.3891 110.424L26.8083 107.956L26.1418 104.566C26.0678 104.179 26.471 103.874 26.8248 104.047L29.9187 105.586L32.9386 103.907C33.2842 103.718 33.6956 104.006 33.638 104.393L33.1361 107.808L35.6622 110.161C35.9502 110.433 35.8021 110.918 35.4154 110.984L32.0087 111.56L30.5523 114.687C30.3877 115.049 29.8858 115.057 29.7048 114.711Z" fill="#9BC1F9"/>
<path d="M212.617 41.124L212.658 42.8026L209.975 43.1647L209.728 45.6168L207.762 46.2175L208.066 47.2131L210.691 46.4067L210.93 44.0863L213.719 43.7078L213.662 41.1899L212.617 41.124Z" fill="#466EB6"/>
<path d="M64.9804 20.9803L65.5153 12.1676C65.5647 11.4352 66.2065 10.8922 66.9388 10.9744L67.8111 11.0732C68.5352 11.1555 69.0453 11.822 68.9301 12.5461L67.5231 21.2683L64.9804 20.9803ZM63.9025 23.992C64.0424 22.8976 65.0956 22.0994 66.19 22.2475C67.3338 22.4121 67.9921 23.3337 67.8851 24.4939C67.7535 25.6541 66.873 26.4358 65.6716 26.3042C64.4456 26.1643 63.7379 25.1769 63.9025 23.992Z" fill="#F48C7F"/>
<path d="M58.3072 68.3768C58.3648 70.5573 58.9325 75.2558 63.8861 76.0293C66.9718 76.5148 70.9132 73.7418 70.6581 71.7175C70.4031 69.6851 69.8435 64.5094 66.6262 63.3244C63.9355 62.337 58.1755 63.4972 58.3072 68.3768Z" fill="#184655"/>
<path d="M99.6884 139.068C100.388 142.014 100.939 146.26 101.145 146.498C101.244 146.613 101.449 147.354 101.548 147.477C104.749 148.646 107.563 147.436 109.801 146.12C108.049 145.807 105.695 145.486 105.366 145.256C104.148 144.392 104.436 141.339 104.222 138.591C103.358 138.747 101.252 138.196 99.6884 139.068Z" fill="#F7A491"/>
<path d="M101.079 146.334C101.104 147.494 101.852 149.979 102.083 149.979C102.354 149.971 111.982 149.139 112.895 147.667C113.438 146.778 111.957 146.539 109.801 146.12C107.563 147.436 101.351 147.058 101.079 146.334Z" fill="#466EB6"/>
<path d="M53.9789 145.643C51.749 147.387 49.5026 148.778 49.2146 148.918C49.0829 148.975 48.3094 148.975 48.1696 149.041C46.1865 151.814 46.5897 154.85 47.2644 157.352C48.0379 155.747 48.9348 153.509 49.2886 153.312C49.8399 152.991 51.8477 151.806 55.4518 150.341C54.234 149.016 54.3985 147.379 53.9789 145.643Z" fill="#F7A491"/>
<path d="M59.0477 84.1094L52.1686 96.6167C52.1686 96.6167 47.5689 102.41 45.1991 105.38C45.7093 106.211 46.203 107.067 46.6473 107.947C49.0007 105.948 54.0118 101.694 55.8056 99.3404C58.447 95.8762 63.236 87.6312 63.236 87.6312L59.0477 84.1094Z" fill="#F7A491"/>
<path d="M77.3397 105.891L69.9834 116.744C69.9834 116.744 69.5637 116.012 72.1969 116.983C74.83 117.945 91.8219 121.113 92.834 122.315C93.5416 123.162 98.8161 139.833 99.8282 141.973C101.359 142.598 103.58 141.907 105.152 141.685C105.251 133.654 100.997 119.032 99.8611 117.32C97.3267 113.486 85.2555 109.347 79.8165 107.026C78.936 106.648 78.253 106.31 77.8252 106.105C77.5125 105.956 77.3397 105.891 77.3397 105.891Z" fill="#3C8F7C"/>
<path d="M49.0993 148.942C47.972 148.654 45.6763 148.662 45.6187 148.884C45.5446 149.147 43.7673 158.643 44.9522 159.919C45.6598 160.676 46.277 159.31 47.2644 157.351C46.5897 154.85 48.3259 149.008 49.0993 148.942Z" fill="#466EB6"/>
<path d="M75.4142 113.527C75.4718 112.712 77.2162 107.956 77.8334 106.104C77.858 106.039 77.3972 104.969 76.9035 103.43L76.1959 103.545L65.7374 104.014C65.7374 104.014 61.5244 111.132 62.0182 114.399C62.7011 118.966 69.3004 135.192 68.2965 135.958C66.4862 137.332 57.6077 142.474 53.0491 145.535C53.3453 147.296 54.1599 149.765 55.279 151.172C58.9901 149.88 75.0192 143.421 76.6731 138.459C78.1296 134.081 75.299 114.917 75.4142 113.527Z" fill="#50BFA5"/>
<path d="M75.2414 73.5359C75.2414 73.5359 72.3614 78.0615 70.6581 78.2261L76.6731 83.7804C76.6731 83.7804 80.7627 77.6419 81.1906 76.5969C81.1906 76.5969 77.4631 73.2725 75.2414 73.5359Z" fill="#F7CC7F"/>
<path d="M77.348 100.887C77.0765 103.381 77.8417 106.104 77.8417 106.104C75.4308 106.623 66.8649 107.717 64.7666 105.166C64.6925 105.076 67.7371 99.7108 67.3174 97.522C66.7003 94.2882 64.0178 88.808 63.7956 88.52C63.4171 88.0263 62.0512 90.5771 62.0512 90.5771C60.4466 90.5854 56.7603 86.8496 56.7603 86.8496C56.7603 86.8496 60.5701 80.2174 61.6151 79.5921C62.6601 78.9749 71.3165 78.0287 71.3247 78.0287C71.9583 77.9875 73.6945 79.4933 74.18 79.9706C79.6438 85.4261 78.1709 93.2432 77.348 100.887Z" fill="#FAE0B2"/>
<path d="M66.4451 75.2477C66.4451 75.2477 67.3831 78.3663 67.3913 79.6335C67.3996 80.9007 67.9015 82.6205 70.5593 82.3572C73.2171 82.1021 71.0366 79.4278 70.6581 78.2265C70.2878 77.0169 69.8352 73.2235 69.8352 73.2235L66.4451 75.2477Z" fill="#F7A491"/>
<path d="M70.0821 75.1243C69.934 74.0875 69.8352 73.2235 69.8352 73.2235L66.4451 75.2477C66.4451 75.2477 66.6343 75.8813 66.8483 76.7042C68.4364 76.8523 69.5061 76.1611 70.0821 75.1243Z" fill="#F47458"/>
<path d="M63.6804 65.8422C63.6804 65.8422 62.2815 66.8132 61.9277 68.6564C61.5657 70.4913 62.6601 75.0335 66.6015 75.7411C70.5512 76.457 71.8349 72.6472 70.7487 69.8824C69.6625 67.1094 67.5725 63.6864 63.6804 65.8422Z" fill="#F7A491"/>
<path d="M71.1107 68.7222C71.1189 69.4957 70.7569 70.1293 70.3043 70.1293C69.8517 70.1293 69.4897 69.5039 69.4814 68.7304C69.4814 67.9651 69.8435 67.3315 70.2878 67.3315C70.7404 67.3315 71.1107 67.9569 71.1107 68.7222Z" fill="#F7A491"/>
<path d="M63.6392 72.5732C64.1576 73.1986 64.2399 73.9886 63.8202 74.3342C63.4006 74.688 62.6353 74.4658 62.1169 73.8487C61.5985 73.2233 61.5162 72.4334 61.9359 72.0795C62.3555 71.7339 63.1208 71.9561 63.6392 72.5732Z" fill="#F7A491"/>
<path d="M59.6402 64.1059C59.7965 61.9912 61.2941 54.1083 56.4722 53.3595C51.6503 52.6189 50.6217 57.8851 47.9475 50.7922C45.4707 44.2258 38.1144 46.7684 37.8017 51.7549C37.1105 51.6973 36.3946 51.796 35.7116 52.084C33.3501 53.0797 32.2886 55.9103 33.3418 58.4035C33.5064 58.7985 33.4159 59.1852 33.6545 59.5144C33.095 61.6867 33.4817 64.1717 35.1603 66.6979C39.7354 73.5851 44.3351 66.3276 47.4291 66.7143C50.523 67.1011 48.507 69.5285 51.1895 71.4128C53.872 73.3054 56.0361 72.8117 60.3972 67.6524L61.4751 66.2371C61.4751 66.2371 59.4838 66.2289 59.6402 64.1059Z" fill="#184655"/>
<path d="M195.147 124.133C197.558 123.162 199.722 121.854 199.977 121.722C200.175 121.615 200.998 121.014 201.113 120.924C203.244 122.191 204.026 123.269 205.696 124.964C204.462 125.03 203.935 124.018 203.458 124.116C202.882 124.248 201.072 125.458 198.249 127.647C197.756 126.067 196.332 125.268 195.147 124.133Z" fill="#F8A492"/>
<path d="M160.941 148.893C161.493 151.436 162.497 153.699 162.62 153.962C162.678 154.085 163.056 154.184 163.114 154.307C161.509 156.2 160.818 159.343 158.868 160.717C159.008 159.483 159.839 157.163 159.814 156.677C159.781 156.085 158.884 154.102 157.197 150.95C158.843 150.728 159.625 149.872 160.941 148.893Z" fill="#F8A492"/>
<path d="M161.962 154.48C162.176 153.928 162.9 153.55 163.41 153.871C163.928 154.2 164.62 154.562 165.13 154.916C165.714 155.319 165.755 155.763 165.739 155.87C165.697 156.166 158.868 164.148 157.987 164.263C157.115 164.379 158.736 157.623 159.691 156.932C160.546 156.315 160.974 156.948 161.962 154.48Z" fill="#3C8F7C"/>
<path d="M200.907 121.722C200.405 121.409 200.167 120.636 200.578 120.183C200.99 119.739 201.467 119.122 201.911 118.677C202.405 118.183 202.858 118.225 202.956 118.258C203.236 118.348 209.868 126.494 209.827 127.383C209.786 128.263 203.434 125.457 202.915 124.396C202.463 123.442 203.162 123.137 200.907 121.722Z" fill="#3C8F7C"/>
<path d="M163.558 119.122C163.558 119.122 177.028 137.274 179.373 137.438C181.562 137.595 198.546 128.124 198.546 128.124L196.34 123.236L182.739 128.124L173.268 110.202L163.558 119.122Z" fill="#B75742"/>
<path d="M171.309 103.784C171.309 103.784 173.778 104.376 175.185 108.128C176.592 111.889 174.239 115.007 168.331 120.455C162.587 125.754 156.901 130.732 156.901 130.732L161.567 149.929L157.691 153.221C157.691 153.221 148.714 133.711 148.45 129.07C148.352 127.293 162.151 106.721 162.151 106.721L171.309 103.784Z" fill="#F47458"/>
<path d="M160.892 80.2916L153.379 84.4881L147.43 87.3434C147.43 87.3434 145.982 82.4063 146.467 79.9871C146.541 79.6415 146.879 79.2301 147.002 79.049C147.981 77.5761 145.891 75.2886 145.891 75.2886C145.891 75.2886 144.624 74.9266 143.768 77.0166C142.904 79.0984 144.493 79.9871 144.493 79.9871C144.493 79.9871 142.682 86.2901 143.439 90.8899C143.843 93.3008 149.858 91.5317 154.663 89.4581C158.695 87.7137 161.666 85.7635 161.666 85.7635L160.892 80.2916Z" fill="#F7A491"/>
<path d="M162.579 79.5673C162.422 79.4192 162.159 79.3286 161.731 79.4932C160.801 79.8388 151.791 84.7842 151.791 84.7842C151.791 84.7842 152.598 89.1206 154.712 90.4454L159.255 89.063L162.727 80.2832C162.826 80.0363 162.776 79.7483 162.579 79.5673Z" fill="#3C8F7C"/>
<path d="M183.331 61.0534C179.908 58.9551 175.646 59.3583 173.103 62.1724C171.013 61.3907 168.619 61.4483 166.677 62.3535C162.85 64.1473 159.469 68.8129 162.349 72.1948C161.74 76.6958 164.43 79.3042 167.779 79.6087C169.598 83.2621 176.057 83.6324 179.777 80.629C182.846 81.8139 186.491 81.3037 188.762 79.082C189.305 78.5554 190.103 77.6996 190.284 77.6256C190.07 77.7326 198.842 76.5723 198.439 68.8375C198.036 60.9464 188.589 57.9183 183.331 61.0534Z" fill="#FE875E"/>
<path d="M167.787 78.9668L173.35 79.2795L172.428 87.0554C172.428 87.0554 169.746 94.5434 170.84 98.1475C171.935 101.752 172.988 104.368 172.988 104.368C172.988 104.368 169.82 108.013 160.933 107.265C160.933 107.265 161.057 100.805 160.933 98.8551C160.818 96.8967 158.547 88.7505 158.859 86.9155C159.172 85.0723 161.131 79.9871 161.641 79.5592C162.151 79.1231 164.167 78.9092 164.167 78.9092L167.787 78.9668Z" fill="#50BFA5"/>
<path d="M168.051 74.6963C168.051 74.6963 167.952 75.3216 167.862 76.1362C167.746 77.1401 167.639 78.432 167.738 79.115C167.911 80.3575 166.743 83.6242 164.109 83.7394C161.468 83.8628 164.052 80.1353 164.249 78.901C164.447 77.675 164.447 73.1904 164.447 73.1904L168.051 74.6963Z" fill="#F7A491"/>
<path d="M164.471 75.0912C164.471 74.0544 164.447 73.1904 164.447 73.1904L168.051 74.6963C168.051 74.6963 167.952 75.3463 167.853 76.1774C166.323 76.5477 165.179 76.0211 164.471 75.0912Z" fill="#F47458"/>
<path d="M168.322 65.4557C168.322 65.4557 169.845 65.9905 170.635 67.5869C171.425 69.175 171.573 73.5937 168.141 75.2394C164.718 76.8933 162.587 73.7253 162.875 70.9276C163.171 68.1217 164.216 64.46 168.322 65.4557Z" fill="#F7A491"/>
<path d="M162.25 69.9649C162.439 70.6725 162.933 71.1498 163.344 71.0428C163.755 70.9276 163.936 70.2693 163.747 69.5617C163.55 68.854 163.064 68.3685 162.653 68.4837C162.241 68.5907 162.06 69.2572 162.25 69.9649Z" fill="#F7A491"/>
<path d="M170.223 71.4786C169.902 72.1781 170.026 72.9186 170.503 73.1326C170.972 73.3465 171.614 72.9515 171.935 72.2521C172.247 71.5527 172.124 70.8121 171.655 70.5982C171.178 70.3842 170.536 70.7792 170.223 71.4786Z" fill="#F7A491"/>
<path d="M88.2506 107.174L56.1265 117.879C53.7073 118.686 51.0742 117.394 50.2514 114.999L29.1864 53.6392C28.3635 51.2447 29.6636 48.6527 32.091 47.8463L64.2152 37.141C66.6343 36.3346 69.2675 37.6265 70.0903 40.021C75.2084 54.9229 90.6945 100.04 91.1553 101.381C91.9782 103.776 90.6781 106.368 88.2506 107.174ZM95.9772 105.504C95.4506 103.981 74.1305 41.8724 73.2007 39.1652C71.7772 35.0098 67.2103 32.7799 63.0138 34.1788L31.2106 44.7689C27.014 46.1677 24.7594 50.6687 26.183 54.8241L48.9595 121.162C50.383 125.318 54.9498 127.548 59.1464 126.149L90.9496 115.559C95.1544 114.16 97.4007 109.659 95.9772 105.504Z" fill="#3D42DD"/>
<path d="M80.0139 114.374C80.5076 115.797 78.2613 117.838 74.9945 118.924C71.7278 120.01 68.6833 119.739 68.1978 118.307C67.7041 116.884 69.9505 114.843 73.2172 113.757C76.4839 112.671 79.5285 112.942 80.0139 114.374Z" fill="#184655"/>
<path d="M79.1501 114.489C79.6109 115.831 77.743 117.657 74.9864 118.579C72.2299 119.5 69.6215 119.155 69.1607 117.814C68.6999 116.472 70.5595 114.637 73.3243 113.724C76.0808 112.802 78.6893 113.148 79.1501 114.489Z" fill="#355389"/>
<path d="M184.45 119.262C183.858 121.871 181.175 123.483 178.443 122.866L142.345 114.704C139.621 114.086 137.893 111.478 138.486 108.878L153.56 42.1692C154.153 39.5607 156.835 37.9479 159.559 38.5651L195.666 46.7278C198.381 47.3449 200.117 49.9533 199.525 52.5535L184.45 119.262ZM196.217 43.4034L160.489 35.323C155.766 34.2533 151.108 37.051 150.088 41.5685L133.779 113.691C132.759 118.209 135.762 122.735 140.485 123.796L176.222 131.876C180.937 132.946 185.594 130.148 186.614 125.631L202.923 53.5081C203.944 48.9906 200.94 44.4649 196.217 43.4034Z" fill="#F26D0A"/>
<path d="M166.668 124.766C166.315 126.322 163.056 126.906 159.394 126.075C155.724 125.244 153.034 123.318 153.388 121.763C153.733 120.216 156.992 119.624 160.662 120.455C164.332 121.286 167.022 123.219 166.668 124.766Z" fill="#466EB6"/>
<path d="M165.788 124.388C165.459 125.853 162.686 126.462 159.584 125.762C156.481 125.063 154.235 123.31 154.572 121.854C154.902 120.397 157.675 119.78 160.777 120.48C163.879 121.179 166.125 122.932 165.788 124.388Z" fill="#86B1F2"/>
<path d="M173.128 81.2951C173.128 81.2951 184.87 78.4398 187.487 77.9626C190.111 77.4853 199.188 74.2021 199.541 74.0705C199.887 73.9306 201.187 69.2568 201.697 69.5859C202.207 69.9068 200.907 71.9393 201.549 72.2026C202.191 72.4659 207.663 70.0138 207.704 70.4582C207.77 71.2892 204.413 72.0874 204.52 72.4659C204.627 72.8444 207.951 71.3139 208.354 71.8817C208.766 72.4495 205.071 73.0419 205.005 73.3628C204.939 73.6837 208.552 73.2641 208.354 73.9553C208.247 74.3256 205.129 74.2433 205.268 74.6794C205.4 75.1155 207.77 75.5351 207.605 75.9548C207.441 76.3745 205.663 75.3294 204.437 75.6421C203.211 75.9548 202.166 75.5516 200.364 76.6131C198.554 77.6746 192.638 82.1426 188.425 83.0642C184.212 83.9858 174.913 86.0512 174.913 86.0512L173.128 81.2951Z" fill="#F7A491"/>
<path d="M170.289 79.4851C170.684 79.2958 171.902 79.2629 173.35 79.2794C173.885 79.2794 174.642 79.2876 175.21 79.2712C177.333 79.2053 179.349 79.3041 179.349 79.3041C179.349 79.3041 180.41 84.4634 179.521 85.7799C179.521 85.7799 171.227 86.9648 171.425 87.5408L170.289 79.4851Z" fill="#50BFA5"/>
<path d="M141.514 79.5179L142.222 78.6128C142.222 78.6128 142.666 77.9216 143.341 77.8558C144.007 77.79 143.982 76.9506 143.275 77.0658C142.567 77.1893 142.123 77.3621 142.123 77.3621C142.123 77.3621 143.53 76.638 143.555 76.5392C143.694 76.0126 142.921 75.8069 141.876 76.5804C140.839 77.3538 141.514 79.5179 141.514 79.5179Z" fill="#F7A491"/>
<path d="M45.627 106.648C45.1744 106.895 44.8535 107.125 44.7136 107.232C44.7219 107.215 44.7301 107.199 44.7383 107.183C44.8864 107.026 45.3966 106.483 45.4048 106.475C46.0796 105.957 45.7257 105.405 45.0921 105.751C44.4585 106.096 44.0965 106.393 44.0965 106.393C44.0965 106.393 45.1909 105.331 45.1826 105.158C45.1662 104.615 44.3433 104.673 43.611 105.743C42.9692 106.672 43.9155 108.31 44.1952 108.697C44.4668 109.256 44.9605 109.519 44.9605 109.519L45.1333 108.45C45.1333 108.45 45.3308 107.652 45.9397 107.372C46.5486 107.1 46.2606 106.31 45.627 106.648Z" fill="#F7A491"/>
<path d="M144.106 76.2427C144.106 76.2427 145.776 74.9014 146.04 75.4692C146.303 76.0452 146.188 77.2795 145.941 77.189C145.686 77.0985 145.727 76.2262 145.003 76.4484C144.805 76.5142 143.81 76.8269 144.106 76.2427Z" fill="#F7A491"/>
<path d="M173.334 30.5091L113.405 17.7302C110.04 17.0061 107.892 13.6982 108.608 10.3328L109.76 4.93485C110.476 1.56939 113.792 -0.578252 117.158 0.137629L177.086 12.9165C180.451 13.6406 182.599 16.9485 181.883 20.314L180.731 25.7119C180.015 29.0773 176.707 31.225 173.334 30.5091Z" fill="#3D42DD"/>
<path d="M162.645 26.0659L168.166 33.6032L169.935 28.0243L162.645 26.0659Z" fill="#96D9C9"/>
<path d="M127.978 9.13113C127.69 10.4806 126.225 11.3199 124.703 10.9908C123.181 10.6699 122.177 9.31216 122.465 7.95446C122.753 6.60498 124.226 5.76567 125.748 6.09481C127.27 6.41572 128.266 7.78166 127.978 9.13113Z" fill="white"/>
<path d="M125.23 10.9497L124.234 10.7358C122.325 10.3244 120.441 11.5504 120.029 13.4594L119.643 15.2779L127.567 16.9648L127.953 15.1463C128.365 13.2373 127.147 11.3529 125.23 10.9497Z" fill="white"/>
<path d="M151.701 15.9115C151.149 18.5364 146.904 19.853 142.23 18.8573C137.564 17.8617 134.223 14.9241 134.783 12.3075C135.343 9.68255 139.588 8.36599 144.254 9.36164C148.928 10.3573 152.26 13.2866 151.701 15.9115Z" fill="white"/>
<path d="M143.991 17.9443L141.283 20.4952L147.685 18.9811L147.447 14.8422L143.991 17.9443Z" fill="white"/>
<path d="M163.64 17.5738L164.611 17.0883C164.907 16.9402 165.056 16.6029 164.973 16.282C164.8 15.6566 164.438 14.6116 163.755 13.7969C163.55 13.5583 163.204 13.4843 162.916 13.6241L161.221 14.447C161.007 14.554 160.859 14.7597 160.834 14.9983C160.711 15.994 160.587 18.7505 162.324 21.0792C164.307 23.7288 166.339 25.07 167.771 25.7118C168.001 25.8188 168.273 25.7941 168.479 25.6378L170.042 24.4776C170.314 24.2718 170.396 23.9016 170.248 23.5971C169.935 22.9882 169.269 21.9843 167.993 21.2849C167.738 21.145 167.417 21.1779 167.195 21.3754L166.611 21.8938C166.372 22.1077 166.027 22.1324 165.755 21.9514C165.187 21.5729 164.216 20.6431 163.303 18.4707C163.163 18.1334 163.311 17.7384 163.64 17.5738Z" fill="white"/>
<path d="M104.741 78.6705L95.7057 73.1739C94.7841 72.6226 94.4961 71.4212 95.0557 70.5078L100.544 61.4729C101.104 60.5513 102.297 60.2633 103.218 60.8229L112.253 66.3113C113.167 66.8708 113.463 68.064 112.903 68.9773L107.415 78.0205C106.855 78.9338 105.662 79.2218 104.741 78.6705Z" fill="#96D9C9"/>
<path d="M109.497 71.2813C109.834 70.9357 109.727 70.2856 109.233 69.8495C107.069 67.9322 104.584 66.41 101.902 65.3403C101.293 65.0934 100.659 65.2991 100.503 65.7599C99.2522 69.4628 99.6883 68.0721 99.1452 70.2198C99.0218 70.7217 99.3016 71.2319 99.7706 71.4211C100.281 71.6269 100.865 71.4129 101.104 70.9192C101.235 70.6477 101.359 70.3761 101.49 70.1046C101.63 69.7919 102.042 69.6767 102.387 69.8495C103.309 70.3185 104.198 70.8616 105.037 71.4541C105.358 71.6845 105.44 72.0959 105.234 72.3674C105.053 72.606 104.872 72.8364 104.691 73.0751C104.37 73.5112 104.461 74.1201 104.872 74.4739C105.267 74.7948 105.843 74.8113 106.23 74.4822C106.625 74.1283 108.814 71.9971 109.497 71.2813Z" fill="white"/>
<path d="M102.502 66.7803C102.626 66.8461 102.716 66.9449 102.774 67.0601L103.078 66.5581L102.437 66.1714L102.132 66.6651C102.256 66.6733 102.387 66.7062 102.502 66.7803Z" fill="#96D9C9"/>
<path d="M101.49 67.0272C101.564 66.9037 101.663 66.8132 101.77 66.7556L101.276 66.4512L100.881 67.093L101.383 67.3974C101.383 67.274 101.416 67.1424 101.49 67.0272Z" fill="#96D9C9"/>
<path d="M101.737 68.039C101.622 67.965 101.531 67.8662 101.466 67.7593L101.169 68.253L101.811 68.648L102.116 68.146C101.984 68.146 101.852 68.1131 101.737 68.039Z" fill="#96D9C9"/>
<path d="M102.864 67.4141C102.856 67.5457 102.823 67.6774 102.749 67.7926C102.683 67.9078 102.585 67.9983 102.469 68.0559L102.971 68.3603L103.358 67.7185L102.864 67.4141Z" fill="#96D9C9"/>
<path d="M102.502 67.6443C102.379 67.8582 102.099 67.924 101.885 67.7924C101.671 67.6607 101.606 67.3892 101.737 67.1753C101.869 66.9613 102.14 66.8955 102.354 67.0189C102.568 67.1506 102.634 67.4303 102.502 67.6443Z" fill="#96D9C9"/>
<path d="M108.205 71.1744C107.933 71.627 107.341 71.7751 106.88 71.4953C106.427 71.2238 106.279 70.6313 106.559 70.1705C106.839 69.718 107.431 69.5781 107.884 69.8496C108.336 70.1294 108.485 70.7218 108.205 71.1744Z" fill="#96D9C9"/>
<path d="M113.249 36.8286C113.249 36.8286 113.578 34.9525 115.528 34.0473C117.256 33.2409 119.132 34.1461 119.914 35.8412C120.827 37.7995 120.268 40.877 116.976 44.8514C111.809 44.802 109.11 43.2386 108.197 41.272C107.415 39.5851 107.933 37.5691 109.669 36.771C111.611 35.8658 113.249 36.8286 113.249 36.8286Z" fill="#F48C7F"/>
<path d="M50.5889 28.4189L39.1101 33.8909C37.7524 34.5327 36.1314 33.9567 35.4895 32.6073L32.4038 26.1397C31.762 24.7819 32.338 23.1609 33.6875 22.5191L45.1745 17.0471C46.524 16.4053 48.145 16.9813 48.795 18.3308L51.8725 24.7984C52.5143 26.1479 51.9383 27.7689 50.5889 28.4189Z" fill="#F26D0A"/>
<path d="M34.4198 29.0771L31.9595 36.4005L37.4232 32.3686L34.4198 29.0771Z" fill="#FAE0B2"/>
<path d="M38.4765 26.247L39.9247 25.5064C39.9247 25.5064 41.1014 23.2354 40.9204 22.717C40.7394 22.1986 39.9412 21.3181 40.1634 21.0466C40.3855 20.7833 40.9451 20.3801 41.6363 20.8409C42.1464 21.1782 42.7471 22.9967 42.9693 23.0296C43.1174 23.0461 43.9649 22.6511 44.5738 22.3467C44.977 22.1492 45.4625 22.1903 45.8246 22.4536C46.0714 22.6347 46.1537 22.9638 46.0303 23.2354L45.841 23.6715L46.2607 23.8854C46.5734 24.05 46.705 24.4367 46.5405 24.7494L46.3759 25.0703L46.6557 25.1855C47.0095 25.3336 47.1494 25.7615 46.9683 26.0907L46.812 26.3622L46.8778 26.4116C47.1494 26.6091 47.2317 26.9793 47.0589 27.2673L46.9025 27.5306L43.0351 29.489C42.6731 29.6783 42.2781 29.7853 41.8667 29.81L40.3938 30.279C40.2374 30.3283 40.0646 30.2543 39.9906 30.1062L38.3284 26.6913C38.2461 26.5268 38.3119 26.3293 38.4765 26.247Z" fill="white"/>
<path d="M133.458 44.2012C142.139 42.2346 150.154 44.9582 151.363 50.2821C151.964 52.9481 150.754 55.7623 148.311 58.1568L153.618 65.2168L144.822 60.7899C142.814 61.9666 140.444 62.9128 137.844 63.5053C129.163 65.4801 121.148 62.7565 119.939 57.4244C118.729 52.0924 124.777 46.1761 133.458 44.2012Z" fill="#FAE0B2"/>
<path d="M141.818 53.4586C141.687 56.5608 139.078 58.9717 135.976 58.8401C132.882 58.7166 130.471 56.1 130.595 53.006C130.718 49.9039 133.335 47.4929 136.429 47.6164C139.531 47.748 141.942 50.3564 141.818 53.4586Z" fill="#F7CC7F"/>
<path d="M133.17 54.0015C133.104 55.6554 134.388 57.0542 136.05 57.1201C137.704 57.1859 139.103 55.894 139.169 54.2401L133.17 54.0015Z" fill="#EFEFEF"/>
<path d="M24.2905 69.0352L21.4269 69.6029L21.7808 72.3019L18.9913 72.9848L19.0078 75.6097L17 76.4655L17.4361 77.4776L20.1186 76.3339L20.1021 73.8488L23.0068 73.1412L22.6612 70.4834L25.2532 69.965L24.2905 69.0352Z" fill="#F48C7F"/>
<path d="M215.019 91.2192L214.213 88.4133L211.555 88.9811L210.65 86.2492L208.033 86.4796L207.021 84.5459L206.042 85.0643L207.399 87.648L209.876 87.4259L210.823 90.2729L213.439 89.7052L214.163 92.256L215.019 91.2192Z" fill="#F7CC7F"/>
<path d="M24.7678 39.075L23.1632 39.5687L22.0935 37.0837L19.6661 37.5116L18.5553 35.7754L17.6748 36.3432L19.1642 38.6554L21.4599 38.2439L22.579 40.8359L24.99 40.0954L24.7678 39.075Z" fill="#50BFA5"/>
<path d="M84.0953 49.1382C83.5357 48.6774 82.2274 48.2989 81.5856 48.2413C80.9355 48.1837 78.0967 48.1837 77.7264 48.8666C77.3643 49.5496 80.3431 51.4751 80.4994 52.2815C80.6558 53.0796 78.7714 65.5458 78.2283 68.0226C77.965 69.2404 76.9365 71.5444 75.9573 73.5604C77.3643 73.7826 79.0759 74.9263 80.1456 75.7492C81.528 72.7293 82.935 69.3392 83.1161 67.7511C83.4699 64.5337 84.6548 49.599 84.0953 49.1382Z" fill="#F7A491"/>
<path d="M86.3169 31.5295C87.9626 30.3281 91.3528 28.8635 92.0851 28.5508C92.4554 29.2502 92.801 31.0687 92.7023 31.8257C91.8959 31.7599 88.3082 31.8422 86.3169 31.5295ZM92.3155 27.6374C91.3528 27.5551 86.2922 31.4061 86.2922 31.4061L86.0701 31.7105C86.0701 31.7105 92.8915 32.8625 93.2124 32.6486C94.0764 32.0726 93.1137 27.7032 92.3155 27.6374Z" fill="#466EB6"/>
<path d="M80.3596 25.6378C80.2279 24.8972 82.1205 23.3174 82.7376 23.1199C82.8858 23.1034 83.0092 23.087 83.1079 23.1199C83.2149 23.1528 83.6345 23.3667 84.1447 24.7327C84.7125 26.2385 85.2967 29.7109 85.2885 31.0933C83.1162 29.283 80.4995 26.2714 80.3596 25.6378ZM84.9347 24.4447C84.0624 22.0995 83.2067 22.2147 82.606 22.2888C81.9971 22.3711 79.2734 24.2965 79.5285 25.7777C79.7836 27.2588 85.2309 31.587 85.2309 31.587L85.5929 31.1674C85.5929 31.1674 85.8069 26.7816 84.9347 24.4447Z" fill="#466EB6"/>
<path d="M85.272 32.5001L85.5682 32.5906C85.8644 32.6729 86.1689 32.5001 86.2512 32.2039L86.5063 31.3317C86.5886 31.0437 86.4158 30.731 86.1195 30.6487L85.8315 30.5664C85.5353 30.4841 85.2308 30.6487 85.1403 30.9449L84.8935 31.8172C84.8112 32.1134 84.984 32.4178 85.272 32.5001Z" fill="#466EB6"/>
<path d="M90.8098 51.5984L72.0241 46.2334C71.0037 45.9372 70.3866 44.9086 70.6088 43.8801L73.9331 28.501L98.4047 35.4952L92.8916 50.9155C92.6612 51.5655 91.7478 51.8617 90.8098 51.5984Z" fill="#F47458"/>
<path d="M98.4787 39.075L71.9006 31.5376L72.1063 29.7521C72.2215 28.6741 73.283 27.9747 74.3198 28.2709L98.3389 35.1993C99.1946 35.4462 99.713 36.1703 99.4662 36.7545L98.4787 39.075Z" fill="#FAE0B2"/>
<path d="M85.1487 35.3063L84.6467 35.1581L85.6835 31.5376L86.1855 31.6857L85.1487 35.3063Z" fill="#466EB6"/>
<path d="M81.9065 49.081L81.2729 48.9L85.165 35.29L85.7986 35.4711L81.9065 49.081Z" fill="#466EB6"/>
<path d="M79.2488 49.1137L79.3228 48.3155C78.6728 48.1345 77.9322 47.8629 77.5454 47.7066L77.4467 47.0977C77.1093 46.2584 76.7308 46.8508 76.6239 47.0483C76.6239 47.0483 76.5909 48.118 76.7144 48.2414C76.7144 48.2414 77.9816 49.5827 78.5246 50.0846C78.788 50.3397 79.6437 51.0309 79.6437 51.0309L80.3267 50.0929L79.2488 49.1137Z" fill="#F7A491"/>
</svg>
