<svg width="124" height="29" viewBox="0 0 124 29" fill="none" xmlns="http://www.w3.org/2000/svg">
<path d="M7.128 6.864C3.864 6.864 1.296 8.736 1.296 11.736C1.296 14.784 3.36 15.984 6.84 16.752L7.056 16.8C9.264 17.28 10.512 17.76 10.512 19.224C10.512 20.472 9.552 21.552 7.512 21.552C4.968 21.552 3.792 20.16 3.792 18.096V17.664H0.672V18.192C0.672 22.128 3.312 24.336 7.416 24.336C10.992 24.336 13.632 22.44 13.632 19.056C13.632 16.008 11.592 14.784 8.136 14.016L7.92 13.968C5.904 13.512 4.416 13.224 4.416 11.64C4.416 10.488 5.448 9.648 7.128 9.648C9.048 9.648 10.272 10.488 10.272 12.408V12.912H13.344V12.192C13.344 8.832 10.728 6.864 7.128 6.864ZM14.5804 12.096V14.688H17.6044V21.696C17.6044 23.04 18.6124 24 19.9564 24H23.2204V21.408H21.3004C20.8684 21.408 20.6284 21.168 20.6284 20.688V14.688H23.8924V12.096H20.6284V8.4H17.6044V12.096H14.5804ZM37.4745 24V12.096H34.4505V18.24C34.4505 20.352 33.4185 21.552 31.4745 21.552C29.7465 21.552 28.7865 20.568 28.7865 18.912V12.096H25.7625V19.2C25.7625 22.296 27.7545 24.192 30.3945 24.192C32.5785 24.192 33.6825 23.184 34.1625 22.08H34.4985V24H37.4745ZM52.0125 7.2H48.9885V13.776H48.7005C48.0765 12.768 47.0205 11.76 44.9085 11.76C41.9325 11.76 39.4365 14.4 39.4365 18.048C39.4365 21.696 41.9325 24.336 44.9085 24.336C47.0205 24.336 48.0765 23.328 48.7005 22.32H49.0365V24H52.0125V7.2ZM45.7245 14.448C47.5965 14.448 48.9885 15.792 48.9885 18.048C48.9885 20.304 47.5965 21.648 45.7245 21.648C43.9005 21.648 42.4605 20.352 42.4605 18.048C42.4605 15.744 43.9005 14.448 45.7245 14.448ZM63.2072 12.096L60.0872 20.64H59.7992L56.6792 12.096H53.4152L58.3592 24.768L56.6792 28.8H59.9432L66.4712 12.096H63.2072ZM67.9076 7.2V24H71.0756V10.176H71.3636L75.2036 24H80.8196V7.2H77.6516V21.024H77.3636L73.5236 7.2H67.9076ZM82.8428 18.048C82.8428 21.792 85.5788 24.336 89.0828 24.336C92.5868 24.336 95.3228 21.792 95.3228 18.048C95.3228 14.304 92.5868 11.76 89.0828 11.76C85.5788 11.76 82.8428 14.304 82.8428 18.048ZM85.8668 18.048C85.8668 15.888 87.1628 14.448 89.0828 14.448C91.0028 14.448 92.2988 15.888 92.2988 18.048C92.2988 20.208 91.0028 21.648 89.0828 21.648C87.1628 21.648 85.8668 20.208 85.8668 18.048ZM96.0759 12.096L98.4279 24H102.748L104.62 14.688H104.908L106.78 24H111.1L113.452 12.096H110.428L109.012 21.408H108.724L106.852 12.096H102.676L100.804 21.408H100.516L99.0999 12.096H96.0759Z" fill="#3D42DD"/>
<circle cx="119" cy="24" r="5" fill="#F26D0A"/>
</svg>
